<?xml version="1.0" standalone="no"?>
<!DOCTYPE svg PUBLIC "-//W3C//DTD SVG 20010904//EN"
 "http://www.w3.org/TR/2001/REC-SVG-20010904/DTD/svg10.dtd">
<svg version="1.0" xmlns="http://www.w3.org/2000/svg"
 width="350.000000pt" height="320.000000pt" viewBox="0 0 350.000000 320.000000"
 preserveAspectRatio="xMidYMid meet">

<g transform="translate(0.000000,320.000000) scale(0.100000,-0.100000)"
fill="#000000" stroke="none">
<path d="M0 3074 l0 -125 22 7 c21 6 47 31 48 45 0 3 6 6 13 7 43 5 77 16 77
23 0 5 13 9 29 9 16 0 36 6 44 14 9 10 18 11 24 5 11 -11 63 -2 63 12 0 4 -8
13 -17 19 -16 10 -16 11 4 7 17 -4 24 2 32 24 5 16 17 29 25 29 9 0 16 5 16
10 0 6 -7 10 -15 10 -9 0 -12 6 -9 15 5 13 -18 15 -175 15 l-181 0 0 -126z
m320 46 c0 -5 -2 -10 -4 -10 -3 0 -8 5 -11 10 -3 6 -1 10 4 10 6 0 11 -4 11
-10z"/>
<path d="M2926 3160 c-9 -22 -16 -57 -16 -78 0 -24 -3 -32 -9 -23 -12 18 -19
4 -22 -45 -4 -50 27 -90 60 -79 17 5 20 3 14 -11 -6 -17 30 -53 55 -54 19 0
38 -21 46 -53 3 -15 11 -27 16 -27 6 0 10 -9 10 -20 0 -11 7 -20 15 -20 8 0
15 -8 15 -17 0 -9 7 -24 16 -34 15 -16 14 -22 -10 -71 -14 -29 -25 -45 -26
-35 0 9 -4 17 -10 17 -5 0 -10 -8 -11 -17 0 -15 -2 -15 -11 3 -9 20 -11 20
-56 5 -26 -9 -48 -19 -50 -23 -2 -5 -10 -8 -17 -8 -8 0 -19 -9 -25 -20 -6 -11
-16 -20 -23 -19 -26 3 -37 -2 -37 -17 0 -13 -6 -10 -27 10 -27 28 -71 32 -65
7 2 -9 -4 -12 -17 -8 -12 3 -22 -1 -25 -10 -3 -8 -10 -11 -16 -8 -5 3 -16 3
-22 -2 -7 -4 -22 -9 -32 -10 -19 -3 -43 -30 -58 -63 -5 -12 -7 -12 -7 3 -1 25
-41 22 -48 -4 -4 -14 -11 -18 -22 -13 -9 3 -22 6 -28 5 -7 -1 -26 -3 -43 -4
-16 -1 -30 -5 -30 -10 0 -4 -10 -5 -23 -2 -20 5 -23 2 -25 -26 -1 -17 -7 -40
-13 -51 -6 -11 -8 -22 -5 -26 3 -3 6 0 6 6 0 7 8 12 18 11 9 0 12 -3 5 -5 -7
-3 -9 -13 -6 -21 5 -12 2 -15 -8 -11 -9 4 -21 -2 -28 -14 -16 -25 -8 -34 12
-13 22 22 44 19 51 -7 9 -34 8 -37 -14 -35 -22 1 -27 13 -7 20 6 3 2 6 -10 6
-18 1 -23 -5 -23 -22 0 -14 -6 -24 -15 -24 -18 0 -20 14 -2 20 33 12 -15 22
-101 21 l-97 -2 70 9 c73 10 85 18 85 62 0 28 14 37 24 15 3 -9 9 -8 20 6 8
10 13 23 9 29 -3 5 -8 5 -12 -1 -8 -13 -22 -4 -38 24 -9 17 -8 31 5 67 9 25
14 48 11 51 -3 3 -42 3 -87 -1 -71 -5 -82 -8 -82 -24 0 -11 6 -19 13 -19 9 0
9 -2 0 -8 -15 -10 -6 -49 13 -56 8 -3 14 -13 14 -23 1 -16 2 -16 13 -2 15 20
37 13 37 -11 0 -28 -17 -33 -50 -16 -30 14 -30 14 -30 -15 0 -34 -20 -40 -21
-6 -1 21 -1 21 -10 -3 -7 -19 -8 -15 -5 20 2 25 2 37 -1 28 -7 -26 -22 -22
-17 5 4 20 3 20 -7 -3 -11 -24 -12 -22 -29 35 -10 33 -19 51 -19 40 -1 -11 -8
-38 -15 -60 -21 -60 -42 -57 -104 17 -29 35 -70 79 -92 98 -22 19 -40 42 -40
51 0 17 -30 22 -30 5 0 -6 -16 -28 -35 -50 -30 -33 -35 -35 -35 -17 0 14 -6
21 -20 21 -20 0 -23 -19 -5 -32 6 -5 5 -8 -2 -8 -9 0 -11 -14 -8 -47 4 -35 3
-42 -4 -28 -5 11 -10 35 -10 53 -1 19 -5 31 -11 27 -5 -3 -10 -1 -10 4 0 6 4
11 9 11 5 0 11 9 14 20 3 11 1 20 -5 20 -5 0 -7 3 -4 8 2 4 -2 34 -10 67 -7
33 -14 80 -14 105 0 27 -4 40 -8 32 -5 -7 -8 -50 -7 -95 2 -95 -2 -117 -22
-117 -11 0 -13 -9 -7 -46 7 -52 29 -84 56 -84 39 0 15 -20 -24 -21 -24 -1 -35
-3 -25 -6 9 -2 17 -11 17 -18 0 -8 9 -17 20 -20 27 -9 25 -33 -2 -38 -19 -4
-18 -4 5 -6 25 -1 28 2 25 26 -2 15 2 28 10 30 7 3 12 -5 12 -21 0 -20 5 -26
23 -26 25 1 62 44 51 62 -4 6 -3 8 3 5 6 -4 29 13 52 38 61 66 50 43 -15 -31
-31 -36 -53 -68 -49 -72 4 -4 10 -1 12 6 3 6 18 12 35 12 25 0 28 -2 18 -14
-6 -8 -18 -12 -26 -9 -7 3 -17 -2 -20 -11 -5 -13 -22 -16 -81 -16 -71 0 -74
-1 -68 -21 5 -14 2 -25 -6 -30 -10 -6 -11 -9 -1 -9 6 0 12 -5 12 -11 0 -6 -9
-8 -20 -4 -26 8 -27 -19 -1 -37 23 -16 40 -88 21 -88 -8 0 -11 -10 -7 -27 3
-15 1 -36 -5 -47 -10 -18 -7 -19 38 -14 27 3 41 4 32 1 -32 -8 -19 -22 16 -18
26 2 32 0 24 -9 -6 -6 -28 -11 -49 -10 -22 0 -39 -3 -39 -8 0 -4 10 -8 23 -9
20 0 20 -1 3 -8 -18 -7 -18 -8 -3 -14 22 -8 22 -60 1 -81 -14 -15 -14 -16 3
-16 17 -1 17 -1 0 -14 -10 -8 -13 -16 -8 -17 6 -2 12 -28 14 -57 3 -42 1 -52
-9 -48 -17 7 -19 -10 -1 -18 6 -3 3 -4 -8 -3 -16 2 -20 9 -17 37 l2 35 -15
-40 c-13 -35 -12 -41 2 -57 9 -10 19 -15 23 -13 5 3 6 -3 3 -13 -2 -10 -10
-19 -18 -19 -7 0 -11 6 -8 13 8 21 -18 27 -35 8 -16 -17 -16 -17 1 -5 9 8 21
10 25 6 4 -4 2 -10 -4 -12 -18 -6 -4 -44 20 -53 18 -7 18 -9 3 -9 -31 -1 -57
18 -50 36 6 15 5 16 -9 3 -9 -8 -13 -17 -9 -20 11 -9 12 -46 2 -71 -9 -22 -10
-20 -11 16 -1 43 -18 96 -19 63 -1 -10 -9 -18 -18 -18 -11 0 -14 -3 -7 -8 11
-7 16 -61 8 -99 -4 -19 -11 -23 -43 -23 -26 0 -38 4 -38 14 0 21 47 28 48 7 1
-9 4 -2 8 14 4 17 4 31 0 33 -4 2 -5 11 -2 20 3 15 -3 16 -49 13 -29 -2 -47
-6 -40 -8 13 -5 16 -43 6 -80 -5 -17 -14 -23 -35 -23 -24 0 -29 4 -29 25 0 14
-4 25 -10 25 -5 0 -10 -9 -10 -20 0 -11 -5 -20 -11 -20 -6 0 -9 9 -6 20 3 13
0 20 -9 20 -8 0 -14 -10 -14 -25 0 -14 -4 -25 -10 -25 -11 0 -13 42 -4 77 4
13 10 20 15 17 5 -3 9 2 9 10 0 10 9 16 21 16 15 0 19 4 15 16 -3 9 -6 18 -6
20 0 11 -20 1 -53 -24 -24 -19 -33 -33 -28 -43 13 -23 6 -79 -9 -89 -12 -8
-11 -10 4 -10 20 0 20 0 0 -15 -11 -8 -14 -15 -6 -15 6 0 12 -8 12 -17 0 -14
2 -15 9 -4 5 8 17 11 32 6 19 -5 21 -4 9 4 -11 9 -3 10 33 7 26 -2 49 0 52 5
3 4 12 6 21 2 11 -4 14 -18 12 -57 l-3 -51 -77 -3 c-66 -2 -77 0 -81 15 -4 17
-5 17 -6 1 0 -10 -5 -18 -11 -18 -5 0 -10 -5 -10 -11 0 -5 5 -7 10 -4 6 3 10
-1 10 -10 0 -10 5 -13 11 -9 7 4 39 10 73 14 33 5 72 11 86 15 16 4 20 3 12
-2 -7 -5 -14 -38 -15 -76 l-4 -67 33 6 c32 6 33 5 37 -33 l4 -38 1 43 c2 31
-2 42 -12 42 -8 0 -18 5 -22 12 -5 8 0 9 14 6 12 -4 20 -2 16 3 -3 5 3 9 13
10 10 0 13 3 6 6 -16 6 -17 49 -2 58 16 10 19 3 21 -51 2 -49 3 -50 36 -51 24
-1 37 5 49 23 8 13 23 23 32 23 13 -1 12 -2 -2 -6 -11 -3 -16 -11 -13 -19 3
-8 -1 -14 -9 -14 -8 0 -15 -6 -15 -14 0 -8 8 -13 18 -11 9 1 11 0 5 -2 -7 -3
-13 -11 -13 -19 0 -8 -4 -14 -10 -14 -5 0 -10 -5 -10 -11 0 -6 -7 -18 -16 -27
-15 -15 -15 -16 2 -23 23 -9 25 -9 -58 -13 -53 -3 -68 0 -68 10 0 8 -5 14 -11
14 -6 0 -9 -7 -5 -15 3 -9 0 -15 -9 -15 -8 0 -15 -4 -15 -10 0 -5 -7 -10 -16
-10 -9 0 -12 5 -8 12 4 7 3 8 -5 4 -6 -4 -9 -11 -6 -16 6 -9 -55 -33 -64 -25
-3 3 5 8 17 11 18 5 19 8 7 20 -16 16 -29 19 -20 4 8 -13 -15 -34 -42 -38 -18
-3 -22 2 -21 27 l1 31 81 2 81 2 -89 5 -89 6 26 31 c15 18 27 39 27 47 0 9 8
17 18 19 16 3 16 4 -1 11 -13 5 -21 -1 -31 -26 l-14 -32 -3 45 c-1 33 -3 38
-6 16 -3 -17 -12 -30 -23 -33 -11 -3 -21 -12 -23 -22 -4 -14 -5 -14 -6 2 -1
21 -21 23 -21 2 0 -8 -4 -15 -10 -15 -5 0 -10 8 -10 18 0 13 -6 11 -25 -12
-14 -16 -25 -25 -25 -19 0 5 -16 10 -35 11 -19 1 -35 -3 -35 -9 0 -6 7 -8 16
-5 8 3 24 -3 35 -13 11 -10 34 -21 50 -25 18 -3 28 -10 24 -16 -4 -6 -9 -27
-11 -48 -3 -20 -7 -45 -10 -54 -3 -10 0 -18 7 -18 8 0 9 -4 0 -13 -8 -10 -7
-17 1 -25 7 -7 8 -12 2 -12 -5 0 -7 -39 -4 -98 3 -53 3 -119 0 -145 l-6 -47
36 -1 35 -1 -40 -8 c-22 -5 -48 -6 -58 -3 -16 4 -17 2 -8 -15 6 -12 12 -39 13
-61 1 -22 5 -38 9 -35 4 2 13 -5 19 -17 12 -21 12 -21 42 7 20 19 32 25 35 17
3 -9 10 -9 28 3 13 9 39 18 57 21 18 3 36 9 39 14 3 5 36 8 73 7 63 -1 66 -3
42 -15 l-26 -13 21 -21 c20 -20 20 -22 4 -39 -17 -18 -16 -19 4 -15 11 2 23 0
25 -4 5 -8 -9 -11 -49 -12 -16 0 -17 -2 -5 -9 13 -9 13 -11 0 -20 -12 -8 -12
-12 -2 -18 10 -7 10 -11 -3 -22 -17 -14 -21 -50 -4 -50 6 0 7 -5 2 -12 -12
-20 -12 -38 -1 -38 6 0 4 -7 -3 -17 -12 -14 -12 -16 1 -11 8 2 15 11 15 19 0
8 8 25 18 39 9 13 17 19 17 13 0 -7 -4 -15 -10 -18 -5 -3 -10 -11 -10 -16 0
-6 5 -7 10 -4 17 10 11 -4 -10 -27 -10 -12 -17 -24 -15 -29 3 -4 -16 -19 -42
-35 -42 -24 -59 -24 -53 2 1 4 -4 10 -12 15 -10 6 -8 13 10 29 27 26 29 34 2
18 -16 -10 -22 -10 -32 0 -7 8 -8 12 -3 10 15 -4 58 29 47 36 -6 3 -17 -1 -26
-10 -23 -22 -32 -11 -30 37 1 38 0 41 -12 24 -7 -10 -11 -22 -7 -28 3 -6 2 -8
-3 -5 -5 3 -15 0 -22 -8 -11 -12 -9 -14 9 -14 26 0 18 -12 -11 -17 -14 -2 -20
3 -20 16 0 10 -7 22 -16 25 -12 5 -14 1 -9 -15 5 -15 4 -19 -4 -15 -6 4 -11 0
-11 -9 0 -8 -8 -18 -17 -22 -10 -3 -26 -13 -36 -22 -17 -15 -18 -14 -12 14 4
17 9 38 12 48 7 25 -6 21 -16 -5 -20 -57 -21 -76 -4 -81 11 -3 7 -5 -9 -6 -30
-1 -35 8 -16 27 8 8 8 12 1 12 -11 0 -25 -25 -27 -45 -1 -5 -15 -10 -32 -11
-30 -1 -31 0 -24 27 10 35 -10 58 -30 34 -7 -8 -17 -15 -23 -15 -5 0 0 9 13
20 13 11 30 20 39 20 12 0 9 6 -9 20 -14 10 -21 22 -17 26 4 4 7 1 7 -7 1 -10
5 -8 17 6 15 20 15 20 10 -3 -7 -30 7 -28 28 4 15 23 15 27 0 50 -15 23 -14
24 5 24 12 0 18 -5 15 -10 -4 -6 -3 -10 2 -9 21 4 34 -2 27 -13 -4 -7 -3 -8 5
-4 6 4 9 11 6 16 -3 5 3 11 12 14 10 3 6 4 -9 2 -16 -2 -28 1 -28 5 0 15 -47
10 -60 -6 -13 -16 -35 -10 -24 6 3 5 0 8 -8 7 -8 -2 -13 6 -12 20 1 12 -2 22
-5 22 -9 0 -36 -72 -33 -88 2 -6 -6 -12 -18 -12 -22 0 -27 -16 -7 -23 9 -3 8
-13 -6 -41 -9 -20 -21 -35 -26 -32 -4 3 -16 -1 -27 -8 -21 -16 -45 -11 -38 8
2 6 -4 12 -15 13 -13 1 -18 -3 -14 -13 3 -8 1 -14 -4 -14 -5 0 -9 25 -9 55 0
30 2 53 4 50 3 -2 14 2 25 10 12 9 31 12 45 8 24 -6 25 -4 18 28 -3 18 -11 36
-17 40 -7 4 -9 11 -5 17 4 6 -2 8 -15 5 -19 -5 -21 -3 -15 20 3 14 2 29 -4 32
-6 4 -10 -11 -10 -39 0 -35 -4 -46 -19 -51 -10 -3 -22 -20 -26 -38 -5 -22 -9
-26 -12 -14 -2 9 -9 17 -14 17 -6 0 -7 -4 -4 -10 3 -5 0 -7 -9 -4 -12 5 -13 9
-3 19 6 7 18 10 24 8 7 -3 13 -1 13 5 0 6 -5 12 -12 14 -13 5 -2 28 13 28 6 0
7 -4 4 -10 -3 -5 -1 -10 4 -10 13 0 14 10 3 28 -6 9 -14 7 -30 -8 -12 -12 -22
-16 -22 -9 0 8 -4 8 -15 -1 -8 -7 -15 -9 -15 -5 0 4 -7 2 -15 -5 -11 -9 -15
-9 -15 -1 0 6 10 16 22 21 13 5 17 9 10 9 -7 1 -10 5 -7 11 3 5 0 7 -9 4 -8
-3 -22 -21 -31 -40 -9 -19 -18 -34 -21 -34 -3 0 -2 5 1 10 3 6 1 10 -6 10 -7
0 -3 10 9 23 15 16 19 30 15 47 -6 22 -4 23 9 12 12 -10 17 -10 27 1 6 8 8 16
5 20 -3 3 0 15 6 27 11 20 10 21 -8 11 -14 -7 -18 -17 -15 -31 4 -16 2 -19
-11 -14 -9 3 -13 10 -10 15 3 5 -1 11 -8 14 -16 6 -23 55 -7 55 11 0 8 32 -4
41 -5 3 -9 12 -10 20 -2 8 -6 19 -10 26 -5 7 -1 9 12 6 11 -3 18 -13 17 -26
-1 -18 6 -23 39 -28 52 -9 70 6 55 45 -10 27 -10 27 -34 9 -27 -20 -25 -33 5
-33 11 0 18 -4 15 -8 -6 -11 -66 -3 -66 9 0 4 10 15 22 23 22 16 19 28 -7 32
-8 1 -11 -4 -8 -12 3 -8 1 -14 -5 -14 -10 0 -26 29 -23 43 1 5 -3 6 -8 3 -5
-4 -12 0 -15 6 -4 7 -4 3 -2 -10 2 -12 1 -20 -3 -18 -4 3 -12 -4 -19 -15 -10
-16 -9 -19 3 -19 8 0 15 -4 15 -10 0 -13 -6 -13 -31 0 -10 6 -19 7 -19 3 0 -5
10 -13 22 -18 12 -6 25 -23 29 -40 l8 -30 -21 25 c-17 20 -20 21 -13 5 4 -11
10 -30 12 -42 3 -13 9 -23 13 -23 13 0 20 -43 9 -57 -6 -6 -8 -17 -5 -22 4 -5
2 -12 -4 -16 -7 -4 -9 10 -6 39 4 49 -3 56 -28 30 -14 -13 -16 -14 -16 0 0 8
5 18 10 21 6 4 8 16 4 28 -9 30 -11 32 -27 18 -11 -8 -18 -6 -33 11 -10 12
-14 18 -8 15 12 -7 27 17 17 27 -12 12 -35 -25 -29 -49 5 -18 0 -28 -23 -44
-16 -12 -35 -21 -43 -21 -10 0 -9 3 2 10 13 9 13 11 0 21 -12 8 -11 9 5 5 24
-7 46 22 40 53 -2 12 1 21 8 21 8 0 8 3 -1 12 -16 16 -15 28 3 28 8 0 15 8 16
18 0 9 3 12 5 6 5 -12 54 -6 54 7 0 12 -18 21 -22 10 -1 -4 -12 -5 -23 -1 -18
6 -16 10 18 45 20 21 37 43 37 49 0 6 -7 3 -14 -6 -7 -10 -16 -18 -20 -18 -8
0 25 52 39 62 24 17 43 30 97 65 39 25 54 40 45 45 -8 5 -7 8 6 8 9 0 18 -6
18 -12 6 -67 5 -78 -7 -78 -17 0 -19 -30 -1 -30 7 0 3 -8 -8 -17 -16 -13 -17
-15 -2 -10 9 4 17 2 17 -3 0 -9 -20 -14 -41 -12 -3 1 -6 -6 -6 -14 0 -8 7 -14
14 -14 8 0 11 5 8 10 -4 6 11 10 39 8 25 0 43 -5 40 -10 -4 -5 -17 -7 -29 -4
-23 6 -26 -1 -12 -34 4 -8 5 -28 3 -45 -2 -16 -1 -36 1 -42 7 -18 23 -16 23 2
0 22 51 40 62 23 5 -9 8 -10 8 -1 0 6 -5 15 -10 18 -25 16 13 81 66 114 18 11
17 12 -3 6 -12 -3 -24 -2 -27 3 -3 6 1 9 10 8 9 0 23 9 31 21 14 21 14 23 -5
23 -11 0 -23 -8 -26 -18 -3 -10 -4 -7 -3 8 1 16 12 29 29 38 16 7 28 17 28 22
0 5 -16 1 -35 -10 -35 -20 -36 -20 -25 -1 12 23 13 44 2 37 -4 -2 -9 11 -10
30 -2 19 2 34 8 34 7 0 7 7 -1 22 -10 18 -8 24 6 34 20 15 39 9 29 -9 -4 -7 4
-2 17 9 13 12 30 19 37 17 6 -3 12 0 12 5 0 6 -8 12 -17 15 -13 3 -10 7 15 17
25 9 32 18 32 38 0 20 3 23 9 12 6 -8 7 -18 5 -22 -3 -4 0 -8 5 -8 9 0 15 19
13 41 -1 3 15 5 34 4 23 -2 38 3 45 14 8 13 9 12 4 -6 -9 -32 1 -28 19 7 13
27 13 30 0 30 -18 0 -44 24 -44 39 0 6 4 11 9 11 4 0 7 16 6 35 -1 25 2 32 10
25 8 -7 11 0 10 25 -1 19 2 32 7 29 4 -3 6 -10 3 -15 -4 -5 -1 -9 4 -9 17 0
13 -18 -8 -39 -17 -17 -17 -20 -4 -25 11 -4 13 -14 9 -31 -6 -23 -5 -24 13
-13 26 16 30 45 32 233 0 88 1 165 2 171 0 11 32 12 43 2 3 -4 26 7 50 24 25
17 48 27 52 23 4 -4 2 -10 -4 -12 -6 -2 -20 -10 -30 -19 -17 -13 -17 -13 8 -3
23 10 31 9 46 -4 10 -10 29 -17 41 -17 12 0 20 -4 17 -8 -3 -5 8 -6 25 -4 24
3 27 7 18 18 -9 11 -8 15 5 20 9 3 13 10 10 16 -3 5 -12 1 -19 -8 -11 -16 -14
-16 -34 3 -12 11 -19 27 -16 35 5 13 14 12 63 -8 75 -31 88 -30 106 8 9 17 16
32 16 32 0 1 -21 -1 -46 -3 -45 -3 -46 -2 -41 20 20 83 26 444 8 477 -6 11
-11 52 -11 91 0 65 2 71 21 71 13 0 20 -6 18 -17 -3 -33 1 -43 16 -43 18 0 18
4 6 48 -7 23 -6 30 1 26 7 -5 9 3 5 22 -3 16 -10 47 -14 69 l-9 40 -18 -57
c-10 -32 -20 -58 -22 -58 -3 0 -9 12 -14 26 -11 28 -30 24 -30 -7 0 -24 -27
-25 -33 -1 -3 11 -7 7 -12 -15 -7 -29 -25 -47 -25 -24 0 17 -50 19 -60 2 -5
-9 -10 -11 -10 -6 0 6 5 16 12 23 12 12 14 74 3 155 -8 55 -21 81 -37 71 -6
-4 -14 -1 -18 6 -6 9 -15 -1 -30 -33 -20 -43 -50 -64 -50 -36 0 6 -9 9 -20 6
-13 -3 -20 0 -20 9 0 8 -11 26 -25 40 -14 14 -25 31 -25 38 0 20 -30 29 -36
11 -5 -12 -10 -12 -27 -3 -12 7 -34 11 -49 9 -17 -1 -28 2 -28 10 0 8 -7 6
-19 -5 -22 -20 -30 -12 -41 38 -4 21 -12 30 -22 28 -9 -1 -18 7 -21 19 -5 17
-11 20 -31 17 -15 -3 -31 1 -37 8 -6 8 -16 14 -22 14 -5 0 -20 12 -33 27 l-23
27 -12 -27 c-14 -31 -18 -32 -44 -13 -11 8 -25 11 -33 9 -7 -3 -15 3 -18 14
-4 15 -12 18 -39 15 -26 -3 -37 1 -47 17 -16 26 -28 27 -28 4 -1 -15 -3 -14
-13 5 -10 17 -15 20 -25 10 -17 -17 -52 -20 -52 -5 0 16 -53 19 -62 4 -6 -9
-11 -8 -18 3 -6 10 -10 11 -10 3 0 -7 -4 -13 -10 -13 -5 0 -10 7 -10 15 0 8
-4 15 -10 15 -5 0 -10 -6 -10 -12 0 -10 -3 -9 -9 1 -5 7 -14 11 -20 7 -6 -4
-20 -2 -32 4 -15 8 -24 9 -32 1 -11 -11 -46 2 -59 22 -9 15 -38 18 -60 6 -18
-9 -19 -20 -14 -107 3 -53 8 -126 12 -161 4 -43 3 -61 -5 -57 -7 5 -10 -88
-11 -298 0 -253 2 -305 14 -309 13 -5 36 -86 36 -125 0 -31 -20 10 -20 43 l-1
30 -14 -25 c-11 -20 -14 -81 -14 -296 -1 -263 0 -272 19 -277 13 -3 20 0 20
10 0 8 4 12 9 8 5 -3 16 2 24 10 14 13 16 13 20 -3 4 -13 5 -12 6 5 0 12 6 25
12 29 7 4 10 -4 8 -22 -2 -16 0 -34 3 -40 9 -14 5 -39 -7 -39 -6 0 -9 3 -8 8
2 4 -1 7 -6 7 -11 0 -21 -37 -12 -45 3 -4 6 -12 6 -18 0 -7 8 -11 18 -9 11 2
15 -2 11 -13 -3 -8 -9 -15 -13 -15 -11 0 -36 20 -26 20 6 0 3 5 -5 10 -13 9
-13 10 0 10 12 1 11 3 -3 11 -24 14 -43 1 -21 -15 9 -7 14 -18 10 -25 -4 -6
-4 -10 1 -9 4 1 19 -2 31 -6 19 -6 23 -13 18 -34 -6 -26 -6 -26 9 -8 22 28 18
13 -6 -29 -23 -39 -21 -55 5 -30 13 14 16 14 16 2 0 -8 -13 -20 -30 -26 -41
-14 -38 -30 5 -26 19 2 33 0 30 -5 -3 -4 2 -13 10 -20 13 -11 14 -10 9 5 -5
13 -3 16 7 13 8 -3 13 -11 12 -17 -4 -16 13 -14 31 4 19 20 32 19 40 -2 7 -18
-12 -35 -28 -26 -5 3 -6 1 -2 -5 4 -6 13 -9 21 -5 8 3 15 0 15 -6 0 -11 -12
-15 -40 -12 -13 2 -13 0 -1 -8 8 -5 20 -7 28 -4 10 4 13 -8 13 -51 0 -36 -4
-56 -12 -56 -6 0 -8 3 -5 6 3 4 2 16 -4 27 -8 14 -8 18 0 13 23 -15 10 3 -15
19 -15 9 -23 12 -20 6 5 -8 -5 -10 -34 -6 -23 3 -46 8 -52 11 -5 4 -21 1 -34
-7 -27 -14 -29 -13 -39 20 -6 20 -4 23 9 18 13 -5 16 -2 14 11 -1 9 1 23 5 30
5 7 4 12 -2 12 -10 0 -15 -14 -12 -33 1 -5 -3 -6 -9 -2 -5 3 -10 13 -10 21 0
19 -26 18 -34 -2 -13 -34 -7 -64 14 -64 30 0 27 -40 -2 -41 -19 -1 -17 -3 7
-9 30 -8 30 -8 3 -9 l-27 -1 0 -98 -1 -98 52 3 c28 1 54 6 57 10 8 11 61 11
61 0 0 -5 -10 -7 -22 -6 -13 1 -32 -2 -43 -7 -11 -4 -35 -8 -52 -8 -18 0 -33
-4 -33 -9 0 -4 -4 -6 -9 -2 -6 3 -10 -110 -11 -300 l0 -305 777 1 c428 0 788
3 800 6 13 3 21 9 18 13 -3 5 0 12 6 16 8 5 8 9 -1 14 -7 4 -10 15 -7 25 4 9
12 13 18 9 8 -4 7 -9 -2 -16 -9 -6 -5 -7 12 -3 25 6 26 4 22 -22 -4 -22 -2
-25 6 -13 9 13 11 11 11 -7 l0 -21 744 -1 c702 -1 745 0 756 16 11 17 11 17 6
1 -5 -16 3 -18 75 -18 65 0 86 4 105 19 14 11 25 22 25 25 -2 16 0 16 14 2 8
-8 15 -17 15 -20 0 -3 -7 -6 -15 -6 -8 0 -15 -4 -15 -10 0 -6 28 -10 65 -10
73 0 71 -3 55 80 -5 29 -7 57 -4 62 4 6 9 59 11 118 l5 107 -44 46 c-24 26
-49 47 -54 47 -6 0 -19 7 -30 16 -18 15 -18 15 3 5 30 -15 36 -14 29 5 -4 10
-1 14 6 11 7 -2 14 -10 14 -18 1 -8 2 -18 3 -23 0 -5 8 -3 16 4 12 10 16 8 25
-15 26 -68 30 -4 30 426 -1 431 -2 440 -21 434 -15 -5 -19 -2 -19 17 0 17 3
19 9 9 10 -16 31 -6 31 14 0 9 -7 11 -22 7 -14 -3 -19 -2 -14 6 4 7 0 15 -11
19 -14 6 -10 9 17 14 l35 6 -34 2 c-29 1 -32 3 -21 16 9 11 10 15 1 15 -8 0
-7 5 3 15 8 8 22 15 31 15 9 0 13 5 10 10 -4 6 -15 8 -26 5 -14 -5 -17 -3 -13
9 3 9 15 16 25 16 18 0 19 12 19 300 0 293 0 300 -20 297 -11 -2 -23 -6 -26
-10 -9 -9 -36 42 -28 54 7 12 34 11 34 -1 0 -5 9 -10 20 -10 19 0 20 7 20 135
0 83 -4 135 -10 135 -5 0 -10 10 -9 23 0 21 1 21 9 2 6 -15 9 -9 9 27 1 28 -4
49 -11 52 -10 5 -10 7 0 12 9 4 12 83 12 345 l0 339 -279 0 -279 0 -16 -40z
m361 -20 c-3 -11 -1 -20 4 -20 5 0 10 10 10 23 l2 22 4 -22 c4 -23 17 -30 26
-15 2 4 3 2 1 -4 -1 -6 2 -16 7 -21 16 -16 19 -53 5 -53 -9 0 -12 9 -8 25 3
20 0 25 -17 25 -13 0 -21 -6 -21 -16 0 -14 2 -15 18 -3 15 13 16 12 3 -3 -20
-26 -39 -23 -34 6 4 21 2 24 -15 19 -11 -2 -23 0 -27 7 -11 18 3 24 20 10 9
-7 15 -9 14 -4 -3 18 1 44 7 44 4 0 4 -9 1 -20z m113 10 c0 -5 -4 -10 -10 -10
-5 0 -10 5 -10 10 0 6 5 10 10 10 6 0 10 -4 10 -10z m-25 -30 c-3 -5 -11 -10
-16 -10 -6 0 -7 5 -4 10 3 6 11 10 16 10 6 0 7 -4 4 -10z m-305 -50 c0 -5 -5
-10 -11 -10 -5 0 -7 5 -4 10 3 6 8 10 11 10 2 0 4 -4 4 -10z m44 -13 c-3 -8
-12 -18 -20 -21 -10 -4 -13 -2 -8 7 21 37 41 47 28 14z m116 19 c0 -11 -19
-15 -25 -6 -3 5 1 10 9 10 9 0 16 -2 16 -4z m210 -6 c0 -5 -7 -10 -15 -10 -8
0 -15 5 -15 10 0 6 7 10 15 10 8 0 15 -4 15 -10z m-245 -30 c3 -5 1 -10 -6
-10 -8 0 -8 -4 1 -15 10 -12 10 -15 -4 -15 -10 0 -16 9 -16 25 0 25 14 33 25
15z m-208 -57 c-3 -10 -5 -4 -5 12 0 17 2 24 5 18 2 -7 2 -21 0 -30z m273 27
c0 -5 -4 -10 -10 -10 -5 0 -10 5 -10 10 0 6 5 10 10 10 6 0 10 -4 10 -10z m20
-30 c0 -5 -5 -10 -11 -10 -5 0 -7 5 -4 10 3 6 8 10 11 10 2 0 4 -4 4 -10z
m-110 -10 c0 -5 -4 -10 -10 -10 -5 0 -10 5 -10 10 0 6 5 10 10 10 6 0 10 -4
10 -10z m263 -31 c7 0 2 -4 -10 -9 -11 -5 -31 -6 -44 -3 -22 6 -22 7 -3 14 10
4 25 6 32 3 8 -2 19 -4 25 -5z m-310 -29 c-3 -12 -8 -19 -11 -16 -5 6 5 36 12
36 2 0 2 -9 -1 -20z m47 4 c0 -8 -4 -12 -10 -9 -5 3 -10 10 -10 16 0 5 5 9 10
9 6 0 10 -7 10 -16z m62 6 c29 0 12 -15 -18 -15 -13 -1 -26 5 -29 13 -4 10 0
12 11 8 8 -3 25 -6 36 -6z m-47 -40 c3 -5 2 -10 -4 -10 -5 0 -13 5 -16 10 -3
6 -2 10 4 10 5 0 13 -4 16 -10z m216 0 c11 0 0 -32 -16 -45 -6 -5 -14 -17 -17
-25 -4 -8 -6 7 -6 33 0 38 4 47 15 43 8 -3 19 -6 24 -6z m-286 -10 c3 -5 1
-10 -4 -10 -6 0 -11 5 -11 10 0 6 2 10 4 10 3 0 8 -4 11 -10z m169 -5 c-4 -8
-8 -15 -10 -15 -2 0 -4 7 -4 15 0 8 4 15 10 15 5 0 7 -7 4 -15z m-194 -14 c0
-6 -4 -13 -10 -16 -5 -3 -10 1 -10 9 0 9 5 16 10 16 6 0 10 -4 10 -9z m90 -42
c0 -5 -4 -9 -10 -9 -5 0 -10 7 -10 16 0 8 5 12 10 9 6 -3 10 -10 10 -16z m-46
-14 c-4 -8 -8 -15 -10 -15 -2 0 -4 7 -4 15 0 8 4 15 10 15 5 0 7 -7 4 -15z
m26 -32 c-8 -3 -21 -10 -27 -16 -9 -6 -13 -5 -13 5 0 8 11 14 28 15 15 1 20
-1 12 -4z m130 -51 c0 -2 -5 0 -11 4 -6 3 -15 0 -20 -7 -11 -19 -19 -7 -13 18
6 20 7 20 25 5 10 -9 19 -18 19 -20z m-55 18 c3 -5 1 -10 -4 -10 -6 0 -11 5
-11 10 0 6 2 10 4 10 3 0 8 -4 11 -10z m-55 -40 c0 -5 -4 -10 -10 -10 -5 0
-10 5 -10 10 0 6 5 10 10 10 6 0 10 -4 10 -10z m253 -117 c-5 -12 -7 -12 -14
-1 -13 20 -11 28 5 22 8 -3 12 -12 9 -21z m34 -12 c-7 -2 -15 -9 -19 -15 -5
-7 -8 -5 -8 5 0 23 22 42 32 26 4 -7 2 -14 -5 -16z m13 -21 c0 -5 -4 -10 -10
-10 -5 0 -10 5 -10 10 0 6 5 10 10 10 6 0 10 -4 10 -10z m-130 -24 c0 -8 -4
-18 -10 -21 -5 -3 -10 3 -10 14 0 12 5 21 10 21 6 0 10 -6 10 -14z m109 -25
c-1 -13 -2 -13 -6 2 -5 18 -23 24 -23 7 0 -5 -10 -10 -22 -9 -15 0 -18 2 -8 6
8 3 19 12 23 20 11 18 38 -1 36 -26z m-1224 -21 c4 -6 -13 -10 -45 -10 -32 0
-49 4 -45 10 3 6 24 10 45 10 21 0 42 -4 45 -10z m1112 -32 c-3 -7 -5 -2 -5
12 0 14 2 19 5 13 2 -7 2 -19 0 -25z m-3307 12 c0 -5 -4 -10 -10 -10 -5 0 -10
5 -10 10 0 6 5 10 10 10 6 0 10 -4 10 -10z m37 -12 c-3 -8 -6 -5 -6 6 -1 11 2
17 5 13 3 -3 4 -12 1 -19z m28 13 c3 -5 1 -12 -5 -16 -5 -3 -10 1 -10 9 0 18
6 21 15 7z m3275 -1 c0 -5 -4 -10 -10 -10 -5 0 -10 5 -10 10 0 6 5 10 10 10 6
0 10 -4 10 -10z m-323 -42 c-3 -8 -6 -5 -6 6 -1 11 2 17 5 13 3 -3 4 -12 1
-19z m276 -1 c3 -7 -3 -13 -13 -13 -10 0 -16 6 -13 13 3 7 9 13 13 13 4 0 10
-6 13 -13z m-3258 -15 c-3 -3 -11 0 -18 7 -9 10 -8 11 6 5 10 -3 15 -9 12 -12z
m1875 -84 c12 -16 30 -28 41 -28 10 0 19 -4 19 -10 0 -5 -4 -10 -10 -10 -5 0
-7 -7 -4 -15 4 -10 0 -15 -11 -15 -11 0 -15 5 -11 15 3 8 1 14 -5 12 -6 -1
-26 27 -45 63 -33 60 -28 58 26 -12z m1422 41 c-2 -17 -8 -27 -13 -22 -9 9 -1
53 10 53 4 0 6 -14 3 -31z m-1875 -21 c-3 -7 -5 -2 -5 12 0 14 2 19 5 13 2 -7
2 -19 0 -25z m-332 -7 c3 -5 1 -12 -5 -16 -5 -3 -10 1 -10 9 0 18 6 21 15 7z
m55 -12 c0 -6 -24 -19 -36 -19 -2 0 -4 6 -4 14 0 9 9 14 20 13 11 -1 20 -4 20
-8z m630 -1 c0 -4 -7 -8 -15 -8 -8 0 -15 4 -15 8 0 5 7 9 15 9 8 0 15 -4 15
-9z m213 0 c-2 -5 2 -8 9 -9 10 0 10 -2 0 -6 -6 -2 -10 -9 -6 -14 3 -5 1 -9
-5 -9 -5 0 -14 6 -18 14 -4 7 -21 18 -38 24 -28 10 -28 10 16 9 26 -1 45 -5
42 -9z m-169 -89 c-5 -8 44 -89 53 -89 3 0 -2 11 -11 24 -11 18 -12 26 -4 28
8 3 5 15 -10 35 -24 34 -28 48 -11 37 8 -4 9 1 4 17 l-7 24 18 -25 c26 -35 36
-45 59 -54 33 -14 75 -16 75 -5 0 6 5 7 10 4 6 -3 10 -10 10 -14 0 -12 -64
-21 -70 -11 -9 14 -60 23 -60 11 0 -6 9 -11 20 -11 11 0 20 -4 20 -10 0 -5 -4
-10 -10 -10 -5 0 -7 -7 -4 -15 4 -8 1 -15 -5 -15 -14 0 -7 -46 10 -66 14 -17
32 -18 26 -1 -2 6 -8 11 -13 10 -5 -1 -10 11 -11 25 -1 26 -1 26 14 7 8 -11
18 -19 23 -18 5 2 6 -5 3 -15 -4 -9 17 4 46 31 l54 47 51 -47 c29 -27 61 -53
71 -59 33 -19 11 -26 -98 -33 -99 -6 -104 -7 -96 -26 6 -17 8 -17 8 -2 1 26
31 21 32 -5 l1 -23 6 22 c11 35 32 13 38 -38 3 -32 2 -40 -6 -29 -9 13 -13 12
-28 -6 -9 -12 -24 -24 -32 -27 -8 -3 2 -6 23 -6 33 -1 37 -4 39 -28 0 -16 2
-32 3 -38 2 -5 3 -23 4 -38 1 -28 2 -29 58 -25 47 2 58 6 61 22 4 17 0 18 -34
13 -27 -4 -34 -3 -24 3 8 5 25 10 37 10 13 0 24 8 28 20 8 25 27 27 24 3 -3
-34 1 -43 19 -42 10 0 12 3 5 6 -7 2 -13 18 -13 35 0 25 3 29 18 23 9 -4 68
-14 131 -21 63 -8 116 -16 119 -19 3 -2 -7 -20 -22 -39 -14 -19 -26 -44 -26
-56 0 -12 -8 -35 -17 -51 -16 -26 -16 -31 -3 -39 13 -8 12 -10 -2 -10 -10 0
-18 5 -18 12 0 6 -2 9 -5 6 -9 -9 6 -37 18 -34 7 1 9 1 4 -1 -4 -3 -5 -9 -1
-14 3 -5 0 -9 -5 -9 -6 0 -11 5 -11 11 0 6 -7 9 -15 5 -8 -3 -15 -1 -15 5 0 6
-10 9 -22 7 -16 -2 -22 -9 -20 -22 3 -14 -1 -17 -13 -12 -9 3 -25 6 -35 6 -16
0 -19 8 -19 55 0 30 5 57 10 60 5 4 9 19 9 36 0 29 -1 29 -42 23 -45 -7 -63
-14 -36 -14 25 0 30 -28 7 -35 -19 -6 -19 -8 -5 -24 16 -18 20 -59 10 -98 -7
-27 -24 -31 -24 -5 0 27 -19 -7 -21 -38 l-1 -25 -8 25 c-7 23 -8 23 -9 3 -1
-12 6 -29 15 -37 8 -9 16 -25 17 -36 1 -11 8 -20 17 -20 12 -1 11 -3 -4 -15
-13 -10 -17 -22 -14 -40 4 -17 1 -25 -9 -25 -8 0 -11 5 -7 12 4 7 3 8 -4 4 -6
-4 -9 -13 -6 -21 4 -8 10 -12 15 -9 5 3 9 -7 9 -21 0 -15 -4 -24 -10 -20 -6 4
-10 -30 -10 -95 0 -95 1 -101 23 -110 20 -8 20 -9 2 -10 -16 0 -17 -2 -5 -10
9 -5 19 -5 27 2 9 7 13 7 13 -1 0 -6 -4 -11 -10 -11 -5 0 -11 -8 -11 -17 -1
-17 -2 -17 -6 0 -5 19 -30 17 -26 -2 4 -15 -14 -14 -21 2 -5 9 -7 9 -12 -2 -4
-7 -9 -9 -13 -4 -3 6 -21 13 -39 16 -27 6 -30 4 -20 -7 7 -7 20 -11 28 -8 13
5 13 4 0 -10 -10 -11 -17 -12 -22 -5 -10 16 -22 1 -15 -17 4 -9 19 -18 34 -22
43 -10 56 -23 41 -42 -8 -9 -14 -52 -15 -114 -2 -87 0 -98 15 -98 14 -1 13 -4
-5 -19 -19 -16 -20 -20 -7 -25 8 -3 12 -10 9 -16 -4 -6 -11 -7 -17 -4 -7 5 -8
2 -3 -6 8 -12 15 -55 16 -90 0 -8 3 -27 6 -43 4 -23 9 -27 40 -27 45 0 37 -11
-11 -15 -59 -6 -76 -15 -76 -39 0 -27 25 -40 104 -55 103 -19 155 -14 211 19
65 39 80 38 27 -1 -70 -51 -194 -65 -512 -57 -71 2 -227 18 -280 30 -55 11
-80 23 -80 38 0 12 44 20 54 10 6 -6 15 -10 21 -10 5 0 2 7 -8 14 -12 9 -32
12 -58 9 -25 -4 -39 -2 -39 6 0 6 8 12 18 13 9 0 22 2 27 3 6 2 17 4 25 5 8 1
4 6 -10 10 l-25 8 28 1 c16 1 30 -5 34 -15 5 -13 8 -13 23 4 14 14 17 30 13
63 l-5 44 -55 -3 c-39 -3 -53 -1 -49 7 4 6 29 11 57 11 27 0 49 2 49 5 0 3 -8
18 -17 33 -16 26 -16 26 1 11 10 -9 22 -32 26 -50 l9 -34 -1 40 c-1 45 10 78
23 69 5 -3 9 4 9 16 0 11 -7 23 -15 26 -8 4 -15 10 -15 16 0 5 5 6 10 3 6 -3
10 1 10 10 0 9 5 13 11 9 7 -4 10 -25 7 -55 -4 -40 -2 -48 14 -52 19 -6 25
-27 7 -27 -8 0 -10 -18 -5 -60 6 -50 4 -60 -8 -60 -8 0 -20 8 -25 18 -12 19
-14 12 -5 -12 3 -9 15 -16 26 -16 11 0 16 -5 13 -10 -4 -6 -15 -8 -26 -5 -14
5 -19 2 -19 -13 0 -15 8 -21 35 -24 21 -2 36 1 39 9 4 9 40 11 145 9 l140 -3
6 61 c8 76 12 275 7 299 -4 15 -19 17 -131 18 -69 1 -117 4 -106 6 11 3 23 10
27 17 6 8 8 7 8 -1 0 -7 9 -13 21 -13 11 0 17 4 14 10 -3 5 -1 10 4 10 6 0 11
-4 11 -10 0 -5 7 -10 15 -10 8 0 15 7 15 15 0 8 -6 15 -14 15 -8 0 -18 5 -21
11 -4 6 0 9 10 7 10 -2 20 2 22 8 2 7 -14 15 -39 19 -24 4 -35 10 -25 12 9 3
17 9 17 15 0 5 -7 7 -16 4 -8 -3 -12 -2 -9 3 7 13 -78 25 -118 17 -19 -4 -28
-3 -22 3 6 5 21 11 34 13 27 3 42 28 17 28 -9 0 -16 -5 -16 -11 0 -6 -7 -4
-15 5 -8 8 -15 19 -15 25 0 6 -7 11 -15 11 -8 0 -15 7 -15 15 0 8 -7 15 -15
15 -9 0 -12 6 -9 15 4 10 0 15 -11 15 -9 0 -13 5 -10 11 4 6 -2 13 -13 16 -12
3 -18 11 -16 18 4 9 -4 15 -23 18 l-28 4 27 2 c21 1 40 -13 89 -66 34 -38 59
-60 56 -50 -4 10 -7 25 -7 33 0 8 -7 14 -15 14 -8 0 -15 5 -15 11 0 7 -11 22
-26 35 -14 13 -21 24 -17 25 4 0 -3 5 -17 11 -16 6 -20 12 -12 15 7 3 23 -3
34 -13 12 -11 18 -14 15 -7 -9 15 73 34 90 21 7 -6 14 -2 18 11 3 12 14 21 23
21 14 0 14 -2 3 -9 -8 -5 -11 -16 -8 -25 7 -19 27 -21 27 -3 2 75 14 194 22
202 5 6 6 -32 2 -100 -3 -61 -10 -114 -15 -120 -19 -20 -9 -35 26 -35 l35 0 0
110 c0 98 -2 110 -17 111 -14 0 -15 2 -3 6 22 9 27 20 24 61 -1 20 -2 46 -3
57 -1 14 -9 20 -26 21 -14 1 -25 -2 -25 -7 0 -5 10 -9 23 -10 12 0 16 -3 10
-6 -7 -2 -13 -17 -13 -33 0 -16 -7 -30 -15 -34 -10 -4 -15 1 -15 14 0 11 -7
20 -15 20 -8 0 -15 -6 -15 -12 0 -7 -6 -2 -13 12 -7 13 -32 37 -55 53 -24 16
-40 32 -36 36 4 3 9 0 11 -6 3 -7 16 -13 29 -13 20 0 24 5 24 30 0 23 -4 28
-17 24 -17 -5 -17 -5 -1 9 24 20 10 30 -18 13 -26 -18 -34 -12 -34 27 l0 29
90 -4 90 -4 0 40 c0 32 -3 38 -11 26 -9 -12 -10 -11 -4 5 3 11 9 32 12 48 4
19 12 27 26 27 11 0 17 3 14 7 -4 3 -69 6 -144 5 -103 -1 -131 2 -111 9 17 7
25 15 21 25 -3 8 -1 14 5 14 5 0 12 -10 15 -22 5 -17 9 -19 21 -9 11 9 15 9
18 -1 4 -10 8 -10 21 1 11 9 17 10 17 2 0 -6 5 -11 10 -11 6 0 10 12 10 26 0
18 -4 25 -14 21 -7 -3 -19 0 -25 6 -9 9 -14 8 -21 -3 -7 -11 -10 -12 -10 -2 0
9 -7 11 -19 7 -23 -7 -39 14 -20 25 10 7 10 11 -1 25 -13 16 -8 17 58 12 40
-3 75 -1 78 4 3 5 0 9 -5 9 -6 0 -11 12 -11 26 0 22 -2 25 -15 14 -10 -8 -15
-9 -15 -2 0 6 8 16 18 21 19 11 3 15 -22 5 -10 -4 -16 -18 -16 -35 0 -16 -4
-29 -10 -29 -5 0 -10 11 -10 25 0 34 -20 32 -21 -2 -2 -25 -2 -25 -6 -5 -3 13
1 30 8 39 11 13 10 15 -6 12 -14 -3 -21 -14 -23 -37 -3 -34 -16 -42 -26 -17
-3 8 -12 15 -20 15 -7 0 -13 7 -12 16 0 9 -4 19 -10 21 -7 2 -10 -5 -7 -22 6
-27 -2 -32 -21 -12 -15 15 -28 47 -18 46 17 -3 35 2 29 7 -6 6 1 17 36 55 10
11 15 24 12 30 -8 12 18 7 27 -6 4 -5 12 4 19 20 l13 30 6 -45 c4 -28 8 -35 9
-20 2 14 4 33 6 42 5 25 -13 33 -34 14 -10 -9 -21 -16 -25 -16 -7 0 28 52 52
78 22 24 33 52 26 65 -4 6 9 -3 29 -22 20 -19 34 -38 31 -42z m766 31 c0 -16
-4 -30 -8 -30 -5 0 -7 14 -4 30 2 17 6 30 8 30 2 0 4 -13 4 -30z m-163 -2 c-3
-8 -6 -5 -6 6 -1 11 2 17 5 13 3 -3 4 -12 1 -19z m-857 -15 c0 -11 -5 -11 -20
-3 -11 6 -20 12 -20 13 0 2 9 3 20 3 11 0 20 -6 20 -13z m113 -3 c-3 -11 -10
-20 -15 -20 -5 0 -6 5 -3 10 3 6 0 10 -7 10 -9 0 -9 3 2 10 23 15 29 12 23
-10z m1004 -12 c-3 -8 -6 -5 -6 6 -1 11 2 17 5 13 3 -3 4 -12 1 -19z m50 16
c-3 -3 -12 -4 -19 -1 -8 3 -5 6 6 6 11 1 17 -2 13 -5z m-1485 -26 c-7 -7 -12
-8 -12 -2 0 6 3 14 7 17 3 4 9 5 12 2 2 -3 -1 -11 -7 -17z m1753 2 c3 -5 1
-10 -4 -10 -6 0 -11 5 -11 10 0 6 2 10 4 10 3 0 8 -4 11 -10z m-107 -20 c10
-17 10 -20 -3 -20 -8 0 -15 2 -15 4 0 2 -3 11 -6 20 -9 23 9 20 24 -4z m178 0
c26 0 59 -27 59 -49 0 -8 6 -16 13 -19 8 -2 10 2 5 14 -4 12 -2 15 8 12 8 -3
17 -18 20 -34 l7 -29 1 32 c1 27 4 31 26 29 13 -2 22 1 19 5 -3 5 1 9 8 10 7
0 25 2 40 4 15 2 30 -1 33 -6 4 -5 -3 -9 -15 -9 -13 0 -18 -4 -14 -11 3 -6 15
-9 25 -6 10 3 21 1 24 -3 9 -14 -29 -70 -47 -70 -10 0 -18 -7 -18 -15 0 -8 -5
-15 -11 -15 -6 0 -9 -7 -5 -15 3 -9 -3 -24 -12 -33 -10 -10 -22 -27 -26 -38
-7 -17 -10 -15 -26 16 -11 19 -19 49 -20 67 0 41 -24 67 -50 53 -28 -15 -40
-12 -33 7 5 13 3 15 -13 8 -10 -4 -32 -10 -49 -14 -35 -8 -45 -36 -16 -46 12
-3 21 -10 21 -14 0 -4 16 -16 35 -27 36 -19 42 -28 25 -39 -5 -3 -6 -13 -3
-23 6 -15 5 -15 -12 1 -10 10 -21 15 -24 10 -3 -4 -11 -12 -16 -17 -6 -6 -3
-7 8 -3 11 4 16 3 12 -3 -3 -6 -14 -10 -23 -10 -13 0 -14 -2 -3 -9 11 -7 10
-13 -4 -35 -10 -14 -22 -26 -27 -26 -5 0 -6 -4 -3 -10 4 -6 -18 -10 -58 -10
-62 0 -66 1 -91 34 -14 19 -26 43 -25 53 0 10 3 13 6 6 6 -16 33 -17 33 -2 0
8 18 10 57 6 38 -4 52 -3 43 3 -8 5 -25 10 -37 10 -20 0 -23 5 -23 35 0 46
-35 63 -80 40 -39 -20 -50 -19 -116 10 -68 30 -64 30 -64 5 0 -11 -4 -20 -10
-20 -5 0 -10 9 -10 20 0 20 -11 26 -23 14 -16 -16 50 -59 131 -84 23 -7 42
-17 42 -22 0 -5 9 -6 20 -3 11 3 20 2 20 -3 0 -19 -124 4 -181 34 -16 8 -29
20 -29 28 0 15 -36 14 -52 -2 -9 -9 -5 -12 20 -12 18 0 32 -4 32 -9 0 -5 10
-13 23 -17 l22 -8 -25 -7 c-38 -11 -60 -10 -60 2 0 6 9 8 20 4 15 -5 18 -3 14
9 -4 10 -17 13 -40 11 -41 -4 -49 -9 -39 -25 6 -9 10 -9 16 1 7 11 9 11 9 -2
0 -21 -31 -34 -41 -17 -5 7 -6 30 -3 51 3 25 1 36 -6 32 -5 -3 -10 -13 -10
-21 0 -8 -4 -14 -10 -14 -5 0 -6 7 -3 17 4 10 2 14 -4 10 -6 -4 -14 -1 -17 5
-3 7 -4 2 -1 -12 2 -14 1 -30 -3 -35 -10 -15 -34 -12 -41 5 -3 8 -12 16 -20
18 -8 2 -11 -3 -8 -12 9 -22 -4 -28 -19 -8 -12 15 -13 15 -14 -9 0 -23 -4 -25
-42 -27 -24 -1 -55 -5 -70 -8 -17 -3 -28 -1 -28 5 0 6 7 8 15 5 17 -7 21 11 5
21 -5 3 -10 15 -10 26 0 14 8 19 33 21 l32 1 -32 4 c-25 3 -33 9 -33 24 0 19
1 19 16 5 8 -9 24 -16 34 -16 10 0 21 -6 23 -12 4 -10 8 -10 16 1 8 12 11 9
16 -15 11 -49 13 -51 14 -10 l1 39 44 -5 c39 -5 43 -4 30 9 -8 8 -14 17 -14
21 0 11 52 32 61 26 5 -3 19 -2 32 2 20 7 18 9 -13 14 -28 4 -35 10 -41 35 -4
17 -9 37 -11 45 -3 8 -3 12 -1 8 8 -15 22 -8 17 7 -4 9 0 15 10 15 11 0 16
-10 17 -32 l2 -33 4 29 c4 22 7 26 14 15 6 -10 9 -7 9 14 0 15 5 27 10 27 6 0
10 -11 10 -25 0 -14 5 -25 10 -25 6 0 10 7 10 15 0 13 4 14 20 5 14 -7 20 -7
20 0 0 5 5 10 10 10 6 0 10 -8 10 -18 0 -14 8 -18 33 -18 17 0 61 -1 97 -3 94
-4 100 -3 100 16 0 21 16 6 23 -22 3 -11 5 -3 6 18 1 23 5 36 11 32 6 -4 8
-10 5 -15 -3 -5 16 -12 42 -16 73 -10 153 -32 179 -49 13 -8 25 -11 29 -6 3 5
2 12 -2 14 -11 6 -102 34 -135 41 -21 5 -28 12 -27 29 1 19 2 19 6 3 4 -15 7
-16 14 -5 7 11 9 11 9 -3 0 -10 5 -18 10 -18 6 0 10 4 10 9 0 6 9 8 20 6 15
-3 20 2 21 18 0 12 3 16 6 10 2 -7 16 -13 29 -13z m184 11 c0 -6 -4 -13 -10
-16 -5 -3 -10 1 -10 9 0 9 5 16 10 16 6 0 10 -4 10 -9z m40 1 c0 -5 -7 -9 -15
-9 -8 0 -15 4 -15 9 0 4 7 8 15 8 8 0 15 -4 15 -8z m-650 -34 c0 -17 -38 -7
-43 11 -4 17 -2 18 19 9 13 -6 24 -15 24 -20z m688 14 c2 -7 -3 -12 -12 -12
-9 0 -16 7 -16 16 0 17 22 14 28 -4z m-1116 -24 c-9 -9 -12 -7 -12 12 0 19 3
21 12 12 9 -9 9 -15 0 -24z m718 17 c0 -8 -4 -15 -10 -15 -5 0 -10 7 -10 15 0
8 5 15 10 15 6 0 10 -7 10 -15z m-893 -1 c-3 -3 -12 -4 -19 -1 -8 3 -5 6 6 6
11 1 17 -2 13 -5z m643 2 c0 -2 -7 -6 -15 -10 -8 -3 -15 -1 -15 4 0 6 7 10 15
10 8 0 15 -2 15 -4z m90 -11 c0 -8 -7 -15 -15 -15 -9 0 -12 6 -9 15 4 8 10 15
15 15 5 0 9 -7 9 -15z m30 -5 c0 -5 -4 -10 -10 -10 -5 0 -10 5 -10 10 0 6 5
10 10 10 6 0 10 -4 10 -10z m-1150 -10 c0 -5 -8 -10 -17 -10 -15 0 -16 2 -3
10 19 12 20 12 20 0z m1760 0 c0 -5 -4 -10 -10 -10 -5 0 -10 5 -10 10 0 6 5
10 10 10 6 0 10 -4 10 -10z m-1470 -21 c0 -6 -4 -7 -10 -4 -5 3 -10 11 -10 16
0 6 5 7 10 4 6 -3 10 -11 10 -16z m461 -42 c-8 -8 -11 -7 -11 4 0 9 3 19 7 23
4 4 9 2 11 -4 3 -7 -1 -17 -7 -23z m-204 -9 c-3 -8 -6 -5 -6 6 -1 11 2 17 5
13 3 -3 4 -12 1 -19z m833 -18 c0 -5 14 -10 31 -10 23 0 30 -4 27 -17 -1 -10
1 -24 6 -32 8 -12 -41 14 -54 29 -3 4 -13 9 -23 13 -10 4 -15 11 -12 17 8 13
25 13 25 0z m-2340 -54 c0 -3 -4 -8 -10 -11 -5 -3 -10 -1 -10 4 0 6 5 11 10
11 6 0 10 -2 10 -4z m126 -30 c0 -15 -8 -27 -19 -30 -15 -4 -16 -2 -6 10 6 8
8 14 4 14 -4 0 -2 7 5 15 17 20 18 19 16 -9z m49 -17 c11 -16 1 -19 -13 -3 -7
8 -8 14 -3 14 5 0 13 -5 16 -11z m1605 -24 c0 -8 -4 -15 -10 -15 -5 0 -7 7 -4
15 4 8 8 15 10 15 2 0 4 -7 4 -15z m-1605 -23 c-3 -3 -11 0 -18 7 -9 10 -8 11
6 5 10 -3 15 -9 12 -12z m753 -37 c-1 -39 -6 -55 -16 -55 -7 0 -10 5 -7 10 3
6 1 10 -5 10 -7 0 -9 8 -4 23 4 12 7 27 7 34 0 7 4 10 9 7 4 -3 8 2 8 10 0 9
2 16 5 16 2 0 3 -25 3 -55z m1022 30 c0 -8 9 -15 20 -15 11 0 20 5 20 10 0 6
5 10 11 10 8 0 8 -5 -1 -15 -7 -8 -19 -15 -27 -15 -8 0 -12 -4 -9 -9 4 -5 23
-8 44 -6 20 1 40 -2 45 -9 5 -8 10 -7 17 4 8 12 10 13 10 1 0 -8 7 -23 17 -33
15 -17 13 -18 -75 -18 -50 0 -94 -4 -97 -10 -10 -16 -41 -11 -70 11 -19 16
-29 19 -34 10 -6 -9 -15 -8 -37 4 -16 8 -54 15 -86 15 -55 0 -86 14 -51 23 13
3 11 5 -6 6 -13 0 -21 4 -17 8 13 14 41 12 53 -3 6 -8 30 -17 53 -19 24 -2 48
-9 53 -14 6 -6 18 -11 27 -11 10 1 6 8 -12 21 -16 11 -28 25 -28 31 0 5 8 2
17 -8 17 -16 54 -34 101 -48 16 -5 22 -3 22 7 0 10 -7 13 -19 10 -15 -4 -101
30 -101 40 0 2 32 4 71 5 75 1 93 7 69 22 -13 8 -12 10 3 10 9 0 17 -7 17 -15z
m572 -3 c-7 -2 -8 -11 -2 -28 13 -32 3 -59 -16 -43 -8 6 -11 16 -7 23 4 6 6
23 4 38 -2 23 1 27 15 21 10 -4 13 -8 6 -11z m-415 -8 c-3 -3 -12 -4 -19 -1
-8 3 -5 6 6 6 11 1 17 -2 13 -5z m13 -34 c8 -5 11 -10 5 -10 -5 0 -17 5 -25
10 -8 5 -10 10 -5 10 6 0 17 -5 25 -10z m-1785 -70 c13 -6 15 -9 5 -9 -8 0
-22 4 -30 9 -18 12 -2 12 25 0z m780 -4 c11 -2 -13 -4 -52 -5 -40 0 -73 2 -73
7 0 6 79 5 125 -2z m736 4 c23 -13 24 -26 3 -34 -8 -3 -12 -2 -9 3 3 5 1 12
-4 15 -9 6 -51 -44 -51 -61 0 -5 -7 -18 -15 -29 -13 -18 -14 -17 -6 11 14 46
23 67 40 87 18 21 17 21 42 8z m373 -11 c-17 -7 -17 -8 4 -8 12 -1 25 -7 28
-15 3 -8 12 -12 20 -9 9 3 14 -1 14 -13 0 -9 -3 -15 -6 -11 -4 3 -19 0 -35 -9
-29 -14 -35 -10 -30 20 1 5 -6 6 -16 2 -16 -5 -15 -4 1 9 11 8 17 15 14 15 -4
0 -13 3 -22 6 -12 4 -16 0 -16 -15 0 -20 -4 -21 -131 -21 -127 0 -130 1 -127
21 3 21 8 21 128 20 88 -1 132 3 150 12 14 8 29 11 34 9 5 -3 1 -9 -10 -13z
m-1240 -5 c3 -8 2 -12 -4 -9 -6 3 -10 10 -10 16 0 14 7 11 14 -7z m423 -6 c-3
-8 -6 -5 -6 6 -1 11 2 17 5 13 3 -3 4 -12 1 -19z m-1150 -14 c-3 -3 -12 -4
-19 -1 -8 3 -5 6 6 6 11 1 17 -2 13 -5z m382 -46 c10 -3 7 -9 -10 -20 -19 -12
-42 -14 -101 -10 -45 2 -75 9 -72 14 3 5 13 7 21 4 8 -3 12 -2 9 2 -7 12 75
13 90 1 12 -10 13 -6 8 22 l-7 34 24 -21 c13 -12 30 -23 38 -26z m460 -15 c1
23 25 17 29 -6 3 -12 -4 -17 -22 -17 -20 0 -26 5 -25 23 0 21 1 21 9 2 8 -18
9 -18 9 -2z m1169 -20 c-38 -16 -38 -16 -38 2 0 22 31 35 51 22 16 -10 15 -13
-13 -24z m-295 10 c8 3 20 1 28 -4 10 -6 10 -9 2 -9 -7 0 -13 -7 -13 -15 0 -9
-9 -15 -25 -15 -22 0 -30 9 -26 33 0 4 -4 7 -10 7 -5 0 -7 5 -4 10 5 8 11 7
21 -1 7 -6 20 -9 27 -6z m-1703 -17 c0 -3 -4 -8 -10 -11 -5 -3 -10 -1 -10 4 0
6 5 11 10 11 6 0 10 -2 10 -4z m244 -2 c28 -11 18 -34 -14 -34 -23 0 -30 4
-30 20 0 20 15 25 44 14z m-769 -14 c3 -5 1 -10 -4 -10 -6 0 -11 5 -11 10 0 6
2 10 4 10 3 0 8 -4 11 -10z m849 -5 c-4 -8 -17 -15 -30 -15 -15 0 -24 6 -24
15 0 10 10 15 30 15 22 0 28 -4 24 -15z m61 5 c3 -5 1 -10 -4 -10 -6 0 -11 5
-11 10 0 6 2 10 4 10 3 0 8 -4 11 -10z m1245 6 c0 -2 -7 -7 -16 -10 -8 -3 -12
-2 -9 4 6 10 25 14 25 6z m24 -25 c4 -5 0 -12 -6 -14 -7 -3 1 -6 19 -6 24 -1
31 -5 27 -16 -5 -11 -11 -12 -25 -4 -14 7 -19 6 -19 -3 0 -7 -9 -2 -20 12 -13
18 -15 27 -7 32 16 10 25 10 31 -1z m-2197 -23 c-3 -8 -6 -5 -6 6 -1 11 2 17
5 13 3 -3 4 -12 1 -19z m2374 -18 c43 6 59 0 59 -25 0 -14 7 -28 15 -31 17 -7
21 -34 5 -34 -5 0 -10 -5 -10 -11 0 -5 4 -8 9 -5 5 3 12 -1 15 -10 3 -8 2 -13
-3 -10 -5 3 -11 -1 -15 -9 -3 -8 3 -19 12 -24 22 -14 6 -14 -18 -1 -12 7 -17
16 -13 27 5 14 1 15 -35 9 -39 -6 -59 6 -29 17 6 3 1 6 -13 6 -20 1 -22 3 -10
11 13 8 12 10 -3 10 -11 0 -15 5 -11 11 3 6 14 9 24 6 11 -3 21 1 24 9 3 9 -2
14 -14 14 -21 0 -28 20 -7 20 7 1 5 6 -5 14 -10 7 -15 16 -11 20 4 3 10 1 13
-5 4 -6 13 -10 21 -9z m94 -14 c0 -19 -3 -32 -7 -29 -5 2 -8 17 -8 34 0 16 3
29 8 29 4 0 7 -15 7 -34z m-2788 18 c-3 -3 -12 -4 -19 -1 -8 3 -5 6 6 6 11 1
17 -2 13 -5z m338 -14 c-3 -5 -12 -10 -18 -10 -7 0 -6 4 3 10 19 12 23 12 15
0z m2515 -5 c0 -17 -2 -18 -24 -9 -23 9 -20 24 4 24 11 0 20 -7 20 -15z
m-1225 -5 c3 -6 -1 -7 -9 -4 -18 7 -21 14 -7 14 6 0 13 -4 16 -10z m915 -10
c0 -5 -7 -7 -15 -4 -8 4 -12 10 -9 15 6 11 24 2 24 -11z m-1863 -6 c-3 -3 -12
-4 -19 -1 -8 3 -5 6 6 6 11 1 17 -2 13 -5z m748 -4 c3 -5 -1 -10 -10 -10 -9 0
-13 5 -10 10 3 6 8 10 10 10 2 0 7 -4 10 -10z m780 0 c18 -8 17 -9 -7 -9 -16
-1 -28 4 -28 9 0 12 8 12 35 0z m-1815 -20 c0 -5 -2 -10 -4 -10 -3 0 -8 5 -11
10 -3 6 -1 10 4 10 6 0 11 -4 11 -10z m2835 -10 c-3 -5 -12 -10 -18 -10 -7 0
-6 4 3 10 19 12 23 12 15 0z m-3252 -23 c2 -7 1 -23 -3 -37 -5 -21 -7 -22 -13
-8 -3 10 -2 20 4 24 6 4 4 13 -7 25 -15 17 -16 19 -2 14 9 -4 18 -12 21 -18z
m2979 1 c-9 -9 -15 -9 -24 0 -9 9 -7 12 12 12 19 0 21 -3 12 -12z m-47 -29
c-2 -17 -9 -37 -16 -45 -15 -18 -40 -18 -33 0 3 9 13 12 22 9 13 -5 14 -3 5 7
-8 9 -9 19 -1 36 16 34 28 30 23 -7z m105 21 c0 -5 -4 -10 -10 -10 -5 0 -10 5
-10 10 0 6 5 10 10 10 6 0 10 -4 10 -10z m226 -13 c-9 -7 -18 -19 -19 -27 -3
-21 -16 -40 -28 -40 -15 0 -10 37 6 44 8 3 15 12 15 21 0 9 9 15 22 15 20 0
20 -1 4 -13z m-889 -19 c-3 -8 -6 -5 -6 6 -1 11 2 17 5 13 3 -3 4 -12 1 -19z
m638 -9 c5 -15 11 -16 30 -9 19 7 23 6 19 -4 -3 -8 -1 -17 5 -21 6 -3 11 -1
11 5 0 7 7 9 16 6 9 -4 22 -1 30 5 10 8 11 6 1 -15 -8 -16 -14 -21 -19 -13 -5
7 -8 1 -8 -15 0 -18 -7 -29 -20 -33 -11 -3 -20 -10 -20 -15 0 -5 8 -7 18 -3
14 5 13 3 -3 -10 -11 -9 -30 -17 -42 -17 -16 0 -20 5 -16 20 3 11 0 20 -6 20
-6 0 -11 16 -11 36 0 33 -2 36 -24 30 -14 -3 -28 -2 -31 4 -3 5 4 10 15 10 18
0 21 4 16 24 -5 20 -3 23 14 19 11 -3 22 -13 25 -24z m-1715 7 c0 -9 -30 -14
-35 -6 -4 6 3 10 14 10 12 0 21 -2 21 -4z m-335 -24 c-3 -3 -11 0 -18 7 -9 10
-8 11 6 5 10 -3 15 -9 12 -12z m-790 -8 c-17 -17 -35 -18 -35 -1 0 6 11 13 25
13 21 2 22 0 10 -12z m2166 -3 c6 10 8 7 6 -8 -1 -21 -2 -21 -19 -6 -10 9 -18
21 -18 27 0 6 5 3 11 -8 9 -15 13 -16 20 -5z m933 -18 c-4 -21 -10 -43 -15
-49 -5 -6 -5 -14 -1 -18 4 -4 0 -6 -8 -4 -10 2 -14 -3 -12 -14 2 -10 -2 -18
-8 -18 -19 0 -10 39 11 51 16 8 20 17 16 38 -3 16 -1 33 6 40 17 17 18 14 11
-26z m-2847 5 c-3 -8 -6 -5 -6 6 -1 11 2 17 5 13 3 -3 4 -12 1 -19z m1003 12
c8 -5 12 -12 9 -15 -8 -8 -39 5 -39 16 0 11 11 11 30 -1z m-545 -28 c-3 -3
-11 0 -18 7 -9 10 -8 11 6 5 10 -3 15 -9 12 -12z m1913 -9 c-14 -17 -28 -16
-28 1 0 8 9 14 19 13 15 -1 17 -4 9 -14z m402 6 c0 -5 6 -7 13 -3 9 6 9 5 0
-8 -7 -8 -10 -18 -6 -21 3 -4 1 -7 -6 -7 -7 0 -9 -5 -5 -11 5 -9 -1 -10 -22
-5 -16 4 -30 11 -32 16 -2 5 -11 6 -20 3 -14 -4 -14 -3 -2 5 8 6 18 8 22 6 15
-10 50 7 44 22 -3 8 -1 14 4 14 6 0 10 -5 10 -11z m41 -22 c-8 -8 -11 -7 -11
4 0 20 13 34 18 19 3 -7 -1 -17 -7 -23z m-1903 -18 c4 -44 -6 -99 -18 -99 -6
0 -10 12 -11 28 l-1 27 -13 -30 c-11 -24 -14 -26 -16 -10 -1 17 -2 17 -6 3 -2
-10 -11 -18 -19 -18 -12 0 -14 10 -12 42 3 39 6 43 38 51 45 11 59 25 40 38
-13 9 -13 10 0 6 8 -2 16 -18 18 -38z m1572 31 c0 -5 -4 -10 -10 -10 -5 0 -10
5 -10 10 0 6 5 10 10 10 6 0 10 -4 10 -10z m-2425 -28 c-2 -3 -12 -1 -22 2
-15 6 -15 9 -3 16 13 8 35 -8 25 -18z m735 19 c0 -9 -128 -6 -138 3 -3 3 27 6
66 6 40 0 72 -4 72 -9z m-1217 -8 c-15 -6 -17 -33 -3 -33 6 0 10 -4 10 -10 0
-16 -20 -12 -26 5 -8 20 2 45 18 44 10 0 10 -2 1 -6z m187 -21 c0 -10 -7 -19
-14 -19 -11 0 -13 5 -5 19 12 23 19 23 19 0z m87 -14 c-3 -7 -5 -2 -5 12 0 14
2 19 5 13 2 -7 2 -19 0 -25z m2518 23 c3 -5 1 -12 -5 -16 -5 -3 -10 1 -10 9 0
18 6 21 15 7z m-1411 -17 c3 -8 2 -12 -4 -9 -6 3 -10 10 -10 16 0 14 7 11 14
-7z m-1271 -14 c-3 -11 -7 -20 -8 -20 -1 0 -5 9 -8 20 -3 12 0 20 8 20 8 0 11
-8 8 -20z m1527 10 c0 -5 -4 -10 -10 -10 -5 0 -10 5 -10 10 0 6 5 10 10 10 6
0 10 -4 10 -10z m757 4 c-3 -3 -12 -4 -19 -1 -8 3 -5 6 6 6 11 1 17 -2 13 -5z
m-1417 -11 c0 -5 -4 -14 -9 -22 -10 -15 -31 -7 -31 12 0 7 4 6 10 -3 8 -13 10
-12 10 3 0 9 5 17 10 17 6 0 10 -3 10 -7z m-835 -25 c-5 -23 -24 -40 -37 -32
-13 8 -9 24 5 22 6 -2 11 5 9 15 -2 10 3 17 12 17 10 0 13 -7 11 -22z m524 5
c0 -11 -3 -13 -6 -5 -2 6 -9 10 -13 7 -5 -3 -11 -1 -15 5 -3 5 3 10 14 10 14
0 21 -6 20 -17z m57 -9 c2 -12 -1 -13 -12 -3 -7 6 -11 16 -8 21 7 11 17 3 20
-18z m731 -36 c-2 -13 -4 -5 -4 17 -1 22 1 32 4 23 2 -10 2 -28 0 -40z m-1370
22 c-1 -21 -10 -18 -13 5 -1 8 2 15 6 15 5 0 8 -9 7 -20z m163 10 c0 -5 -9
-14 -20 -20 -14 -7 -20 -7 -20 0 0 5 7 10 15 10 8 0 15 5 15 10 0 6 2 10 5 10
3 0 5 -4 5 -10z m2150 6 c0 -2 -9 -6 -20 -9 -11 -3 -20 -1 -20 4 0 5 9 9 20 9
11 0 20 -2 20 -4z m-2394 -28 c-3 -13 -5 -32 -7 -43 -1 -11 -5 -4 -8 15 -4 20
-2 38 4 42 15 11 15 10 11 -14z m157 7 c-3 -9 -8 -14 -10 -11 -3 3 -2 9 2 15
9 16 15 13 8 -4z m276 6 c8 -5 9 -11 3 -15 -5 -3 -15 1 -22 9 -14 16 -3 20 19
6z m-150 -30 c-15 -5 -22 6 -14 19 6 9 10 9 16 -1 5 -8 4 -15 -2 -18z m193 7
c-7 -7 -12 -8 -12 -2 0 14 12 26 19 19 2 -3 -1 -11 -7 -17z m-288 -4 c3 -8 2
-12 -4 -9 -6 3 -10 10 -10 16 0 14 7 11 14 -7z m202 -9 c-11 -8 -24 -15 -29
-15 -4 0 -5 -5 -1 -12 4 -7 3 -8 -4 -4 -19 11 -14 21 16 33 37 15 40 15 18 -2z
m515 -2 c13 -16 12 -17 -3 -4 -10 7 -18 15 -18 17 0 8 8 3 21 -13z m-791 -2
c0 -6 -4 -12 -8 -15 -5 -3 -9 1 -9 9 0 8 4 15 9 15 4 0 8 -4 8 -9z m60 -16 c0
-8 -4 -15 -10 -15 -5 0 -10 -5 -10 -11 0 -5 4 -8 9 -5 5 4 7 -4 3 -16 -4 -16
-2 -19 8 -13 9 6 11 4 6 -4 -5 -7 -10 -10 -13 -7 -3 3 -15 -1 -27 -9 -28 -20
-36 -19 -36 8 0 12 11 31 25 41 14 10 25 25 25 32 0 8 5 14 10 14 6 0 10 -7
10 -15z m1380 5 c0 -5 -11 -10 -25 -10 -14 0 -25 5 -25 10 0 6 11 10 25 10 14
0 25 -4 25 -10z m93 3 c-7 -2 -21 -2 -30 0 -10 3 -4 5 12 5 17 0 24 -2 18 -5z
m-1023 -23 c0 -5 -5 -10 -11 -10 -5 0 -7 5 -4 10 3 6 8 10 11 10 2 0 4 -4 4
-10z m341 -17 c-12 -20 -14 -14 -5 12 4 9 9 14 11 11 3 -2 0 -13 -6 -23z
m-876 7 c3 -5 2 -10 -4 -10 -5 0 -13 5 -16 10 -3 6 -2 10 4 10 5 0 13 -4 16
-10z m363 -15 c-3 -3 -9 2 -12 12 -6 14 -5 15 5 6 7 -7 10 -15 7 -18z m1057
15 c-3 -5 -13 -10 -21 -10 -8 0 -12 5 -9 10 3 6 13 10 21 10 8 0 12 -4 9 -10z
m-1193 -15 c11 -14 10 -25 -2 -25 -5 0 -14 9 -20 20 -8 16 -8 20 2 18 7 -2 16
-7 20 -13z m41 -2 c-4 -11 -8 -13 -11 -5 -2 7 -8 10 -13 6 -5 -3 -9 0 -9 5 0
6 9 11 20 11 14 0 18 -5 13 -17z m507 7 c0 -5 -2 -10 -4 -10 -3 0 -8 5 -11 10
-3 6 -1 10 4 10 6 0 11 -4 11 -10z m-105 -10 c3 -5 1 -10 -4 -10 -6 0 -11 5
-11 10 0 6 2 10 4 10 3 0 8 -4 11 -10z m523 -15 c-2 -26 -7 -29 -32 -19 -12 5
-13 9 -3 25 17 27 37 24 35 -6z m-1188 -8 c0 -16 -6 -23 -20 -24 -25 -2 -26
15 -2 33 22 17 22 18 22 -9z m203 -30 c-3 -5 -14 -7 -24 -4 -10 3 -22 1 -25
-4 -3 -5 -15 -9 -27 -8 -21 0 -21 1 3 10 15 6 20 13 13 17 -7 5 -6 11 5 22 14
13 15 12 9 -3 -3 -9 -2 -17 3 -17 5 0 12 10 16 22 l6 21 13 -24 c7 -13 11 -28
8 -32z m100 38 c-3 -9 -8 -14 -10 -11 -3 3 -2 9 2 15 9 16 15 13 8 -4z m1084
9 c-3 -3 -12 -4 -19 -1 -8 3 -5 6 6 6 11 1 17 -2 13 -5z m-1032 -14 c3 -6 -1
-7 -9 -4 -18 7 -21 14 -7 14 6 0 13 -4 16 -10z m434 -23 c-9 -32 -4 -51 12
-42 5 4 9 -1 9 -9 0 -19 -16 -21 -24 -3 -5 10 -7 10 -12 0 -8 -18 -34 -16 -34
2 0 8 7 15 15 15 8 0 15 5 15 10 0 14 -13 13 -28 -2 -9 -9 -12 -8 -12 4 0 9
12 19 26 22 15 4 24 12 21 20 -3 7 1 13 8 13 9 0 10 -8 4 -30z m-849 2 c0 -11
-4 -18 -9 -14 -5 3 -12 1 -16 -5 -3 -5 3 -10 14 -10 16 0 19 -6 19 -31 -1 -33
-22 -49 -40 -31 -8 8 -7 13 5 18 9 3 17 11 17 16 0 6 -7 8 -15 4 -12 -4 -14 0
-11 20 5 23 23 54 32 54 2 0 4 -9 4 -21z m330 17 c0 -2 -9 -6 -20 -9 -11 -3
-18 -1 -14 4 5 9 34 13 34 5z m1127 -12 c-3 -3 -12 -4 -19 -1 -8 3 -5 6 6 6
11 1 17 -2 13 -5z m-1308 -37 c-2 -1 -15 -8 -28 -15 -16 -9 -21 -10 -16 -2 5
9 1 10 -14 5 -15 -5 -21 -2 -21 9 0 14 18 21 43 17 4 0 7 4 7 10 0 6 7 3 16
-6 9 -9 15 -17 13 -18z m218 27 c-3 -3 -2 -17 3 -30 6 -16 6 -24 -1 -24 -6 0
-7 -5 -3 -12 4 -6 3 -8 -4 -5 -5 4 -8 16 -5 27 4 17 0 20 -23 20 l-29 1 30 14
c35 16 41 17 32 9z m380 -8 c0 -8 -6 -12 -14 -9 -7 3 -10 9 -7 14 8 14 21 11
21 -5z m613 0 c0 -3 -4 -8 -10 -11 -5 -3 -10 -1 -10 4 0 6 5 11 10 11 6 0 10
-2 10 -4z m-1304 -18 c4 -7 3 -8 -4 -4 -7 4 -12 2 -12 -3 0 -6 5 -11 10 -11
16 0 12 -14 -7 -26 -15 -9 -18 -7 -20 15 0 14 4 29 10 33 15 10 15 10 23 -4z
m252 -68 l27 -1 -30 -13 c-27 -11 -28 -13 -10 -20 20 -7 20 -8 1 -22 -20 -14
-29 -64 -11 -64 5 0 3 -5 -5 -10 -10 -6 -20 -5 -30 4 -16 13 -50 11 -50 -4 0
-5 6 -7 13 -4 8 3 12 -4 12 -22 -1 -18 -9 -30 -23 -35 -23 -9 -31 4 -11 17 8
4 8 8 0 13 -16 10 -1 51 20 51 22 0 33 16 17 26 -6 4 -14 2 -16 -4 -9 -27 -22
-9 -20 28 1 22 6 40 12 40 6 0 5 4 -3 9 -11 7 -9 11 8 20 13 7 21 8 21 2 0 -6
9 -15 20 -21 16 -8 20 -8 20 4 0 10 -6 13 -15 10 -9 -4 -15 0 -15 10 0 8 6 13
13 10 7 -2 13 4 14 16 1 11 -4 20 -10 20 -7 0 -6 4 3 10 12 8 16 2 18 -30 3
-36 6 -40 30 -40z m1129 74 c-3 -3 -12 -4 -19 -1 -8 3 -5 6 6 6 11 1 17 -2 13
-5z m-967 -24 c6 -11 7 -20 2 -20 -6 0 -12 9 -15 20 -3 11 -3 20 -1 20 2 0 8
-9 14 -20z m167 14 c-3 -3 -12 -4 -19 -1 -8 3 -5 6 6 6 11 1 17 -2 13 -5z m33
-4 c0 -5 -5 -10 -11 -10 -5 0 -7 5 -4 10 3 6 8 10 11 10 2 0 4 -4 4 -10z m113
-5 c4 -8 2 -17 -3 -20 -6 -4 -10 -4 -10 -1 0 2 -3 11 -6 20 -3 9 -2 16 4 16 5
0 12 -7 15 -15z m-538 -5 c3 -6 -1 -7 -9 -4 -9 4 -18 -1 -22 -10 -7 -19 -25
-22 -21 -3 4 24 40 36 52 17z m95 -10 c0 -5 -4 -10 -10 -10 -5 0 -10 5 -10 10
0 6 5 10 10 10 6 0 10 -4 10 -10z m2536 -24 c9 -20 9 -23 -2 -19 -8 3 -14 9
-14 15 0 5 -4 7 -9 3 -5 -3 -13 0 -17 6 -5 8 -3 9 6 4 10 -6 12 -4 7 8 -10 26
16 10 29 -17z m31 3 c1 -12 1 -20 0 -18 -2 2 -9 12 -16 22 -11 14 -11 17 1 17
7 0 14 -10 15 -21z m-2759 4 c-12 -3 -15 -12 -11 -36 3 -18 8 -36 13 -42 4 -5
6 -26 3 -45 -2 -19 -5 -48 -6 -65 -2 -24 -7 -30 -24 -29 -18 0 -20 -2 -11 -13
9 -11 9 -17 -2 -23 -8 -5 -15 -8 -17 -7 -6 7 -7 127 0 133 4 4 2 14 -5 21 -9
11 -9 17 3 24 8 5 10 9 4 9 -5 1 0 5 13 10 26 11 30 32 5 23 -15 -5 -14 -3 2
10 23 18 13 22 -15 7 -16 -8 -18 -7 -14 4 6 16 26 24 59 24 15 0 16 -1 3 -5z
m599 1 c-3 -3 -12 -4 -19 -1 -8 3 -5 6 6 6 11 1 17 -2 13 -5z m2333 -4 c-8 -5
-19 -10 -25 -10 -5 0 -3 5 5 10 8 5 20 10 25 10 6 0 3 -5 -5 -10z m-2650 -10
c0 -5 -5 -10 -11 -10 -5 0 -7 5 -4 10 3 6 8 10 11 10 2 0 4 -4 4 -10z m240
-10 c0 -5 -9 -6 -20 -3 -11 3 -20 9 -20 13 0 5 9 6 20 3 11 -3 20 -9 20 -13z
m-493 -72 c-2 -18 -4 -6 -4 27 0 33 2 48 4 33 2 -15 2 -42 0 -60z m2923 78 c0
-2 -12 -11 -26 -21 -15 -9 -24 -12 -20 -7 3 6 3 12 -1 15 -5 2 -3 3 3 1 6 -1
17 2 25 7 16 10 19 11 19 5z m-3040 -16 c0 -5 -10 -10 -22 -9 -22 0 -22 1 -3
9 11 5 21 9 23 9 1 1 2 -3 2 -9z m558 -15 c-3 -3 -9 2 -12 12 -6 14 -5 15 5 6
7 -7 10 -15 7 -18z m-228 10 c0 -2 -10 -9 -22 -15 -22 -11 -22 -10 -4 4 21 17
26 19 26 11z m-380 -20 c0 -8 -5 -15 -11 -15 -5 0 -7 5 -3 12 5 8 2 9 -10 5
-10 -4 -15 -3 -11 3 10 15 35 12 35 -5z m57 -1 c-3 -3 -12 -4 -19 -1 -8 3 -5
6 6 6 11 1 17 -2 13 -5z m2813 -34 c0 -15 -5 -12 -26 11 -19 22 -19 22 4 10
12 -6 22 -16 22 -21z m-2516 8 c-3 -4 -9 -8 -15 -8 -5 0 -9 4 -9 8 0 5 7 9 15
9 8 0 12 -4 9 -9z m66 2 c0 -5 -2 -10 -4 -10 -3 0 -8 5 -11 10 -3 6 -1 10 4
10 6 0 11 -4 11 -10z m2680 0 c0 -5 -5 -10 -11 -10 -5 0 -7 5 -4 10 3 6 8 10
11 10 2 0 4 -4 4 -10z m-2650 -25 c-14 -17 -30 -20 -30 -6 0 5 8 12 18 14 9 3
19 5 21 6 2 0 -2 -6 -9 -14z m2400 -18 c0 -5 -4 -5 -10 -2 -5 3 -10 14 -10 23
0 15 2 15 10 2 5 -8 10 -19 10 -23z m223 20 c3 -8 -1 -14 -9 -14 -15 0 -18 9
-7 20 9 9 10 9 16 -6z m67 3 c-12 -8 -12 -10 -1 -10 8 0 12 -3 8 -6 -9 -9 -28
6 -22 17 4 5 12 9 18 9 7 0 6 -4 -3 -10z m-2736 -15 c-6 -16 -24 -21 -24 -7 0
11 11 22 21 22 5 0 6 -7 3 -15z m2701 5 c-3 -5 -1 -10 6 -10 7 0 10 -3 6 -6
-9 -9 -28 6 -22 17 4 5 8 9 11 9 3 0 2 -4 -1 -10z m-2765 -15 c0 -2 -6 -5 -13
-8 -8 -3 -14 1 -14 8 0 7 6 11 14 8 7 -3 13 -6 13 -8z m140 5 c0 -5 -2 -10 -4
-10 -3 0 -8 5 -11 10 -3 6 -1 10 4 10 6 0 11 -4 11 -10z m2507 -11 c-8 -14
-14 -15 -29 -6 -25 16 -23 22 11 22 24 0 26 -3 18 -16z m72 -8 c0 -3 -4 -15
-9 -26 -7 -16 -9 -17 -9 -3 -1 9 -4 24 -7 32 -5 12 -2 15 10 10 9 -3 16 -9 15
-13z m-2595 3 c23 -9 20 -23 -4 -17 -11 3 -20 9 -20 14 0 11 3 11 24 3z m107
-59 c-8 -29 -7 -36 3 -32 7 3 19 1 27 -4 10 -6 10 -9 2 -9 -10 0 -10 -6 0 -27
9 -21 9 -27 -1 -31 -6 -2 -12 -8 -12 -13 0 -6 5 -7 10 -4 6 3 10 1 10 -4 0 -6
-5 -11 -11 -11 -5 0 -7 -5 -3 -12 4 -7 3 -8 -4 -4 -6 4 -22 2 -34 -4 l-23 -11
21 18 c16 13 20 24 14 38 -4 13 -2 24 6 30 9 7 11 15 4 25 -8 12 -10 12 -10 1
0 -8 -8 -20 -17 -27 -11 -8 -13 -13 -5 -14 6 0 12 -9 12 -21 0 -15 -5 -20 -22
-17 -12 2 -23 9 -26 17 -3 9 0 11 9 5 11 -6 12 -5 2 7 -7 8 -14 29 -17 45 -5
26 0 35 29 58 19 15 34 31 34 34 -1 4 0 14 1 22 2 12 3 11 7 -2 2 -9 0 -33 -6
-53z m2529 44 c0 -5 -4 -9 -10 -9 -5 0 -10 7 -10 16 0 8 5 12 10 9 6 -3 10
-10 10 -16z m-1992 -10 c-15 -4 -31 -10 -37 -13 -5 -4 -12 -2 -16 3 -6 11 55
31 70 23 5 -3 -3 -9 -17 -13z m62 17 c0 -3 -4 -8 -10 -11 -5 -3 -10 -1 -10 4
0 6 5 11 10 11 6 0 10 -2 10 -4z m37 -12 c-3 -3 -12 -4 -19 -1 -8 3 -5 6 6 6
11 1 17 -2 13 -5z m266 -11 c81 0 150 -2 153 -6 11 -11 -7 -27 -32 -27 -32 0
-27 -22 7 -31 14 -4 17 -7 7 -8 -28 -2 -48 10 -48 30 0 17 -8 19 -89 19 -102
0 -153 -8 -148 -24 2 -6 14 -13 28 -17 22 -6 22 -7 3 -8 -12 -1 -21 -7 -20
-13 0 -7 -3 -13 -9 -13 -5 0 -10 8 -9 17 0 9 -2 15 -6 13 -4 -2 -6 13 -4 33 3
56 4 58 12 46 5 -8 54 -12 155 -11z m-1213 -24 c0 -6 -4 -7 -10 -4 -5 3 -10
-1 -10 -9 0 -10 6 -13 18 -10 10 4 13 2 7 -3 -19 -16 -35 -51 -24 -57 5 -2 4
-3 -3 -2 -7 1 -13 24 -14 59 -2 53 -1 56 17 47 10 -6 19 -15 19 -21z m155 21
c3 -5 1 -10 -4 -10 -6 0 -11 5 -11 10 0 6 2 10 4 10 3 0 8 -4 11 -10z m-88
-32 c-3 -7 -5 -2 -5 12 0 14 2 19 5 13 2 -7 2 -19 0 -25z m889 14 c1 -7 0 -8
-3 -2 -7 14 -33 13 -33 -2 0 -6 -3 -9 -6 -5 -3 3 -3 11 1 17 9 14 38 9 41 -8z
m541 12 c-3 -3 -12 -4 -19 -1 -8 3 -5 6 6 6 11 1 17 -2 13 -5z m1049 -5 c-15
-9 -16 -13 -5 -20 8 -5 9 -9 3 -9 -5 0 -19 7 -30 16 -10 8 -14 13 -9 10 6 -2
17 -1 25 5 8 5 20 9 25 9 6 -1 2 -5 -9 -11z m169 1 c3 -6 -1 -7 -9 -4 -18 7
-21 14 -7 14 6 0 13 -4 16 -10z m125 -2 c0 -4 -7 -8 -15 -8 -8 0 -15 4 -15 8
0 5 7 9 15 9 8 0 15 -4 15 -9z m70 -4 c0 -2 -13 -4 -30 -4 -16 0 -30 4 -30 8
0 5 14 7 30 4 17 -2 30 -6 30 -8z m-2803 0 c-3 -3 -12 -4 -19 -1 -8 3 -5 6 6
6 11 1 17 -2 13 -5z m-423 -30 c4 -11 2 -15 -8 -11 -8 3 -16 1 -19 -6 -2 -6
-6 -3 -10 7 -4 10 -3 15 3 11 6 -3 10 -1 10 4 0 17 17 13 24 -5z m409 1 c-3
-9 -8 -14 -10 -11 -3 3 -2 9 2 15 9 16 15 13 8 -4z m2790 3 c-2 -5 -9 -8 -15
-8 -6 0 -21 -8 -32 -17 -21 -18 -21 -18 -3 3 9 11 14 23 11 26 -3 3 6 5 19 4
14 0 23 -4 20 -8z m-3267 -18 c0 -11 -4 -20 -8 -20 -4 0 -8 9 -8 20 0 11 4 20
8 20 4 0 8 -9 8 -20z m1201 14 c-3 -3 -12 -4 -19 -1 -8 3 -5 6 6 6 11 1 17 -2
13 -5z m46 -1 c-7 -2 -19 -2 -25 0 -7 3 -2 5 12 5 14 0 19 -2 13 -5z m150 0
c-13 -2 -33 -2 -45 0 -13 2 -3 4 22 4 25 0 35 -2 23 -4z m-1110 -23 c3 -11 2
-22 -2 -24 -4 -3 -8 6 -9 20 -2 29 4 31 11 4z m43 -7 c-10 -10 -19 5 -10 18 6
11 8 11 12 0 2 -7 1 -15 -2 -18z m114 23 c0 -2 -9 -6 -20 -9 -11 -3 -20 -1
-20 4 0 5 9 9 20 9 11 0 20 -2 20 -4z m-360 -31 c-6 -8 -9 -23 -5 -35 10 -32
-2 -23 -14 10 -5 17 -6 28 -1 25 5 -3 11 -1 15 5 3 5 9 10 12 10 3 0 0 -7 -7
-15z m478 3 c-2 -5 -8 -9 -13 -9 -5 0 -11 4 -13 9 -1 5 4 9 13 9 9 0 14 -4 13
-9z m1147 -8 c0 -7 -6 -15 -12 -17 -8 -3 -13 4 -13 17 0 13 5 20 13 18 6 -3
12 -11 12 -18z m1220 10 c-3 -5 -12 -10 -18 -10 -7 0 -6 4 3 10 19 12 23 12
15 0z m-2665 -10 c0 -5 -5 -10 -11 -10 -5 0 -7 5 -4 10 3 6 8 10 11 10 2 0 4
-4 4 -10z m240 1 c0 -12 -35 -20 -50 -11 -9 6 -8 9 6 13 32 8 44 7 44 -2z
m-353 -23 c-3 -8 -6 -5 -6 6 -1 11 2 17 5 13 3 -3 4 -12 1 -19z m2440 16 c-3
-3 -12 -4 -19 -1 -8 3 -5 6 6 6 11 1 17 -2 13 -5z m713 -25 c0 -18 -2 -19 -15
-9 -15 12 -12 30 6 30 5 0 9 -10 9 -21z m-2963 5 c-3 -3 -12 -4 -19 -1 -8 3
-5 6 6 6 11 1 17 -2 13 -5z m138 -6 c5 4 5 1 1 -6 -4 -7 -11 -10 -16 -7 -4 3
-11 -1 -13 -7 -3 -7 -6 -2 -6 11 -1 18 2 21 12 12 8 -6 18 -7 22 -3z m2784 8
c-2 -2 -20 -6 -39 -10 -25 -4 -31 -3 -20 4 14 9 69 15 59 6z m-2954 -16 c3 -5
1 -10 -4 -10 -6 0 -11 5 -11 10 0 6 2 10 4 10 3 0 8 -4 11 -10z m1132 -32 c-3
-8 -6 -5 -6 6 -1 11 2 17 5 13 3 -3 4 -12 1 -19z m37 -3 c-4 -8 -8 -15 -10
-15 -2 0 -4 7 -4 15 0 8 4 15 10 15 5 0 7 -7 4 -15z m-1064 -10 c0 -8 -2 -15
-4 -15 -2 0 -6 7 -10 15 -3 8 -1 15 4 15 6 0 10 -7 10 -15z m1140 -7 c0 -6 -6
-5 -15 2 -8 7 -15 14 -15 16 0 2 7 1 15 -2 8 -4 15 -11 15 -16z m-173 -20 c-3
-7 -5 -2 -5 12 0 14 2 19 5 13 2 -7 2 -19 0 -25z m1833 22 c0 -5 -8 -10 -17
-10 -15 0 -16 2 -3 10 19 12 20 12 20 0z m-2855 -10 c3 -5 1 -10 -4 -10 -6 0
-11 5 -11 10 0 6 2 10 4 10 3 0 8 -4 11 -10z m295 -15 c7 -9 8 -15 2 -15 -5 0
-12 7 -16 15 -3 8 -4 15 -2 15 2 0 9 -7 16 -15z m2527 -1 c-3 -3 -12 -4 -19
-1 -8 3 -5 6 6 6 11 1 17 -2 13 -5z m-1607 -14 c-20 -13 -33 -13 -25 0 3 6 14
10 23 10 15 0 15 -2 2 -10z m-866 -15 c-4 -8 -8 -15 -10 -15 -2 0 -4 7 -4 15
0 8 4 15 10 15 5 0 7 -7 4 -15z m681 5 c3 -5 1 -10 -4 -10 -6 0 -11 5 -11 10
0 6 2 10 4 10 3 0 8 -4 11 -10z m85 3 c0 -5 -7 -17 -15 -28 -15 -19 -16 -19
-33 -1 -9 11 -12 16 -5 12 6 -3 18 0 25 8 14 16 28 21 28 9z m1610 -27 c0 -3
-4 -8 -10 -11 -5 -3 -10 -1 -10 4 0 6 5 11 10 11 6 0 10 -2 10 -4z m-1073 -48
c-3 -7 -5 -2 -5 12 0 14 2 19 5 13 2 -7 2 -19 0 -25z m1201 6 c1 0 -14 -1 -35
-2 -33 -1 -35 0 -17 12 14 11 23 12 34 3 8 -6 16 -12 18 -13z m-1758 0 c0 -12
-4 -12 -20 -4 -11 6 -20 12 -20 13 0 2 9 3 20 4 12 1 20 -4 20 -13z m1755 -33
c3 -5 0 -13 -6 -17 -7 -4 -9 -3 -5 4 3 5 0 13 -6 15 -9 4 -10 6 -1 6 6 1 14
-3 18 -8z m-2605 -21 c0 -5 -5 -10 -11 -10 -5 0 -7 5 -4 10 3 6 8 10 11 10 2
0 4 -4 4 -10z m858 -11 c-18 -12 -25 -11 -31 4 -4 10 2 13 20 9 18 -3 21 -7
11 -13z m162 1 c0 -5 -2 -10 -4 -10 -3 0 -8 5 -11 10 -3 6 -1 10 4 10 6 0 11
-4 11 -10z m-110 -8 c0 -11 -22 -32 -32 -32 -5 0 -4 9 2 20 11 20 30 28 30 12z
m375 -12 c3 -5 1 -10 -4 -10 -6 0 -11 5 -11 10 0 6 2 10 4 10 3 0 8 -4 11 -10z
m125 -22 c0 -5 -9 -8 -20 -8 -23 0 -26 10 -8 28 9 9 14 9 20 -1 4 -6 8 -15 8
-19z m-584 4 c-3 -2 4 -18 15 -33 20 -29 16 -35 -16 -23 -13 5 -14 9 -3 15 9
6 10 11 2 17 -6 4 -13 15 -17 24 -4 12 -2 15 9 11 8 -3 13 -8 10 -11z m66 -16
c7 4 10 4 6 -1 -4 -4 4 -18 19 -31 24 -20 24 -23 6 -18 -12 3 -34 20 -49 37
-16 17 -21 25 -12 18 9 -7 23 -9 30 -5z m-1191 -13 c13 -16 12 -17 -3 -4 -17
13 -22 21 -14 21 2 0 10 -8 17 -17z m-41 3 c0 -3 -4 -8 -10 -11 -5 -3 -10 -1
-10 4 0 6 5 11 10 11 6 0 10 -2 10 -4z m1100 -10 c0 -9 -30 -14 -35 -6 -4 6 3
10 14 10 12 0 21 -2 21 -4z m-1137 -21 c-3 -9 -8 -14 -10 -11 -3 3 -2 9 2 15
9 16 15 13 8 -4z m217 -15 c0 -5 -4 -10 -10 -10 -5 0 -10 5 -10 10 0 6 5 10
10 10 6 0 10 -4 10 -10z m953 -10 c3 -11 1 -20 -4 -20 -5 0 -9 9 -9 20 0 11 2
20 4 20 2 0 6 -9 9 -20z m-1146 -6 c-3 -3 -12 -4 -19 -1 -8 3 -5 6 6 6 11 1
17 -2 13 -5z m1198 -14 c10 -11 16 -20 13 -20 -3 0 -13 9 -23 20 -10 11 -16
20 -13 20 3 0 13 -9 23 -20z m1053 -5 c1 -21 -1 -23 -12 -13 -7 7 -11 19 -9
25 8 21 18 15 21 -12z m46 -5 c-17 -28 -12 -59 5 -31 6 10 10 9 15 -5 4 -10 4
-15 0 -11 -4 4 -17 1 -29 -7 -21 -14 -22 -13 -20 8 2 13 8 32 14 43 5 11 7 23
4 27 -3 3 1 6 11 6 16 0 16 -2 0 -30z m33 10 c-1 -11 -5 -20 -9 -20 -10 0 -10
4 -2 24 8 22 13 20 11 -4z m-2299 -21 c-3 -8 -7 -3 -11 10 -4 17 -3 21 5 13 5
-5 8 -16 6 -23z m65 12 c-3 -11 -11 -22 -19 -25 -17 -6 -17 -1 -4 25 14 25 30
25 23 0z m52 -11 c19 -36 19 -64 0 -30 l-14 25 -9 -24 c-5 -15 -11 -20 -15
-14 -4 6 0 19 9 27 9 9 13 23 10 31 -10 26 3 16 19 -15z m1169 11 c4 -5 -3 -7
-14 -4 -23 6 -26 13 -6 13 8 0 17 -4 20 -9z m168 -28 c7 -6 24 -9 38 -7 14 2
79 -3 145 -10 l120 -14 -140 5 c-77 3 -159 9 -182 13 -33 6 -43 4 -43 -6 0 -8
-10 -14 -21 -14 -17 0 -19 3 -10 13 13 16 5 27 -21 27 -21 0 -23 -11 -6 -28 9
-9 9 -12 0 -12 -7 0 -12 5 -12 10 0 6 -7 10 -16 10 -13 0 -14 3 -4 15 14 17
130 15 152 -2z m611 -10 c-7 -2 -19 -2 -25 0 -7 3 -2 5 12 5 14 0 19 -2 13 -5z
m-2113 -13 c0 -5 -4 -10 -10 -10 -5 0 -10 5 -10 10 0 6 5 10 10 10 6 0 10 -4
10 -10z m2037 4 c-3 -3 -12 -4 -19 -1 -8 3 -5 6 6 6 11 1 17 -2 13 -5z m140 0
c-3 -3 -12 -4 -19 -1 -8 3 -5 6 6 6 11 1 17 -2 13 -5z m-659 -29 c3 -18 3 -19
-10 -3 -7 9 -22 19 -33 21 -12 3 -8 5 10 4 21 -1 31 -8 33 -22z m355 18 c-13
-2 -33 -2 -45 0 -13 2 -3 4 22 4 25 0 35 -2 23 -4z m70 0 c-7 -2 -19 -2 -25 0
-7 3 -2 5 12 5 14 0 19 -2 13 -5z m-393 -7 c0 -3 -4 -8 -10 -11 -5 -3 -10 -1
-10 4 0 6 5 11 10 11 6 0 10 -2 10 -4z m65 -6 c4 -6 -5 -10 -19 -10 -14 0 -26
5 -26 10 0 6 9 10 19 10 11 0 23 -4 26 -10z m472 4 c-3 -3 -12 -4 -19 -1 -8 3
-5 6 6 6 11 1 17 -2 13 -5z m-1985 -12 c-7 -5 -10 -16 -6 -25 3 -10 1 -17 -6
-17 -6 0 -8 5 -5 10 3 6 1 10 -6 10 -8 0 -8 4 1 15 7 8 18 15 24 15 7 0 6 -3
-2 -8z m388 -2 c0 -5 -5 -10 -11 -10 -5 0 -7 5 -4 10 3 6 8 10 11 10 2 0 4 -4
4 -10z m864 -5 c-4 -8 -8 -15 -10 -15 -2 0 -4 7 -4 15 0 8 4 15 10 15 5 0 7
-7 4 -15z m329 8 c-7 -2 -21 -2 -30 0 -10 3 -4 5 12 5 17 0 24 -2 18 -5z m97
-3 c0 -5 -6 -10 -14 -10 -8 0 -17 -12 -19 -27 -3 -23 -4 -21 -6 10 -1 31 2 37
19 37 11 0 20 -4 20 -10z m160 0 c0 -5 -7 -10 -15 -10 -8 0 -15 -8 -16 -17 0
-11 -2 -13 -6 -5 -7 19 4 42 22 42 8 0 15 -4 15 -10z m432 -24 c11 -20 10 -20
-9 -3 -11 9 -28 17 -39 17 -15 0 -16 2 -5 9 19 12 39 3 53 -23z m-2332 20 c0
-2 -8 -10 -17 -17 -16 -13 -17 -12 -4 4 13 16 21 21 21 13z m1687 -2 c-3 -3
-12 -4 -19 -1 -8 3 -5 6 6 6 11 1 17 -2 13 -5z m-556 -27 c-13 -13 -26 -3 -16
12 3 6 11 8 17 5 6 -4 6 -10 -1 -17z m1116 17 c-3 -3 -12 -4 -19 -1 -8 3 -5 6
6 6 11 1 17 -2 13 -5z m168 -14 c3 -5 2 -10 -4 -10 -5 0 -13 5 -16 10 -3 6 -2
10 4 10 5 0 13 -4 16 -10z m-1968 -9 c17 13 17 13 4 -4 -8 -10 -20 -16 -28
-13 -7 3 -13 1 -13 -4 0 -6 -5 -10 -10 -10 -7 0 -7 7 1 21 8 17 13 19 19 8 7
-10 12 -10 27 2z m857 -17 c-6 -21 -4 -25 7 -19 8 5 10 4 6 0 -4 -5 -14 -10
-21 -11 -11 -2 -12 4 -4 27 12 36 21 38 12 3z m33 4 c-3 -8 -6 -5 -6 6 -1 11
2 17 5 13 3 -3 4 -12 1 -19z m946 5 c-7 -2 -21 -2 -30 0 -10 3 -4 5 12 5 17 0
24 -2 18 -5z m332 -13 c-3 -5 -11 -10 -16 -10 -6 0 -7 5 -4 10 3 6 11 10 16
10 6 0 7 -4 4 -10z m-2305 -20 c0 -11 -4 -20 -9 -20 -5 0 -7 9 -4 20 3 11 7
20 9 20 2 0 4 -9 4 -20z m757 14 c-3 -3 -12 -4 -19 -1 -8 3 -5 6 6 6 11 1 17
-2 13 -5z m1208 -20 c16 -25 16 -25 -3 -15 -11 6 -22 17 -26 26 -9 24 10 17
29 -11z m-928 -6 c-3 -8 -6 -5 -6 6 -1 11 2 17 5 13 3 -3 4 -12 1 -19z m188
12 c-3 -5 1 -10 9 -10 8 0 17 -4 20 -9 4 -5 -3 -7 -13 -4 -18 5 -47 -27 -36
-39 3 -2 7 -21 11 -42 5 -32 3 -38 -9 -33 -9 3 -21 -1 -27 -9 -19 -21 -29 -17
-26 11 3 29 22 52 33 41 4 -4 1 -11 -7 -16 -13 -8 -12 -10 3 -10 10 0 17 8 17
20 0 11 -4 20 -9 20 -14 0 -5 51 10 61 8 5 10 9 6 9 -12 0 2 20 14 20 6 0 7
-4 4 -10z m812 -15 c-4 -8 -11 -15 -17 -15 -7 0 -7 6 0 21 13 23 26 19 17 -6z
m702 -22 l-1 -48 -8 40 c-7 37 -5 55 6 55 2 0 3 -21 3 -47z m-2969 27 c0 -5
-5 -10 -11 -10 -5 0 -7 5 -4 10 3 6 8 10 11 10 2 0 4 -4 4 -10z m2525 -9 c-3
-6 -14 -10 -23 -10 -15 1 -15 2 1 6 9 2 17 9 17 15 0 6 3 9 6 5 3 -3 3 -10 -1
-16z m-71 -7 c3 -8 2 -12 -4 -9 -6 3 -10 10 -10 16 0 14 7 11 14 -7z m-1309
-12 c-3 -3 -11 0 -18 7 -9 10 -8 11 6 5 10 -3 15 -9 12 -12z m490 8 c3 -6 -1
-7 -9 -4 -9 3 -16 1 -16 -6 0 -6 -5 -8 -11 -4 -8 4 -7 9 2 15 18 11 26 11 34
-1z m685 0 c0 -5 -2 -10 -4 -10 -3 0 -8 5 -11 10 -3 6 -1 10 4 10 6 0 11 -4
11 -10z m-2105 -11 c11 -16 1 -19 -13 -3 -7 8 -8 14 -3 14 5 0 13 -5 16 -11z
m1049 -5 c3 -8 2 -12 -4 -9 -6 3 -10 10 -10 16 0 14 7 11 14 -7z m206 1 c10
-12 10 -15 -2 -15 -8 0 -15 7 -15 15 0 8 1 15 2 15 2 0 8 -7 15 -15z m390 5
c0 -5 -2 -10 -4 -10 -3 0 -8 5 -11 10 -3 6 -1 10 4 10 6 0 11 -4 11 -10z m780
0 c0 -5 -8 -10 -17 -10 -15 0 -16 2 -3 10 19 12 20 12 20 0z m406 -5 c-4 -24
-16 -30 -16 -7 0 12 4 22 9 22 5 0 8 -7 7 -15z m-2746 -5 c0 -5 -5 -10 -11
-10 -5 0 -7 5 -4 10 3 6 8 10 11 10 2 0 4 -4 4 -10z m195 0 c3 -5 -1 -10 -10
-10 -9 0 -13 5 -10 10 3 6 8 10 10 10 2 0 7 -4 10 -10z m628 -4 c4 -10 1 -13
-9 -9 -7 3 -14 9 -14 14 0 14 17 10 23 -5z m1172 4 c4 -6 16 -8 28 -5 20 5 20
5 4 -6 -14 -8 -22 -8 -30 0 -15 15 -50 14 -41 -1 4 -6 3 -8 -4 -4 -16 10 -25
-13 -12 -29 7 -8 22 -15 34 -15 17 0 18 2 6 10 -8 5 -11 10 -7 10 5 0 20 -9
34 -20 14 -11 21 -20 16 -20 -5 0 -15 6 -22 13 -11 10 -13 6 -7 -21 3 -21 2
-31 -4 -27 -6 3 -10 13 -10 21 0 8 -4 13 -8 11 -5 -1 -20 9 -34 22 -24 23 -25
27 -11 48 16 24 57 31 68 13z m-2130 -9 c3 -5 2 -12 -3 -15 -5 -3 -9 1 -9 9 0
17 3 19 12 6z m1690 -9 c-3 -3 -11 0 -18 7 -9 10 -8 11 6 5 10 -3 15 -9 12
-12z m-1625 -7 c0 -1 -8 -5 -18 -7 -11 -3 -19 0 -19 7 0 7 8 10 19 7 10 -2 18
-6 18 -7z m1003 -13 c-6 -24 -18 -28 -29 -10 -4 6 -3 8 4 4 6 -3 14 3 17 15 9
27 16 20 8 -9z m390 10 c-2 -7 0 -12 5 -12 4 0 13 -4 20 -8 14 -9 6 -42 -10
-42 -6 0 -8 6 -5 14 6 16 -11 36 -30 36 -7 0 -13 -5 -13 -11 0 -5 5 -7 10 -4
6 3 10 -5 10 -19 0 -28 17 -38 42 -24 14 7 16 5 12 -7 -4 -9 -9 -13 -12 -11
-3 3 -12 1 -19 -6 -11 -9 -16 -9 -23 1 -4 8 -13 10 -20 6 -9 -5 -11 -4 -6 3 4
7 1 12 -6 13 -7 0 -4 4 7 9 15 7 16 9 4 9 -22 1 -13 51 10 51 14 0 14 2 1 11
-12 8 -11 9 5 6 11 -2 19 -9 18 -15z m1064 3 c0 -8 -3 -13 -5 -10 -3 3 -15 -3
-26 -12 -15 -13 -14 -10 3 10 29 32 28 31 28 12z m-1201 -25 c-1 -16 -7 -35
-13 -41 -10 -10 -12 -8 -8 9 2 12 -1 22 -6 22 -6 0 -6 8 1 20 15 29 26 25 26
-10z m349 20 c3 -5 13 -6 23 -3 15 6 15 4 -2 -15 -21 -24 -46 -31 -27 -8 10
11 8 17 -6 25 -10 6 -13 11 -6 11 6 0 14 -4 18 -10z m-775 -10 c0 -5 -2 -10
-4 -10 -3 0 -8 5 -11 10 -3 6 -1 10 4 10 6 0 11 -4 11 -10z m927 -12 c-3 -8
-6 -5 -6 6 -1 11 2 17 5 13 3 -3 4 -12 1 -19z m-691 -10 c16 -17 16 -20 3 -15
-9 3 -23 0 -30 -6 -11 -10 -11 -9 0 5 7 9 10 22 6 28 -11 17 1 11 21 -12z
m1642 5 c-2 -10 2 -17 9 -16 6 1 14 -4 17 -12 6 -15 -5 -20 -18 -8 -12 13 -35
11 -47 -3 -9 -11 -8 -14 5 -14 10 0 15 -4 12 -9 -3 -4 -16 -6 -30 -4 -17 4
-22 10 -19 24 3 10 10 19 15 19 6 0 7 7 4 16 -5 14 -4 15 8 5 11 -9 17 -9 28
3 17 20 19 20 16 -1z m-2642 -8 c-1 -8 -8 -21 -16 -28 -10 -10 -12 -9 -6 6 3
10 6 23 6 28 0 5 4 9 9 9 5 0 8 -7 7 -15z m543 -27 c-14 -25 -16 -23 -11 13 3
21 7 27 13 18 4 -7 3 -21 -2 -31z m261 21 c0 -6 -4 -7 -10 -4 -5 3 -10 11 -10
16 0 6 5 7 10 4 6 -3 10 -11 10 -16z m783 1 c-3 -11 -9 -17 -14 -15 -10 7 -1
35 11 35 5 0 6 -9 3 -20z m737 5 c7 -9 8 -15 2 -15 -5 0 -12 7 -16 15 -3 8 -4
15 -2 15 2 0 9 -7 16 -15z m380 -13 c0 -15 -2 -15 -10 -2 -13 20 -13 33 0 25
6 -3 10 -14 10 -23z m-1630 -7 c0 -14 -4 -25 -10 -25 -11 0 -14 33 -3 43 11
11 13 8 13 -18z m-890 11 c0 -3 -4 -8 -10 -11 -5 -3 -10 -1 -10 4 0 6 5 11 10
11 6 0 10 -2 10 -4z m656 -13 c7 -10 13 -29 13 -43 l0 -25 -11 25 c-5 14 -14
33 -19 43 -5 9 -6 17 -3 17 4 0 13 -8 20 -17z m-941 -3 c3 -6 -1 -7 -9 -4 -18
7 -21 14 -7 14 6 0 13 -4 16 -10z m2843 -21 c-2 -7 -10 -4 -18 7 -9 11 -10 15
-2 10 7 -4 12 -2 13 6 0 10 2 10 6 1 2 -7 3 -18 1 -24z m-1601 1 c10 -13 8
-16 -8 -16 -10 0 -19 1 -19 2 0 6 13 34 14 32 1 -2 7 -10 13 -18z m1244 0
c-27 -23 -47 -26 -54 -7 -4 10 3 13 24 12 17 -1 32 2 35 7 3 4 8 8 12 8 4 -1
-4 -10 -17 -20z m-2223 -20 c-1 -18 -6 -30 -14 -30 -8 0 -11 6 -8 15 4 9 0 15
-7 15 -9 1 -7 6 5 15 26 19 25 20 24 -15z m169 18 c0 -7 2 -19 4 -27 5 -18
-23 -22 -39 -5 -10 12 -10 14 3 14 8 0 14 3 14 8 -2 14 1 22 9 22 5 0 9 -6 9
-12z m230 -10 c-3 -8 -6 -5 -6 6 -1 11 2 17 5 13 3 -3 4 -12 1 -19z m98 3 c-3
-6 -11 -11 -17 -11 -6 0 -6 6 2 15 14 17 26 13 15 -4z m905 9 c0 -5 -8 -10
-17 -10 -15 0 -16 2 -3 10 19 12 20 12 20 0z m-1960 -6 c0 -8 -19 -13 -24 -6
-3 5 1 9 9 9 8 0 15 -2 15 -3z m1606 -21 c-7 -7 -26 7 -26 19 0 6 6 6 15 -2 9
-7 13 -15 11 -17z m-753 3 c9 -7 17 -16 17 -20 0 -10 -28 -7 -32 5 -2 7 -12 7
-31 0 -48 -18 -64 -12 -22 8 49 24 46 23 68 7z m1491 -1 c-4 -8 -8 -15 -10
-15 -2 0 -4 7 -4 15 0 8 4 15 10 15 5 0 7 -7 4 -15z m-939 -5 c3 -6 -1 -7 -9
-4 -18 7 -21 14 -7 14 6 0 13 -4 16 -10z m62 -4 c0 -8 -6 -12 -15 -9 -11 5
-11 7 0 14 7 5 13 9 14 9 0 0 1 -6 1 -14z m-1187 0 c0 -2 -9 -6 -20 -9 -11 -3
-20 -1 -20 4 0 5 9 9 20 9 11 0 20 -2 20 -4z m745 -6 c-3 -5 -12 -10 -18 -10
-7 0 -6 4 3 10 19 12 23 12 15 0z m515 3 c0 -5 -11 -8 -24 -8 -13 0 -22 3 -19
8 2 4 13 7 24 7 10 0 19 -3 19 -7z m173 0 c-7 -2 -19 -2 -25 0 -7 3 -2 5 12 5
14 0 19 -2 13 -5z"/>
<path d="M1833 2234 c-6 -13 -7 -24 -3 -24 9 0 25 39 18 45 -2 2 -8 -7 -15
-21z"/>
<path d="M1920 2241 c0 -5 7 -15 17 -22 15 -13 15 -12 4 9 -12 23 -21 28 -21
13z"/>
<path d="M1800 2189 c0 -5 5 -7 10 -4 6 3 10 8 10 11 0 2 -4 4 -10 4 -5 0 -10
-5 -10 -11z"/>
<path d="M1745 2090 c3 -5 16 -10 28 -9 21 0 21 1 2 9 -28 12 -37 12 -30 0z"/>
<path d="M1722 2085 c4 -4 3 -14 -4 -22 -6 -7 -8 -16 -5 -19 3 -3 10 3 16 15
8 15 8 22 -1 27 -7 4 -10 4 -6 -1z"/>
<path d="M1752 2040 c0 -19 2 -27 5 -17 2 9 2 25 0 35 -3 9 -5 1 -5 -18z"/>
<path d="M1820 2060 c0 -5 5 -10 10 -10 6 0 10 5 10 10 0 6 -4 10 -10 10 -5 0
-10 -4 -10 -10z"/>
<path d="M1925 2010 c-3 -5 -1 -10 4 -10 6 0 11 5 11 10 0 6 -2 10 -4 10 -3 0
-8 -4 -11 -10z"/>
<path d="M1914 1969 c-4 -7 -3 -9 4 -5 6 3 13 -2 15 -11 4 -16 5 -16 6 -1 1
21 -15 32 -25 17z"/>
<path d="M1931 1900 c9 -23 14 -28 20 -18 10 15 12 44 2 35 -3 -4 -12 -2 -19
4 -11 9 -12 6 -3 -21z"/>
<path d="M2060 1914 c0 -8 5 -12 10 -9 6 3 10 10 10 16 0 5 -4 9 -10 9 -5 0
-10 -7 -10 -16z"/>
<path d="M1900 1911 c0 -5 5 -13 10 -16 6 -3 10 -2 10 4 0 5 -4 13 -10 16 -5
3 -10 2 -10 -4z"/>
<path d="M1787 1903 c-4 -3 -7 -11 -7 -17 0 -6 5 -5 12 2 6 6 9 14 7 17 -3 3
-9 2 -12 -2z"/>
<path d="M2100 1830 c0 -5 5 -10 10 -10 6 0 10 5 10 10 0 6 -4 10 -10 10 -5 0
-10 -4 -10 -10z"/>
<path d="M1980 1772 c0 -10 7 -19 15 -19 8 0 15 9 15 19 0 10 -7 18 -15 18 -8
0 -15 -8 -15 -18z"/>
<path d="M2106 1765 c-3 -9 0 -15 9 -15 9 0 12 6 9 15 -4 8 -7 15 -9 15 -2 0
-5 -7 -9 -15z"/>
<path d="M1970 1728 c0 -5 66 -7 148 -6 148 2 130 5 -51 10 -53 2 -97 0 -97
-4z"/>
<path d="M1997 1673 c-4 -3 -7 -15 -7 -25 0 -10 -7 -18 -17 -18 -11 -1 -7 -6
12 -14 24 -10 26 -13 12 -19 -19 -7 -23 -27 -6 -27 5 0 7 5 4 10 -3 6 -1 10 4
10 6 0 11 -4 11 -10 0 -5 11 -10 24 -10 20 0 23 5 21 33 -3 50 -15 77 -34 77
-10 0 -21 -3 -24 -7z"/>
<path d="M2091 1666 c-13 -16 -21 -64 -14 -83 3 -7 20 -13 39 -13 32 0 34 2
34 36 0 62 -31 94 -59 60z"/>
<path d="M2180 1654 c-13 -34 -9 -86 6 -91 13 -4 32 39 36 82 4 41 -28 48 -42
9z"/>
<path d="M1907 1612 c-10 -10 -17 -33 -17 -50 0 -27 4 -32 25 -32 21 0 25 5
25 31 0 16 -4 28 -9 24 -5 -3 -13 0 -16 6 -4 6 2 13 14 16 11 3 18 9 15 14 -8
14 -19 11 -37 -9z"/>
<path d="M2237 1603 c-7 -39 -1 -40 11 -4 6 17 7 31 3 31 -5 0 -11 -12 -14
-27z"/>
<path d="M1950 1562 c0 -18 4 -32 8 -32 10 0 10 46 0 56 -5 4 -8 -7 -8 -24z"/>
<path d="M2062 1510 c0 -14 2 -19 5 -12 2 6 2 18 0 25 -3 6 -5 1 -5 -13z"/>
<path d="M2151 1504 c0 -11 3 -14 6 -6 3 7 2 16 -1 19 -3 4 -6 -2 -5 -13z"/>
<path d="M2040 1260 c0 -11 5 -20 10 -20 6 0 10 9 10 20 0 11 -4 20 -10 20 -5
0 -10 -9 -10 -20z"/>
<path d="M2151 1254 c0 -11 3 -14 6 -6 3 7 2 16 -1 19 -3 4 -6 -2 -5 -13z"/>
<path d="M2024 1146 c-12 -32 0 -59 29 -63 28 -4 34 8 21 41 -5 13 -9 14 -20
5 -11 -9 -14 -8 -14 4 0 8 6 18 13 20 7 3 5 6 -6 6 -10 1 -20 -5 -23 -13z"/>
<path d="M2206 1145 c-3 -8 -1 -15 4 -15 6 0 10 7 10 15 0 8 -2 15 -4 15 -2 0
-6 -7 -10 -15z"/>
<path d="M1836 1055 c-4 -10 1 -15 14 -15 11 0 19 -3 19 -7 -4 -24 3 -43 15
-43 15 0 32 37 22 47 -3 4 -6 1 -6 -5 0 -7 -5 -12 -10 -12 -6 0 -8 12 -4 28 4
22 3 24 -6 12 -9 -11 -13 -12 -17 -2 -6 16 -20 15 -27 -3z"/>
<path d="M1941 1034 c0 -11 3 -14 6 -6 3 7 2 16 -1 19 -3 4 -6 -2 -5 -13z"/>
<path d="M2091 1004 c0 -11 3 -14 6 -6 3 7 2 16 -1 19 -3 4 -6 -2 -5 -13z"/>
<path d="M2027 954 c-4 -4 -7 -16 -7 -26 0 -14 6 -19 23 -16 14 2 22 10 22 23
0 20 -25 32 -38 19z"/>
<path d="M2100 900 c-8 -11 -20 -20 -27 -20 -7 0 -13 -7 -13 -15 0 -11 11 -15
40 -15 39 0 39 1 38 35 -1 39 -16 45 -38 15z"/>
<path d="M2045 890 c3 -5 -1 -10 -9 -10 -9 0 -16 -7 -16 -15 0 -8 7 -15 15
-15 8 0 15 4 15 9 0 5 3 16 6 25 3 9 1 16 -6 16 -6 0 -8 -4 -5 -10z"/>
<path d="M2152 880 c0 -14 2 -19 5 -12 2 6 2 18 0 25 -3 6 -5 1 -5 -13z"/>
<path d="M2150 790 c0 -5 5 -10 11 -10 5 0 7 5 4 10 -3 6 -8 10 -11 10 -2 0
-4 -4 -4 -10z"/>
<path d="M2152 730 c0 -14 2 -19 5 -12 2 6 2 18 0 25 -3 6 -5 1 -5 -13z"/>
<path d="M2151 574 c0 -11 3 -14 6 -6 3 7 2 16 -1 19 -3 4 -6 -2 -5 -13z"/>
<path d="M1742 550 c0 -14 2 -19 5 -12 2 6 2 18 0 25 -3 6 -5 1 -5 -13z"/>
<path d="M3140 2150 c0 -5 5 -10 11 -10 5 0 7 5 4 10 -3 6 -8 10 -11 10 -2 0
-4 -4 -4 -10z"/>
<path d="M2505 2030 c3 -5 8 -10 11 -10 2 0 4 5 4 10 0 6 -5 10 -11 10 -5 0
-7 -4 -4 -10z"/>
<path d="M2590 2010 c-13 -8 -13 -10 0 -10 11 0 11 -3 2 -12 -15 -15 -16 -28
-2 -28 6 0 10 7 10 15 0 8 5 15 11 15 5 0 8 4 4 9 -3 5 5 12 17 14 22 4 22 4
-2 5 -14 1 -32 -3 -40 -8z"/>
<path d="M3265 2010 c3 -5 8 -10 11 -10 2 0 4 5 4 10 0 6 -5 10 -11 10 -5 0
-7 -4 -4 -10z"/>
<path d="M2372 1955 c0 -16 2 -22 5 -12 2 9 2 23 0 30 -3 6 -5 -1 -5 -18z"/>
<path d="M3061 1934 c0 -11 3 -14 6 -6 3 7 2 16 -1 19 -3 4 -6 -2 -5 -13z"/>
<path d="M2750 1830 c0 -5 18 -10 40 -10 22 0 40 5 40 10 0 6 -18 10 -40 10
-22 0 -40 -4 -40 -10z"/>
<path d="M2720 1660 c0 -5 7 -10 15 -10 8 0 15 5 15 10 0 6 -7 10 -15 10 -8 0
-15 -4 -15 -10z"/>
<path d="M3171 1394 c0 -11 3 -14 6 -6 3 7 2 16 -1 19 -3 4 -6 -2 -5 -13z"/>
<path d="M460 990 c0 -5 7 -7 15 -4 8 4 15 8 15 10 0 2 -7 4 -15 4 -8 0 -15
-4 -15 -10z"/>
<path d="M295 930 c-10 -11 -14 -20 -9 -20 5 0 15 9 22 20 7 11 11 20 9 20 -2
0 -12 -9 -22 -20z"/>
<path d="M2170 3155 c-3 -41 -4 -46 -18 -78 -7 -16 -12 -33 -12 -39 0 -6 -6
-29 -12 -52 l-13 -40 -11 39 -12 40 -1 -33 c-1 -18 -9 -50 -20 -72 -18 -38
-18 -38 2 -44 14 -3 18 -11 14 -25 -3 -15 0 -21 10 -21 11 0 14 7 9 25 -4 14
-2 25 4 25 5 0 10 -5 10 -12 0 -6 3 -8 6 -5 4 4 1 13 -6 22 -10 13 -9 15 7 15
16 0 19 -5 15 -25 -2 -14 -8 -25 -13 -25 -11 0 -7 -23 6 -32 6 -4 22 -8 38 -8
15 0 27 -4 27 -10 0 -5 -5 -9 -10 -7 -6 1 -18 -13 -26 -32 -12 -30 -12 -32 1
-21 12 10 15 10 15 -4 0 -15 -17 -21 -49 -17 -7 2 -10 -2 -6 -8 3 -6 15 -11
26 -11 13 0 19 -7 18 -22 0 -21 -1 -21 -8 -4 -5 12 -10 16 -14 9 -10 -16 2
-43 19 -43 10 0 14 -14 15 -47 1 -27 2 -52 4 -58 1 -5 3 -16 3 -23 2 -9 15
-11 50 -6 48 6 69 14 38 14 -16 0 -17 8 -12 73 3 39 8 95 11 122 5 44 3 53
-20 78 -20 21 -22 27 -9 27 11 0 14 5 9 18 -3 9 -13 42 -20 72 -8 30 -21 82
-31 115 -9 33 -20 83 -24 110 -6 38 -8 43 -10 20z m-20 -200 c0 -8 -4 -15 -8
-15 -5 0 -9 7 -9 15 0 8 4 15 9 15 4 0 8 -7 8 -15z m70 -5 c0 -5 -4 -10 -10
-10 -5 0 -10 5 -10 10 0 6 5 10 10 10 6 0 10 -4 10 -10z m-20 -180 c0 -5 -4
-10 -10 -10 -5 0 -10 5 -10 10 0 6 5 10 10 10 6 0 10 -4 10 -10z m57 -6 c-3
-3 -12 -4 -19 -1 -8 3 -5 6 6 6 11 1 17 -2 13 -5z m-56 -37 c-10 -9 -11 -8 -5
6 3 10 9 15 12 12 3 -3 0 -11 -7 -18z"/>
<path d="M2090 2710 c0 -6 7 -13 15 -16 8 -4 15 -16 16 -28 0 -12 3 -15 6 -8
3 8 0 25 -8 38 -13 25 -29 32 -29 14z"/>
<path d="M2080 2669 c0 -5 4 -8 9 -5 5 4 12 0 14 -6 3 -8 6 -6 6 5 1 9 -6 17
-14 17 -8 0 -15 -5 -15 -11z"/>
<path d="M1752 2640 c-20 -32 -15 -70 8 -70 17 0 19 6 17 39 -3 49 -9 56 -25
31z"/>
<path d="M1646 2565 c-3 -8 -1 -15 4 -15 6 0 10 7 10 15 0 8 -2 15 -4 15 -2 0
-6 -7 -10 -15z"/>
<path d="M1646 2525 c4 -8 10 -15 15 -15 5 0 9 7 9 15 0 8 -7 15 -15 15 -9 0
-12 -6 -9 -15z"/>
<path d="M2111 2514 c0 -11 3 -14 6 -6 3 7 2 16 -1 19 -3 4 -6 -2 -5 -13z"/>
<path d="M2050 2491 c0 -5 16 -11 35 -13 39 -5 34 6 -7 16 -16 3 -28 2 -28 -3z"/>
<path d="M2060 2459 c0 -9 9 -27 20 -40 l19 -24 0 30 c0 17 -3 24 -6 16 -4
-10 -9 -8 -19 10 -9 17 -13 19 -14 8z"/>
<path d="M2111 2424 c0 -11 3 -14 6 -6 3 7 2 16 -1 19 -3 4 -6 -2 -5 -13z"/>
<path d="M1545 2400 c-3 -5 1 -10 10 -10 9 0 13 5 10 10 -3 6 -8 10 -10 10 -2
0 -7 -4 -10 -10z"/>
<path d="M1960 2360 c0 -5 5 -10 10 -10 6 0 10 5 10 10 0 6 -4 10 -10 10 -5 0
-10 -4 -10 -10z"/>
<path d="M2302 2260 c0 -14 2 -19 5 -12 2 6 2 18 0 25 -3 6 -5 1 -5 -13z"/>
<path d="M1562 1895 c0 -16 2 -22 5 -12 2 9 2 23 0 30 -3 6 -5 -1 -5 -18z"/>
<path d="M1592 1835 c0 -16 2 -22 5 -12 2 9 2 23 0 30 -3 6 -5 -1 -5 -18z"/>
<path d="M1510 1796 c0 -2 14 -6 30 -8 17 -3 30 -1 30 4 0 4 -13 8 -30 8 -16
0 -30 -2 -30 -4z"/>
<path d="M1492 1745 c0 -16 2 -22 5 -12 2 9 2 23 0 30 -3 6 -5 -1 -5 -18z"/>
<path d="M1520 1683 c8 -3 21 -11 29 -17 11 -8 13 -8 8 1 -4 6 -1 14 5 16 7 3
-3 5 -22 5 -19 0 -28 -2 -20 -5z"/>
<path d="M1374 1589 c-4 -7 -3 -9 4 -5 5 3 13 0 15 -6 4 -9 6 -10 6 -1 1 17
-16 25 -25 12z"/>
<path d="M1154 1470 c0 -11 6 -22 13 -24 8 -4 13 3 13 19 0 14 -6 25 -13 25
-7 0 -13 -9 -13 -20z"/>
<path d="M3466 1426 c7 -19 38 -22 32 -3 -3 6 -12 13 -21 15 -12 2 -15 -1 -11
-12z"/>
<path d="M1160 1340 c0 -11 5 -20 10 -20 6 0 10 9 10 20 0 11 -4 20 -10 20 -5
0 -10 -9 -10 -20z"/>
<path d="M1211 1294 c0 -11 3 -14 6 -6 3 7 2 16 -1 19 -3 4 -6 -2 -5 -13z"/>
<path d="M1250 1276 c1 -26 3 -29 13 -16 7 9 20 14 30 12 11 -2 17 3 17 16 0
14 -7 19 -30 19 -27 0 -30 -4 -30 -31z"/>
<path d="M65 1251 c-1 -16 3 -27 7 -25 5 3 6 10 3 15 -4 5 1 12 10 15 13 6 14
8 3 15 -20 13 -23 11 -23 -20z"/>
<path d="M1288 1253 c6 -2 18 -2 25 0 6 3 1 5 -13 5 -14 0 -19 -2 -12 -5z"/>
<path d="M1257 1203 c-11 -11 -8 -63 4 -63 6 0 14 10 17 23 6 22 6 22 12 -3
l6 -25 6 28 c4 23 2 27 -16 27 -17 0 -18 2 -6 10 13 8 13 10 -1 10 -9 0 -19
-3 -22 -7z"/>
<path d="M21 1124 c0 -11 3 -14 6 -6 3 7 2 16 -1 19 -3 4 -6 -2 -5 -13z"/>
<path d="M57 1123 c-10 -3 -16 -12 -15 -21 2 -12 -4 -17 -20 -16 -29 1 -23
-20 7 -24 13 -2 21 1 17 6 -7 11 40 26 54 17 6 -4 6 3 1 16 -9 25 -17 29 -44
22z m21 -17 c-7 -8 -17 -12 -22 -9 -4 3 -2 9 5 14 22 13 31 11 17 -5z"/>
<path d="M1175 1090 c-3 -5 1 -10 10 -10 9 0 13 5 10 10 -3 6 -8 10 -10 10 -2
0 -7 -4 -10 -10z"/>
<path d="M70 1065 c0 -5 5 -17 10 -25 5 -8 10 -10 10 -5 0 6 -5 17 -10 25 -5
8 -10 11 -10 5z"/>
<path d="M1470 1045 c0 -14 -4 -25 -10 -25 -5 0 -10 -7 -10 -15 0 -18 26 -20
33 -2 4 10 6 10 6 0 1 -18 21 -16 21 2 0 8 -5 15 -10 15 -6 0 -10 6 -9 13 3
23 -1 37 -11 37 -5 0 -10 -11 -10 -25z"/>
<path d="M1510 1060 c0 -5 7 -10 16 -10 8 0 12 5 9 10 -3 6 -10 10 -16 10 -5
0 -9 -4 -9 -10z"/>
<path d="M16 1018 c-5 -23 3 -22 34 1 l24 19 -26 -1 c-16 -1 -29 -9 -32 -19z"/>
<path d="M38 993 c-10 -2 -18 -9 -18 -14 0 -6 10 -5 23 2 37 20 36 23 -5 12z"/>
<path d="M946 967 c3 -10 9 -15 12 -12 3 3 0 11 -7 18 -10 9 -11 8 -5 -6z"/>
<path d="M1228 964 c6 -3 10 -10 6 -15 -3 -5 2 -9 11 -9 23 0 13 24 -11 27
-10 2 -13 0 -6 -3z"/>
<path d="M185 940 c3 -5 11 -10 16 -10 6 0 7 5 4 10 -3 6 -11 10 -16 10 -6 0
-7 -4 -4 -10z"/>
<path d="M970 939 c0 -5 5 -7 10 -4 6 3 10 8 10 11 0 2 -4 4 -10 4 -5 0 -10
-5 -10 -11z"/>
<path d="M160 919 c0 -5 5 -7 10 -4 6 3 10 8 10 11 0 2 -4 4 -10 4 -5 0 -10
-5 -10 -11z"/>
<path d="M989 896 c-7 -20 -17 -36 -21 -36 -5 0 -4 9 1 19 8 14 7 20 -3 24
-15 6 -30 -19 -20 -34 3 -5 -2 -9 -11 -9 -9 0 -14 4 -10 10 3 5 -7 8 -24 7
-23 -2 -27 -5 -18 -16 9 -10 6 -18 -12 -32 -13 -11 -20 -19 -15 -19 4 0 18 10
31 22 17 16 26 19 34 11 6 -6 19 -9 28 -6 13 5 14 3 4 -7 -10 -11 -15 -11 -28
0 -12 10 -15 10 -15 -3 0 -16 26 -30 41 -21 10 6 12 -9 2 -19 -3 -4 -8 -26
-10 -50 -5 -62 -8 -76 -21 -89 -19 -19 -14 -28 14 -28 24 0 25 2 13 17 -10 12
-10 14 -1 9 7 -4 14 -1 18 7 3 8 14 17 25 20 13 3 19 14 19 32 0 19 6 29 21
32 16 5 18 8 7 15 -10 7 -10 11 0 15 14 6 17 153 3 153 -5 0 -16 3 -24 6 -11
4 -19 -5 -28 -30z"/>
<path d="M863 903 c9 -2 23 -2 30 0 6 3 -1 5 -18 5 -16 0 -22 -2 -12 -5z"/>
<path d="M1060 802 c0 -12 4 -22 9 -22 10 0 9 26 -2 36 -4 4 -7 -2 -7 -14z"/>
<path d="M604 752 c-14 -9 -27 -45 -14 -37 16 10 12 -11 -5 -25 -8 -7 -13 -16
-10 -20 3 -5 0 -12 -6 -16 -8 -4 -9 -3 -5 4 4 7 2 12 -3 12 -12 0 -9 -35 4
-47 4 -5 5 -2 1 5 -4 7 -1 15 8 18 9 3 16 11 16 17 0 6 19 32 43 57 30 32 32
36 8 15 l-34 -30 5 28 c3 15 5 27 4 27 0 0 -6 -4 -12 -8z"/>
<path d="M546 697 c3 -10 9 -15 12 -12 3 3 0 11 -7 18 -10 9 -11 8 -5 -6z"/>
<path d="M1061 644 c0 -11 3 -14 6 -6 3 7 2 16 -1 19 -3 4 -6 -2 -5 -13z"/>
<path d="M525 610 c10 -11 20 -20 22 -20 2 0 -2 9 -9 20 -7 11 -17 20 -22 20
-5 0 -1 -9 9 -20z"/>
<path d="M652 625 c4 -5 3 -14 -3 -21 -9 -10 -7 -15 4 -20 18 -6 37 2 37 16 0
5 -10 15 -22 21 -13 6 -20 8 -16 4z"/>
<path d="M615 609 c-4 -6 -5 -12 -2 -15 2 -3 7 2 10 11 7 17 1 20 -8 4z"/>
<path d="M1028 594 c4 -20 0 -26 -18 -31 l-24 -6 24 -9 c28 -10 29 -10 34 35
4 26 1 37 -8 37 -9 0 -12 -9 -8 -26z"/>
<path d="M910 601 c0 -5 7 -11 15 -15 8 -3 15 -1 15 3 0 5 -7 11 -15 15 -8 3
-15 1 -15 -3z"/>
<path d="M890 566 c0 -9 5 -16 11 -16 5 0 7 5 3 12 -4 7 -3 8 5 4 6 -4 9 -11
6 -16 -3 -4 2 -21 10 -36 8 -16 15 -26 15 -22 0 4 12 3 28 -2 l27 -10 -25 20
-25 21 24 -6 c16 -5 21 -4 17 4 -4 6 -14 11 -22 11 -8 0 -14 5 -14 11 0 5 5 7
10 4 6 -3 10 -2 10 4 0 13 -8 17 -47 26 -26 5 -33 3 -33 -9z"/>
<path d="M758 542 c-10 -2 -18 -8 -18 -13 0 -6 4 -8 9 -4 5 3 12 1 15 -4 8
-12 -12 -25 -40 -27 -48 -2 -71 -25 -38 -38 8 -3 12 -2 9 4 -3 6 1 10 9 10 26
0 30 1 44 12 8 8 12 7 12 -3 1 -9 4 -8 11 4 7 12 17 16 31 11 14 -4 18 -2 14
5 -4 6 -13 11 -21 11 -7 0 -15 8 -17 18 -2 11 -10 16 -20 14z"/>
<path d="M475 530 c-3 -5 -1 -10 4 -10 6 0 11 5 11 10 0 6 -2 10 -4 10 -3 0
-8 -4 -11 -10z"/>
<path d="M890 531 c0 -5 7 -12 16 -15 14 -5 15 -4 4 9 -14 17 -20 19 -20 6z"/>
<path d="M850 517 c-14 -11 -25 -37 -16 -37 2 0 11 11 20 25 18 28 18 30 -4
12z"/>
<path d="M1021 517 c-11 -14 -11 -20 0 -34 10 -11 10 -14 2 -9 -7 4 -13 2 -13
-3 0 -16 20 -13 26 3 3 8 4 25 2 37 -3 20 -4 21 -17 6z"/>
<path d="M487 496 c-3 -8 -3 -16 0 -19 9 -10 33 5 33 19 0 18 -26 18 -33 0z"/>
<path d="M635 480 c-3 -5 -2 -10 4 -10 5 0 13 5 16 10 3 6 2 10 -4 10 -5 0
-13 -4 -16 -10z"/>
<path d="M793 447 c-28 -19 -59 -58 -34 -42 5 3 12 -1 14 -7 3 -8 6 -6 6 5 1
9 4 17 9 17 4 0 15 12 25 25 21 30 21 30 -20 2z"/>
<path d="M713 445 c0 -8 4 -12 9 -9 4 3 8 9 8 15 0 5 -4 9 -8 9 -5 0 -9 -7 -9
-15z"/>
<path d="M596 442 c-2 -4 -1 -14 5 -22 7 -12 9 -10 9 8 0 23 -5 28 -14 14z"/>
<path d="M832 439 c-20 -8 -21 -11 -11 -31 11 -20 10 -21 -3 -11 -13 11 -15 7
-15 -25 0 -26 1 -30 5 -12 l5 25 6 -25 c5 -19 13 -24 36 -25 24 0 29 -4 27
-19 -3 -18 -2 -18 13 -2 13 13 14 20 6 30 -9 11 -9 15 1 19 10 3 8 9 -5 25
-11 12 -14 23 -9 26 6 3 13 0 16 -6 3 -7 5 -4 3 6 -2 23 -43 37 -75 25z"/>
<path d="M674 424 c3 -8 1 -16 -4 -19 -6 -4 -10 -11 -10 -17 0 -6 9 1 20 15
24 30 25 34 5 34 -9 0 -14 -6 -11 -13z"/>
<path d="M722 380 c0 -19 2 -27 5 -17 2 9 2 25 0 35 -3 9 -5 1 -5 -18z"/>
<path d="M980 385 c0 -17 36 -39 50 -30 13 8 13 25 -1 25 -5 0 -7 -4 -4 -10 3
-5 1 -10 -5 -10 -7 0 -14 9 -17 20 -6 23 -23 27 -23 5z"/>
<path d="M1165 371 c-3 -6 -3 -11 2 -11 4 0 1 -5 -7 -11 -12 -8 -10 -9 10 -7
14 2 25 9 25 17 0 18 -21 26 -30 12z"/>
<path d="M665 360 c-3 -5 -2 -10 4 -10 5 0 13 5 16 10 3 6 2 10 -4 10 -5 0
-13 -4 -16 -10z"/>
<path d="M1260 300 c0 -5 4 -10 9 -10 6 0 13 5 16 10 3 6 -1 10 -9 10 -9 0
-16 -4 -16 -10z"/>
<path d="M1315 290 c-3 -5 1 -10 10 -10 9 0 13 5 10 10 -3 6 -8 10 -10 10 -2
0 -7 -4 -10 -10z"/>
<path d="M850 282 c0 -5 7 -13 16 -16 10 -4 14 -1 12 6 -5 15 -28 23 -28 10z"/>
<path d="M1250 269 c0 -5 5 -7 10 -4 6 3 10 8 10 11 0 2 -4 4 -10 4 -5 0 -10
-5 -10 -11z"/>
<path d="M1055 150 c-3 -5 -1 -10 4 -10 6 0 11 5 11 10 0 6 -2 10 -4 10 -3 0
-8 -4 -11 -10z"/>
</g>
</svg>
