<?xml version="1.0" standalone="no"?>
<!DOCTYPE svg PUBLIC "-//W3C//DTD SVG 20010904//EN"
 "http://www.w3.org/TR/2001/REC-SVG-20010904/DTD/svg10.dtd">
<svg version="1.0" xmlns="http://www.w3.org/2000/svg"
 width="1496.000000pt" height="750.000000pt" viewBox="0 0 1496.000000 750.000000"
 preserveAspectRatio="xMidYMid meet">

<g transform="translate(0.000000,750.000000) scale(0.100000,-0.100000)"
fill="#000000" stroke="none">
<path d="M0 6853 c1 -646 1 -648 20 -624 19 22 21 22 45 7 27 -18 39 -21 30
-7 -8 14 15 25 27 13 6 -6 6 -12 -1 -16 -6 -4 -11 -27 -11 -51 0 -36 -5 -48
-25 -61 -30 -19 -48 -9 -70 40 -11 26 -13 -459 -14 -3061 l-1 -3093 1750 0
c1196 0 1750 3 1750 10 0 6 -10 14 -22 19 -23 9 -23 9 5 22 24 11 30 11 38 -2
5 -8 9 -22 9 -31 0 -17 34 -18 565 -18 l566 0 -7 48 c-6 47 -5 49 25 62 18 7
34 10 37 7 3 -3 -4 -8 -15 -12 -22 -7 -27 -37 -15 -82 6 -22 11 -23 105 -23
l99 0 -6 28 c-14 62 -15 64 -40 58 -32 -8 -30 0 4 18 35 18 48 11 56 -34 15
-74 9 -70 107 -70 49 0 89 3 89 8 0 4 -13 59 -28 122 l-28 115 -29 -3 c-33 -4
-26 8 17 26 15 6 29 8 32 4 3 -5 16 -60 31 -123 14 -62 28 -122 31 -132 5 -16
55 -17 915 -17 l909 1 0 22 c1 29 20 53 50 61 24 6 24 6 -2 -9 -21 -12 -28
-23 -28 -45 0 -30 0 -30 59 -30 51 0 61 3 66 20 3 11 11 20 16 20 6 0 7 -9 4
-21 -6 -18 -3 -20 32 -17 33 3 38 6 38 28 0 20 -6 26 -30 31 l-30 6 28 8 c23
6 33 3 50 -14 18 -18 20 -24 9 -41 -11 -19 -10 -20 27 -20 l39 0 -13 60 c-12
56 -11 60 6 60 15 0 19 -8 19 -37 0 -21 3 -48 6 -60 l6 -23 3829 0 3829 0 0
3750 0 3750 -3739 0 c-2483 0 -3742 -3 -3746 -10 -3 -5 -15 -10 -26 -10 -10 0
-19 5 -19 10 0 6 -54 10 -143 10 l-143 0 4 -38 c4 -40 -26 -92 -54 -92 -17 0
-19 21 -3 37 7 7 8 26 4 52 -7 41 -7 41 -52 41 l-45 0 7 -40 c4 -21 4 -44 0
-50 -12 -19 -33 8 -40 51 -7 38 -9 40 -38 37 -35 -3 -34 -2 -21 -85 6 -39 4
-43 -14 -43 -16 0 -22 10 -31 50 -6 28 -11 58 -11 65 0 8 -7 15 -15 15 -8 0
-15 -7 -15 -15 0 -12 -10 -15 -42 -13 l-43 3 0 -84 c0 -55 -4 -86 -12 -88 -16
-6 -21 6 -38 93 -15 81 -14 89 20 97 11 3 -321 5 -739 6 l-758 1 5 -42 c6 -53
32 -123 57 -156 23 -28 18 -42 -14 -42 -30 0 -54 28 -67 76 -6 22 -18 46 -26
56 -11 12 -13 28 -8 62 l7 46 -583 0 c-485 -1 -587 -3 -602 -15 -11 -7 -25
-11 -32 -8 -8 2 -37 -7 -65 -21 -28 -14 -60 -26 -70 -26 -10 0 -21 -4 -24 -9
-3 -5 -24 -11 -46 -13 -43 -4 -45 -2 -52 62 -3 22 -8 25 -47 28 l-44 3 6 -37
c3 -20 13 -45 22 -54 9 -10 15 -27 13 -37 -8 -43 -82 -16 -94 35 -3 15 -16 42
-28 59 l-21 33 -1637 0 c-901 0 -1638 -3 -1638 -8 0 -4 6 -16 14 -27 11 -16
11 -31 1 -80 -12 -62 -31 -79 -60 -55 -11 9 -11 17 2 50 15 37 15 42 0 58 -10
10 -17 28 -17 40 0 21 -5 22 -80 22 l-80 0 0 -647z m3464 588 c-5 -28 -1 -47
12 -69 14 -26 15 -33 5 -46 -8 -9 -23 -16 -34 -16 -11 0 -28 -7 -38 -16 -27
-24 -57 -3 -57 40 0 19 -7 45 -16 57 -22 32 -5 56 52 73 77 24 83 22 76 -23z
m1364 -13 c42 -44 64 -101 64 -168 1 -67 -27 -142 -51 -138 -17 4 -17 8 -5
109 8 69 -6 116 -46 155 -28 28 -37 53 -23 67 13 14 30 6 61 -25z m1818 -28
c20 -83 18 -120 -5 -120 -10 0 -24 -7 -31 -15 -7 -8 -27 -15 -45 -15 -37 0
-47 15 -64 99 -10 45 -9 57 3 69 12 12 15 12 24 -4 5 -11 13 -38 17 -61 3 -22
13 -49 21 -60 14 -17 15 -17 30 2 12 16 14 34 9 93 -6 67 -5 74 11 70 12 -2
21 -20 30 -58z m-275 9 c8 -17 17 -20 40 -15 38 7 40 -16 3 -33 -25 -11 -26
-15 -20 -58 8 -57 20 -73 57 -73 38 0 37 -14 -1 -30 -46 -19 -76 -1 -91 52 -6
24 -13 49 -15 56 -2 8 -13 16 -24 19 -24 6 -25 16 -5 33 8 7 15 22 15 35 0 39
23 47 41 14z m-3073 -30 c4 -34 -21 -59 -59 -59 -32 0 -36 -6 -15 -29 7 -9 17
-26 20 -38 6 -19 2 -25 -20 -33 -34 -13 -58 -5 -84 27 -56 72 8 167 110 161
40 -3 45 -6 48 -29z m1361 22 c11 -7 11 -15 2 -41 -25 -74 -3 -179 48 -224 24
-22 28 -54 7 -62 -24 -9 -75 37 -102 93 -22 44 -26 63 -22 111 5 57 30 132 45
132 4 0 14 -4 22 -9z m-1645 -27 c17 -16 20 -36 17 -94 -2 -23 5 -45 18 -62
27 -34 26 -46 -4 -60 -19 -8 -28 -8 -40 2 -19 16 -59 100 -74 153 -9 37 -8 39
22 58 39 23 41 23 61 3z m3270 -87 c26 -36 15 -56 -43 -75 -57 -19 -54 -47 6
-47 54 0 62 -10 24 -29 -51 -27 -88 -21 -111 17 -45 73 -5 171 68 165 25 -2
41 -11 56 -31z m-3389 -7 c3 -5 8 -18 10 -27 2 -10 8 -37 13 -59 11 -47 1 -74
-27 -74 -18 0 -41 37 -41 65 0 18 -29 20 -31 3 -1 -7 -1 -33 1 -57 1 -33 -1
-42 -12 -39 -7 3 -54 -16 -105 -42 -115 -59 -151 -57 -166 10 -3 14 -8 35 -12
47 -5 17 0 29 21 49 35 32 63 44 129 55 35 6 56 16 71 34 25 32 135 58 149 35z
m1627 -27 c18 -20 43 -127 33 -143 -18 -30 -44 1 -59 71 -6 27 -30 44 -48 33
-5 -3 -8 -38 -6 -77 3 -73 -6 -91 -34 -63 -17 16 -30 10 -46 -21 -15 -27 -95
-68 -116 -60 -24 10 -56 68 -56 104 0 22 10 43 29 65 27 31 34 33 88 32 55 -1
60 1 76 27 11 20 24 29 42 29 14 0 25 5 25 10 0 17 56 11 72 -7z m1572 1 c30
-29 20 -45 -26 -42 l-43 3 3 -81 c2 -65 -1 -83 -13 -88 -18 -7 -29 14 -44 82
-14 69 -14 102 2 102 6 1 30 9 52 20 49 24 50 24 69 4z m-401 -46 c2 -7 0 -21
-5 -31 -24 -47 16 -253 55 -282 24 -17 22 -45 -4 -45 -38 0 -57 19 -73 74 -9
30 -23 56 -31 60 -16 6 -21 41 -6 50 5 3 6 35 4 71 -5 50 -2 70 11 90 18 27
41 33 49 13z m3127 -26 c59 -58 72 -127 44 -223 -29 -98 -54 -96 -32 3 8 35
13 79 11 98 -5 37 -41 108 -67 130 -9 7 -16 16 -16 21 0 19 24 7 60 -29z m188
5 c3 -22 -1 -27 -17 -27 -17 0 -21 6 -21 31 0 24 4 30 18 27 10 -2 18 -14 20
-31z m-4933 13 c8 -13 -14 -42 -26 -34 -5 3 -9 14 -9 25 0 20 24 26 35 9z
m4588 -67 c8 -41 -19 -55 -33 -17 -13 34 -13 51 3 57 17 6 23 -3 30 -40z
m-6429 11 c35 -13 11 -64 -30 -64 -32 0 -40 31 -14 52 25 20 23 20 44 12z
m1856 -24 c11 -6 21 -27 25 -52 4 -24 14 -52 21 -63 23 -32 17 -64 -13 -76
-44 -16 -53 -6 -53 59 0 41 -5 64 -15 72 -8 7 -15 22 -15 35 0 35 16 43 50 25z
m-1644 -11 c3 -6 1 -16 -5 -22 -21 -21 -13 -64 16 -85 31 -23 26 -47 -13 -62
-56 -22 -109 59 -83 127 17 44 68 69 85 42z m6600 -73 c-4 -16 -14 -38 -23
-48 -17 -19 -43 -24 -43 -8 0 6 4 10 9 10 15 0 20 39 8 71 -10 24 -9 32 3 39
23 15 53 -27 46 -64z m-5140 39 c12 -19 14 -31 7 -52 -13 -36 -1 -79 29 -103
19 -15 21 -22 12 -37 -7 -11 -20 -17 -35 -15 -32 5 -46 18 -54 50 -3 14 -15
45 -26 69 -22 48 -24 84 -7 101 20 20 56 14 74 -13z m4566 -20 c4 -21 6 -21
51 -10 40 10 34 -11 -8 -25 -19 -6 -35 -13 -35 -15 0 -24 25 -112 33 -117 6
-4 24 -4 39 -1 40 8 35 -13 -7 -27 -48 -16 -71 -1 -80 52 -9 51 -23 81 -35 73
-5 -3 -12 0 -16 6 -4 6 1 16 10 21 9 5 16 21 16 37 0 47 23 51 32 6z m-3170
-25 c42 -32 71 -106 71 -177 -1 -67 -28 -138 -53 -138 -17 0 -18 25 -3 95 13
63 -1 120 -42 168 -19 22 -35 47 -35 56 0 22 32 20 62 -4z m-1585 -51 c8 -8 6
-16 -8 -30 -10 -10 -19 -29 -19 -42 0 -31 27 -67 51 -67 23 0 24 -8 2 -32 -21
-24 -44 -23 -77 3 l-26 21 -11 -31 c-17 -49 -44 -41 -64 19 -12 37 -22 50 -36
50 -22 0 -30 -27 -27 -90 3 -43 2 -45 -24 -43 -21 1 -34 -7 -54 -33 -19 -24
-34 -34 -54 -34 -16 0 -30 -6 -33 -12 -3 -10 -11 -10 -33 -3 -24 9 -33 22 -51
75 -24 68 -20 84 18 78 17 -2 25 -12 30 -38 8 -35 35 -64 52 -53 5 3 7 31 4
65 -5 62 5 78 52 78 10 0 28 12 38 26 10 14 30 27 43 29 14 2 38 7 53 11 19 5
33 1 47 -11 21 -19 50 -14 50 9 0 14 48 66 60 66 3 0 11 -5 17 -11z m4446 -3
c6 -15 -11 -36 -29 -36 -18 0 -27 32 -12 42 19 12 35 10 41 -6z m222 -16 c23
-25 28 -131 7 -138 -6 -2 -10 -8 -7 -12 3 -5 -11 -14 -31 -22 -35 -12 -35 -13
-29 -56 6 -38 4 -43 -11 -40 -14 2 -22 27 -40 123 -12 66 -20 123 -17 128 2 4
12 7 21 7 9 0 26 7 36 15 27 21 50 19 71 -5z m-3197 -52 c17 -21 35 -129 24
-140 -17 -17 -29 -1 -42 51 -6 28 -18 55 -26 62 -8 6 -14 18 -14 25 0 18 44
18 58 2z m2996 -80 c10 -55 14 -63 34 -62 12 0 22 -3 22 -8 0 -11 -102 -57
-112 -51 -14 8 -8 22 12 28 17 5 19 12 14 48 -10 64 -22 90 -39 83 -8 -3 -17
-1 -20 5 -8 12 57 40 69 29 5 -5 14 -37 20 -72z m-3078 20 c-1 -29 2 -64 6
-78 4 -14 3 -32 -2 -40 -15 -24 -30 0 -47 74 -16 71 -9 96 27 96 14 0 16 -9
16 -52z m-1941 -150 l6 -88 -24 0 c-25 0 -37 16 -37 50 0 9 -6 23 -14 29 -41
34 -24 153 23 169 25 8 26 7 33 -32 4 -23 10 -80 13 -128z m-1285 142 c-26
-20 -70 -27 -70 -11 0 11 46 29 75 30 18 1 18 -1 -5 -19z m6163 6 c18 -14 23
-46 7 -46 -6 0 -19 6 -31 13 -17 10 -22 9 -39 -13 -15 -19 -18 -33 -13 -60 12
-60 9 -95 -7 -95 -9 0 -18 21 -27 65 -7 36 -15 75 -18 88 -3 14 -1 22 7 22 7
1 31 9 53 20 48 23 45 23 68 6z m-3037 -21 c10 -16 17 -48 18 -83 1 -55 0 -57
-27 -60 -25 -3 -27 -1 -22 21 4 14 2 28 -4 31 -6 4 -11 22 -11 39 0 18 -4 39
-9 47 -6 8 -7 18 -5 22 11 17 44 7 60 -17z m-195 -16 c6 -12 9 -37 6 -55 -4
-25 1 -42 19 -70 22 -32 24 -39 11 -51 -13 -13 -19 -11 -47 17 -40 39 -55 34
-55 -16 0 -28 -5 -39 -17 -42 -12 -2 -20 10 -31 50 -25 90 -30 143 -13 157 20
17 41 2 41 -28 0 -31 31 -53 45 -31 6 10 3 25 -11 46 -15 24 -16 33 -7 37 27
11 48 6 59 -14z m-4627 -41 c21 -60 -22 -106 -73 -78 -27 14 -27 50 2 83 28
33 59 31 71 -5z m7684 5 c2 -8 -6 -13 -21 -13 -32 0 -48 -20 -54 -69 -5 -34
-2 -41 19 -55 25 -16 58 -13 58 5 0 5 6 9 14 9 9 0 12 -7 9 -20 -6 -23 -64
-44 -94 -35 -21 7 -49 59 -49 91 0 29 33 86 54 94 28 12 58 8 64 -7z m-6348
-60 c28 -36 26 -79 -4 -98 -22 -15 -27 -15 -54 -1 -35 18 -82 78 -82 105 0 11
11 29 26 40 l25 20 35 -21 c19 -11 43 -31 54 -45z m-252 4 c6 -23 9 -52 6 -64
-4 -13 2 -32 16 -51 24 -32 21 -66 -6 -76 -21 -8 -48 12 -69 51 -39 72 -67 67
-84 -15 -19 -88 -21 -93 -47 -102 -31 -12 -49 -5 -62 26 -9 18 -19 24 -45 24
-37 0 -78 -32 -57 -45 14 -9 -22 -50 -63 -71 -46 -24 -87 11 -87 75 0 36 38
78 78 87 15 4 38 13 51 22 14 8 56 16 100 18 54 3 78 8 84 19 4 8 12 15 18 15
26 0 56 44 58 88 1 14 55 41 82 42 11 0 20 -14 27 -43z m3666 9 c-3 -8 -1 -17
5 -21 6 -3 11 -15 11 -26 0 -14 -7 -19 -29 -19 -26 0 -41 14 -41 41 0 5 9 18
20 29 22 22 43 19 34 -4z m2547 -33 c9 -44 -13 -63 -35 -31 -26 37 -19 72 13
66 8 -2 18 -18 22 -35z m-2847 5 c22 -34 41 -117 29 -129 -19 -19 -41 2 -47
46 -4 23 -16 51 -26 60 -15 14 -17 21 -9 32 17 19 37 16 53 -9z m3054 5 c2 -9
-7 -13 -27 -13 -20 0 -34 -6 -38 -16 -8 -21 13 -34 55 -34 25 0 35 -6 44 -25
10 -21 8 -30 -9 -53 -25 -33 -90 -53 -103 -31 -7 11 -2 15 26 20 60 10 69 49
12 49 -36 0 -68 24 -68 52 0 30 46 70 77 66 15 -2 28 -9 31 -15z m-3136 -88
c4 -44 5 -81 2 -84 -3 -3 -13 0 -22 5 -23 15 -39 128 -21 150 23 27 34 8 41
-71z m2765 28 c-3 -16 -10 -50 -16 -77 -14 -64 0 -116 45 -165 33 -37 45 -71
24 -71 -6 0 -30 20 -54 44 -65 65 -77 154 -36 264 15 41 45 45 37 5z m-2855
-34 c22 -48 27 -90 14 -111 -15 -24 -46 -23 -46 1 0 11 -4 23 -10 26 -5 3 -10
20 -10 36 0 17 -5 40 -11 51 -9 16 -8 23 2 29 24 15 43 5 61 -32z m1522 19
c13 -22 -14 -54 -38 -45 -16 6 -22 48 -9 61 11 11 35 3 47 -16z m-3170 -49
c-8 -13 -67 -39 -89 -39 -26 0 -16 20 18 35 39 17 81 20 71 4z m1471 -23 c19
-44 32 -52 54 -32 27 24 38 20 51 -20 13 -40 1 -59 -31 -48 -9 2 -34 -3 -55
-12 -22 -9 -50 -21 -64 -27 -14 -5 -33 -13 -42 -18 -10 -5 -26 -9 -37 -9 -11
0 -33 -12 -50 -26 -46 -38 -58 -28 -63 58 -5 75 2 98 31 98 10 0 26 8 37 18
20 18 105 50 137 51 11 1 23 -12 32 -33z m1561 10 c26 -40 15 -68 -31 -80 -29
-9 -41 -17 -43 -34 -3 -20 1 -22 37 -22 46 0 54 -16 15 -30 -56 -22 -101 0
-119 58 -25 83 96 175 141 108z m1262 -21 c12 -26 26 -32 37 -15 8 13 35 13
35 -1 0 -5 -14 -15 -31 -21 -30 -10 -31 -12 -24 -57 10 -69 21 -84 56 -77 33
6 39 -8 10 -24 -51 -27 -84 0 -97 78 -6 36 -10 42 -30 42 -29 0 -31 15 -4 30
11 6 17 16 14 25 -7 18 2 45 14 45 5 0 14 -11 20 -25z m-1441 -27 c14 -17 37
-144 29 -157 -3 -5 -20 -12 -36 -16 -17 -4 -30 -11 -30 -16 0 -14 -56 -10 -69
5 -20 24 -45 136 -33 148 20 20 41 0 47 -46 9 -56 26 -82 50 -73 15 6 16 16
10 87 -6 67 -5 80 8 80 8 0 19 -6 24 -12z m356 -25 c12 -39 -17 -96 -51 -101
-23 -4 -32 21 -12 33 7 4 8 26 4 57 l-7 50 29 -4 c22 -2 30 -10 37 -35z
m-3583 3 c6 -8 17 -37 25 -65 11 -42 11 -52 -1 -62 -22 -18 -42 -3 -54 39 -20
78 -62 55 -53 -29 5 -45 5 -46 -37 -68 -23 -12 -49 -29 -58 -37 -8 -9 -25 -14
-39 -11 -13 2 -26 0 -29 -4 -8 -13 -73 -39 -98 -39 -11 0 -30 -7 -40 -15 -11
-8 -28 -13 -38 -9 -11 3 -20 -1 -24 -10 -3 -9 -17 -16 -30 -16 -14 0 -41 -11
-62 -23 -34 -22 -73 -33 -147 -42 -16 -2 -45 -7 -63 -11 -41 -8 -68 14 -82 66
-21 80 31 134 87 90 19 -15 29 -17 34 -9 8 14 29 3 29 -15 0 -20 40 -67 51
-61 5 4 9 30 9 58 1 54 24 97 53 97 8 0 20 7 27 16 23 27 96 50 146 45 6 -1
25 -15 43 -31 25 -24 37 -29 59 -24 42 10 44 13 25 44 -16 28 -16 30 2 50 12
13 31 20 56 20 31 0 43 6 61 30 18 25 27 30 49 25 15 -4 30 -1 34 4 9 16 51
13 65 -3z m1467 -22 c9 -8 27 -14 41 -12 22 3 27 -3 40 -42 8 -25 22 -50 29
-55 19 -14 6 -45 -18 -45 -10 0 -19 4 -19 9 0 22 -31 19 -42 -4 -28 -62 -88 5
-86 97 1 66 22 85 55 52z m1571 -16 c7 -7 12 -20 12 -30 0 -16 -5 -18 -35 -12
-30 5 -36 3 -44 -18 -5 -15 -5 -44 1 -77 8 -37 8 -55 0 -63 -20 -20 -40 1 -51
54 -7 29 -14 62 -17 74 -7 27 19 54 52 54 13 0 24 4 24 9 0 8 12 14 41 20 3 0
10 -4 17 -11z m1530 -10 c10 -14 32 -106 32 -138 0 -11 -6 -20 -14 -20 -9 0
-18 20 -26 53 -19 84 -20 87 -40 87 -25 0 -32 -28 -28 -105 6 -111 -25 -71
-46 61 -6 37 -4 40 26 55 41 20 82 23 96 7z m-3224 -45 c24 -33 29 -130 7
-138 -18 -7 -26 2 -41 48 -14 46 -26 47 -47 2 -18 -38 -43 -47 -43 -16 0 10
-7 24 -15 31 -24 20 -30 -14 -10 -57 23 -48 29 -169 9 -177 -22 -8 -44 4 -49
28 -28 121 -31 156 -19 186 7 16 19 30 27 30 7 0 23 11 35 25 14 16 32 25 51
25 20 0 30 6 34 20 7 28 38 24 61 -7z m-3330 -2 c14 -15 15 -24 7 -40 -6 -11
-11 -33 -11 -50 0 -21 -7 -34 -22 -42 -13 -7 -29 -20 -36 -31 -7 -10 -22 -18
-33 -18 -10 0 -19 -4 -19 -9 0 -5 -25 -17 -56 -27 -48 -15 -57 -15 -65 -3 -15
24 -10 46 14 63 21 15 21 16 5 29 -10 8 -18 19 -18 25 0 18 42 42 73 42 16 0
35 7 44 15 8 8 19 13 23 10 5 -3 19 8 31 25 26 35 39 37 63 11z m4794 -6 c20
-14 31 -25 25 -25 -43 0 -33 -112 13 -132 32 -15 31 -34 -3 -41 -32 -7 -68 26
-79 71 -4 15 -15 42 -25 60 -14 27 -15 38 -6 62 14 37 27 37 75 5z m1588 -20
c37 -37 29 -64 -26 -84 -51 -19 -65 -47 -28 -56 13 -3 36 -1 51 4 21 8 27 8
27 -3 0 -17 -71 -40 -99 -31 -25 8 -51 53 -51 90 0 49 45 102 88 104 7 1 24
-10 38 -24z m-155 -75 c22 -46 31 -111 18 -130 -15 -23 -35 10 -43 70 -4 27
-12 52 -18 56 -8 5 -9 -15 -4 -75 6 -75 5 -82 -11 -79 -11 2 -20 17 -25 43
-16 81 -19 88 -29 78 -7 -7 -7 -31 1 -73 12 -66 10 -76 -14 -67 -15 6 -42 137
-33 160 3 7 24 19 48 27 24 7 48 17 54 22 18 16 40 3 56 -32z m-3156 -25 c30
-29 33 -70 6 -84 -20 -11 -31 -5 -31 17 0 7 -10 27 -21 44 -18 25 -19 32 -8
39 21 13 28 11 54 -16z m8481 -31 c-5 -13 -10 -14 -18 -6 -6 6 -8 18 -4 28 5
13 10 14 18 6 6 -6 8 -18 4 -28z m-8589 -19 c0 -28 6 -52 16 -63 25 -27 21
-41 -10 -37 -57 6 -74 76 -30 123 11 12 21 22 22 22 1 0 2 -20 2 -45z m2849
-61 c23 -112 29 -125 48 -118 8 3 17 1 21 -5 7 -13 -74 -51 -108 -51 -20 0
-20 0 2 24 22 23 22 27 11 83 -23 113 -29 130 -53 137 -22 6 -22 6 -2 22 11 8
29 13 40 12 17 -3 23 -19 41 -104z m224 74 c32 -34 22 -60 -30 -79 -31 -12
-45 -22 -45 -35 0 -16 7 -19 48 -17 57 3 61 -9 7 -31 -70 -28 -110 6 -110 93
0 77 82 120 130 69z m-3250 -60 c7 -29 20 -65 28 -80 18 -32 4 -59 -28 -51
-21 6 -34 35 -49 111 -15 71 -14 72 13 72 21 0 26 -7 36 -52z m-1686 9 c25
-33 28 -116 6 -142 -16 -20 -40 -82 -40 -106 0 -20 -20 -29 -63 -29 -21 0 -36
-7 -45 -20 -18 -29 -39 -25 -64 15 -22 33 -36 39 -85 35 -19 -1 -23 4 -23 28
0 39 -31 78 -54 69 -14 -6 -17 -15 -13 -45 14 -88 14 -87 -13 -87 -33 0 -55
40 -46 86 5 28 14 39 41 52 19 9 37 16 39 14 1 -1 9 3 17 9 8 6 30 11 49 13
19 1 44 11 57 23 12 11 31 26 41 32 45 26 101 66 107 76 13 21 67 6 89 -23z
m1524 -14 c6 -27 11 -64 11 -84 -1 -21 2 -46 6 -58 5 -18 2 -21 -19 -21 -21 0
-26 5 -26 23 0 13 -9 32 -20 42 -24 22 -27 86 -5 109 8 8 15 19 15 25 0 6 6
11 13 11 7 0 18 -21 25 -47z m680 -2 c-2 -8 -11 -19 -20 -25 -14 -8 -21 -6
-32 9 -22 28 -19 44 7 54 24 10 50 -12 45 -38z m1172 33 c0 -8 -91 -46 -97
-40 -12 12 8 35 34 39 47 7 63 7 63 1z m1180 -38 c0 -7 -15 -17 -32 -22 -23
-7 -34 -17 -36 -32 -5 -35 14 -53 44 -41 34 12 44 11 44 -4 0 -7 -16 -19 -35
-26 -26 -9 -35 -18 -35 -35 0 -34 23 -50 50 -36 23 12 55 6 46 -9 -10 -15
-107 -44 -116 -35 -13 13 -50 192 -44 209 3 7 24 20 47 28 55 19 67 20 67 3z
m-1180 -24 c0 -8 -58 -32 -79 -32 -7 0 -9 5 -6 11 4 5 12 8 18 6 7 -2 18 2 25
10 15 14 42 18 42 5z m-366 -38 c19 -18 29 -53 30 -103 1 -53 -24 -46 -40 10
-8 26 -21 52 -30 60 -14 11 -18 10 -31 -6 -14 -19 -13 -29 4 -117 5 -24 2 -28
-16 -28 -25 0 -36 23 -45 95 -7 58 3 80 34 72 14 -3 28 1 41 14 23 23 33 24
53 3z m-1586 -74 c2 -87 -7 -100 -62 -100 -15 0 -35 -5 -45 -12 -27 -16 -48
-4 -59 34 -6 18 -13 40 -16 49 -4 9 -1 23 8 32 13 12 21 13 45 4 26 -10 32 -7
72 31 24 23 46 42 50 42 3 0 7 -36 7 -80z m8648 29 c11 -23 13 -34 5 -42 -8
-8 -11 -5 -11 11 0 11 -7 25 -16 30 -9 5 -14 14 -10 21 10 16 14 14 32 -20z
m-10638 12 c7 -4 20 -34 28 -67 8 -32 22 -76 31 -96 20 -48 11 -88 -21 -88
-33 0 -42 16 -49 83 -3 32 -15 78 -27 103 -18 36 -20 47 -10 59 14 17 29 19
48 6z m10592 -38 c0 -21 3 -48 6 -60 4 -13 2 -23 -4 -23 -5 0 -13 15 -16 34
-8 42 -33 67 -42 42 -8 -21 -24 -20 -24 2 0 18 32 39 63 41 13 1 17 -7 17 -36z
m110 12 c0 -14 -4 -25 -9 -25 -12 0 -23 29 -15 41 10 18 24 9 24 -16z m-5737
-2 c15 -17 21 -36 18 -59 0 -6 -21 -19 -46 -28 -33 -13 -45 -23 -45 -38 0 -19
4 -20 45 -15 45 7 57 -1 33 -20 -19 -15 -67 -25 -89 -18 -26 9 -49 56 -49 100
0 71 91 124 133 78z m-1581 -4 c41 -22 64 -133 33 -159 -20 -16 -45 -6 -45 19
0 11 -4 23 -10 26 -5 3 -10 21 -10 39 0 17 -5 37 -12 44 -8 8 -8 15 2 27 15
18 16 18 42 4z m1322 -25 c4 -12 15 -15 36 -12 38 6 41 -18 5 -32 -27 -10 -30
-26 -14 -83 8 -30 16 -39 40 -44 16 -3 29 -10 29 -14 0 -14 -47 -29 -65 -23
-19 8 -45 56 -45 83 0 20 -20 46 -40 53 -8 2 -6 14 4 33 9 17 16 36 16 43 0
18 27 15 34 -4z m5573 -69 c7 -44 17 -91 23 -104 8 -18 8 -26 -2 -32 -20 -12
-24 -1 -36 95 -6 49 -16 94 -22 100 -16 16 -12 28 7 24 14 -3 21 -21 30 -83z
m-7083 56 c14 -15 16 -29 11 -58 -5 -31 -2 -44 15 -66 39 -49 9 -89 -31 -43
-33 39 -59 34 -59 -9 0 -28 -4 -35 -19 -35 -15 0 -22 15 -36 83 -14 66 -15 88
-6 105 20 37 44 22 45 -28 1 -15 8 -26 19 -28 24 -5 33 25 13 47 -16 17 -16
20 -1 35 21 21 28 20 49 -3z m7286 -20 c-1 -13 -3 -13 -15 3 -19 26 -19 42 0
26 8 -7 15 -20 15 -29z m-78 -71 c2 -25 0 -39 -7 -37 -15 5 -29 52 -22 71 11
27 25 10 29 -34z m-8810 -5 c4 -104 7 -97 -40 -110 -23 -7 -50 -16 -60 -21 -9
-4 -40 -8 -69 -10 -52 -2 -52 -2 -64 35 -7 20 -16 39 -21 42 -5 3 1 18 14 32
20 21 31 25 74 23 27 -1 55 -5 61 -9 6 -4 21 5 33 20 20 25 42 40 63 42 4 1 8
-19 9 -44z m1742 0 c9 -20 13 -42 10 -50 -9 -23 -42 -18 -60 10 -15 23 -15 27
0 50 22 34 33 32 50 -10z m1270 3 c17 -27 39 -126 31 -139 -7 -11 -93 -49
-111 -49 -7 0 -21 11 -30 25 -15 23 -15 27 0 50 9 13 30 32 47 40 39 21 36 50
-6 51 -50 2 -51 3 -20 24 39 26 71 25 89 -2z m5472 -5 c-3 -10 0 -30 8 -44 7
-14 11 -39 9 -56 -3 -17 0 -34 6 -37 16 -10 13 -36 -4 -36 -8 0 -17 10 -19 23
-31 144 -32 167 -10 167 10 0 13 -6 10 -17z m-8332 1 c21 -8 21 -60 0 -68 -40
-15 -73 19 -54 55 11 20 27 23 54 13z m1279 -12 c18 -19 41 -108 32 -123 -4
-5 -15 -9 -25 -9 -14 0 -20 10 -25 41 -4 23 -16 48 -26 57 -22 19 -25 38 -6
45 22 10 34 7 50 -11z m-80 -87 c5 -54 4 -82 -3 -89 -18 -18 -46 26 -54 85 -6
41 -4 55 10 70 28 31 39 17 47 -66z m-1764 30 c7 -19 16 -35 20 -35 4 0 17 -9
29 -20 l22 -21 0 21 c0 31 23 23 41 -15 18 -39 10 -52 -22 -35 -17 10 -23 8
-35 -7 -7 -10 -14 -22 -14 -26 0 -14 -35 -43 -50 -42 -11 0 -15 13 -15 49 0
40 -4 51 -21 58 -16 7 -21 20 -22 50 -2 49 3 58 32 58 16 0 25 -9 35 -35z
m8766 18 c4 -10 7 -38 6 -63 -2 -33 3 -53 19 -72 22 -28 13 -46 -12 -25 -16
13 -37 77 -45 140 -4 28 -2 37 10 37 8 0 18 -8 22 -17z m-10324 -7 c13 8 11
-7 -6 -36 -8 -14 -14 -44 -15 -67 0 -36 -3 -43 -19 -43 -11 0 -26 -8 -33 -19
-7 -10 -23 -21 -35 -25 -13 -4 -23 -12 -23 -17 0 -5 -10 -9 -21 -9 -12 0 -36
-9 -55 -20 l-32 -21 -16 23 c-21 30 -20 35 11 64 26 24 27 26 10 39 -28 20 -6
53 41 60 55 10 97 32 116 60 14 21 20 23 42 15 14 -6 30 -8 35 -4z m4803 -1
c28 -28 30 -57 6 -77 -12 -10 -30 -18 -40 -18 -10 0 -24 -7 -31 -16 -11 -14
-10 -18 6 -30 22 -16 37 -18 51 -4 5 5 15 6 24 0 11 -7 7 -12 -22 -25 -21 -8
-47 -15 -58 -15 -47 0 -84 82 -61 138 22 52 93 79 125 47z m-1597 -20 c23 -16
50 -111 40 -139 -17 -45 -77 5 -77 64 0 17 -6 39 -12 50 -11 17 -10 22 2 30
20 13 22 13 47 -5z m2713 -24 c15 -29 12 -61 -6 -68 -19 -7 -34 13 -34 48 0
42 22 53 40 20z m-1291 -19 c15 -28 -1 -47 -29 -32 -44 23 -54 7 -47 -79 5
-63 3 -80 -8 -84 -7 -3 -18 0 -23 6 -13 16 -32 99 -32 137 0 26 4 31 30 36 16
4 35 13 41 20 16 20 57 17 68 -4z m1480 4 c9 -11 10 -20 1 -36 -12 -23 -28
-23 -43 2 -22 34 17 65 42 34z m-3071 -15 c8 -4 19 -19 26 -32 10 -20 19 -23
49 -21 32 2 37 0 43 -23 8 -33 -1 -55 -23 -55 -10 0 -56 -14 -103 -30 -47 -16
-97 -30 -111 -30 -15 0 -37 -12 -53 -29 -43 -45 -56 -32 -56 54 0 66 2 74 21
80 11 4 35 19 52 34 36 31 73 47 137 60 3 0 11 -3 18 -8z m7198 -16 c8 -13 13
-29 9 -35 -11 -17 -23 -11 -29 15 -4 14 -11 25 -16 25 -6 0 -10 5 -10 10 0 19
30 10 46 -15z m-8766 -46 c0 -9 9 -24 20 -34 25 -23 16 -38 -20 -30 -20 4 -29
2 -33 -9 -10 -26 -43 -18 -72 17 -32 37 -61 51 -71 35 -4 -6 -6 -33 -5 -59 1
-33 -2 -48 -13 -52 -18 -7 -26 1 -26 25 0 10 -7 30 -16 43 -14 22 -14 26 3 50
12 17 25 24 40 22 12 -2 39 -1 60 3 67 13 133 7 133 -11z m8608 -21 c-3 -44
-23 -64 -25 -26 -1 13 -9 28 -17 34 -19 13 -2 34 27 34 15 0 18 -7 15 -42z
m77 20 c4 -13 6 -31 5 -41 -1 -10 6 -27 16 -38 13 -15 14 -19 3 -19 -35 1 -63
48 -54 91 8 35 20 37 30 7z m-5735 -3 c-7 -8 -18 -15 -26 -15 -33 0 -44 -71
-18 -108 13 -19 22 -22 46 -17 39 9 34 -14 -6 -34 -38 -18 -73 -2 -92 45 -19
45 -10 89 24 121 29 27 94 34 72 8z m1307 -6 c5 -18 11 -20 39 -14 44 8 47
-17 4 -35 -28 -12 -30 -15 -24 -49 10 -56 30 -82 58 -75 37 9 40 -13 5 -31
-57 -30 -89 -6 -104 78 -5 27 -13 37 -32 42 -24 6 -24 7 -9 24 9 10 16 29 16
43 0 13 3 28 7 31 13 14 35 6 40 -14z m-6065 -30 c-1 -13 -5 -31 -8 -39 -4 -8
-8 -28 -10 -44 -5 -33 -19 -46 -49 -45 -24 0 -87 81 -80 101 7 17 62 39 80 31
8 -3 22 2 31 11 22 22 40 15 36 -15z m10335 9 c-8 -27 9 -58 31 -58 13 0 12
-3 -6 -16 -18 -12 -20 -19 -11 -35 5 -11 7 -29 4 -40 -4 -13 0 -28 11 -40 16
-18 16 -19 -4 -19 -19 0 -47 31 -37 42 2 2 -1 36 -6 76 -7 50 -7 78 1 92 14
26 24 26 17 -2z m-3843 -32 c3 -13 3 -33 0 -43 -10 -26 -45 -63 -61 -63 -16 0
-17 26 -2 36 7 4 8 23 4 52 -5 32 -3 47 6 53 19 11 46 -7 53 -35z m-3489 14
c3 -5 21 -10 39 -10 31 0 34 -3 46 -45 7 -24 19 -50 26 -56 34 -28 3 -60 -37
-39 -19 10 -24 10 -34 -4 -17 -23 -44 -20 -71 10 -31 32 -35 127 -6 143 22 13
29 13 37 1z m-1535 -35 c0 -9 9 -33 19 -54 27 -53 18 -83 -23 -79 -30 3 -31 5
-32 51 -1 27 -7 54 -13 60 -20 20 -12 37 19 37 20 0 30 -5 30 -15z m8557 -15
c3 -11 10 -20 16 -20 8 0 8 -3 0 -11 -11 -11 2 -107 18 -123 13 -14 11 -26 -5
-26 -8 0 -17 8 -21 18 -16 40 -34 121 -33 150 1 36 17 43 25 12z m-7136 -30
c24 -45 26 -135 3 -144 -22 -9 -31 -1 -44 39 -13 39 -29 45 -48 15 -14 -24
-40 -26 -48 -5 -4 8 -12 15 -20 15 -16 0 -19 -16 -4 -25 6 -3 10 -15 10 -26 0
-11 7 -22 15 -25 12 -5 13 -10 4 -20 -6 -7 -10 -33 -9 -56 4 -63 2 -68 -23
-68 -19 0 -28 9 -40 40 -14 36 -19 40 -47 38 -28 -3 -33 1 -45 35 -7 21 -21
44 -31 51 -17 13 -16 14 4 25 12 6 33 9 48 5 19 -5 32 -1 47 15 52 51 92 76
121 76 23 0 32 5 35 20 8 46 46 44 72 -5z m2843 15 c6 -18 -20 -39 -39 -31
-18 7 -20 43 -2 49 17 6 34 -2 41 -18z m252 -16 c31 -62 8 -153 -43 -165 -24
-7 -26 -11 -23 -60 2 -36 -24 -54 -39 -26 -4 9 -18 66 -30 125 -23 110 -20
137 14 137 7 0 25 6 39 14 36 18 64 10 82 -25z m-1642 12 c13 -14 16 -28 11
-49 -8 -37 16 -96 44 -112 28 -15 26 -28 -4 -36 -34 -8 -62 17 -76 70 -6 23
-17 46 -26 53 -11 9 -13 22 -8 52 8 46 30 54 59 22z m-3272 -78 c-4 -73 8
-114 49 -165 26 -31 20 -78 -9 -78 -25 0 -77 57 -98 105 -20 47 -22 126 -5
178 11 33 16 37 39 34 27 -4 27 -5 24 -74z m261 24 c9 -23 17 -50 17 -59 0
-22 -76 -58 -123 -58 -33 0 -37 3 -46 38 -14 47 -13 53 4 76 13 18 16 18 39 3
24 -16 26 -16 46 13 29 40 42 38 63 -13z m9116 24 c7 -13 6 -24 -4 -37 -14
-18 -14 -18 -15 2 0 12 -7 25 -16 28 -8 3 -12 10 -9 16 10 16 33 12 44 -9z
m-211 -48 c-2 -17 -9 -28 -18 -28 -9 0 -16 11 -18 28 -3 22 1 27 18 27 17 0
21 -5 18 -27z m-5653 -17 c0 -36 -26 -56 -49 -37 -31 26 -11 75 29 69 15 -2
20 -11 20 -32z m1175 -36 c13 -53 20 -66 38 -68 12 -2 22 -8 22 -13 0 -13 -79
-48 -107 -49 -27 0 -30 15 -7 28 25 14 11 119 -17 127 -21 7 -26 31 -6 39 6 2
23 4 37 3 21 -2 26 -10 40 -67z m4179 48 c13 -37 23 -128 13 -128 -5 0 -16 28
-23 62 -8 34 -20 67 -27 75 -11 11 -10 13 8 13 12 0 24 -9 29 -22z m-5703 -34
c21 -51 24 -119 4 -119 -8 0 -20 20 -30 52 -8 29 -24 59 -34 66 -24 17 -13 37
20 37 19 0 29 -8 40 -36z m5629 -50 c0 -79 -10 -106 -20 -53 -3 19 -9 55 -14
81 -8 45 -7 47 13 46 19 -2 21 -8 21 -74z m-5729 54 c4 -7 9 -35 11 -62 2 -28
5 -62 6 -76 3 -37 -30 -39 -44 -3 -23 62 -28 117 -12 136 19 20 29 21 39 5z
m1488 -14 c11 -29 6 -44 -13 -44 -11 0 -23 5 -26 10 -4 7 -13 7 -26 0 -21 -12
-25 -54 -10 -108 12 -40 5 -62 -20 -62 -20 0 -35 41 -45 126 l-6 51 38 20 c49
26 100 29 108 7z m4167 -32 c11 -28 5 -36 -31 -47 -24 -7 -24 -6 -6 8 21 16
16 44 -9 53 -20 8 -55 -23 -55 -48 0 -12 7 -18 22 -18 20 0 20 -1 5 -12 -26
-20 -11 -58 22 -59 25 0 25 0 3 -9 -30 -13 -48 -4 -63 31 -13 33 0 97 24 117
34 27 74 20 88 -16z m-9122 4 c6 -7 14 -57 18 -111 5 -76 3 -99 -7 -105 -18
-11 -50 6 -50 27 0 9 -7 21 -16 27 -22 16 -30 91 -13 124 27 55 45 65 68 38z
m1861 -91 c13 -24 15 -36 7 -44 -8 -8 -18 -4 -39 16 -33 31 -37 77 -10 103 16
16 17 15 20 -13 2 -16 12 -44 22 -62z m1518 79 c26 -18 29 -46 7 -64 -18 -15
-29 -7 -49 32 -7 12 -19 22 -27 20 -8 -1 -6 4 5 13 25 19 36 19 64 -1z m-1710
-79 c7 -33 19 -66 26 -75 16 -18 4 -60 -16 -60 -26 0 -39 18 -58 81 -30 96
-26 123 14 117 16 -2 23 -16 34 -63z m1631 5 c7 -33 19 -64 27 -71 7 -6 10
-17 7 -25 -5 -14 -29 -13 -65 1 -11 4 -18 0 -23 -14 -4 -15 -15 -21 -35 -21
-16 0 -30 -7 -34 -16 -4 -10 -13 -13 -25 -9 -12 3 -31 -1 -47 -11 -25 -17 -27
-17 -40 1 -12 16 -14 16 -14 2 0 -23 -43 -69 -56 -59 -6 4 -14 42 -17 85 -5
67 -3 78 12 87 10 5 21 7 25 3 3 -3 17 5 31 19 34 34 129 64 160 50 19 -9 27
-7 46 14 12 13 25 24 29 24 3 0 12 -27 19 -60z m1456 40 c0 -8 -10 -16 -23
-18 -33 -5 -57 -58 -42 -96 10 -27 13 -28 55 -23 48 7 56 0 27 -26 -31 -28
-74 -31 -104 -7 -51 40 -46 126 10 171 29 23 77 22 77 -1z m4203 8 c14 -19 32
-131 21 -142 -10 -11 -14 -1 -28 69 -5 28 -13 58 -16 68 -8 20 8 23 23 5z
m-7456 -50 c22 -72 23 -164 2 -172 -22 -8 -34 1 -34 26 0 11 -9 31 -20 45 -11
14 -20 39 -20 55 0 37 28 98 44 98 7 0 20 -24 28 -52z m683 23 c12 -40 -24
-74 -51 -47 -15 15 -19 48 -7 59 14 14 52 7 58 -12z m6723 11 c7 -5 10 -15 7
-23 -3 -8 -1 -37 4 -64 6 -30 6 -54 0 -59 -13 -14 -18 -5 -30 60 -5 32 -12 67
-15 77 -6 18 12 23 34 9z m-1597 -24 c70 -52 95 -152 64 -249 -21 -64 -31 -77
-46 -62 -8 8 -7 24 5 59 29 86 13 167 -43 218 -19 17 -30 56 -16 56 3 0 19
-10 36 -22z m197 10 c17 -17 15 -48 -4 -55 -8 -3 -22 1 -31 9 -12 12 -13 20
-4 37 13 24 22 26 39 9z m1346 -30 c15 -95 17 -128 7 -128 -5 0 -15 26 -21 58
-6 31 -13 67 -16 80 -3 15 0 22 10 22 9 0 17 -13 20 -32z m-9064 -11 c0 -13 9
-32 19 -41 11 -10 23 -31 26 -47 4 -16 11 -31 16 -34 13 -9 11 -69 -3 -83 -33
-33 -81 8 -71 60 4 19 0 35 -12 48 -12 13 -15 27 -11 46 4 15 2 32 -5 41 -10
12 -10 16 2 24 24 15 39 10 39 -14z m9012 -49 c17 -79 16 -88 -12 -88 -10 0
-20 -3 -23 -7 -2 -5 -1 -1 2 7 3 8 5 48 3 88 -1 39 2 72 6 72 5 0 16 -33 24
-72z m-4237 42 c0 -8 -10 -16 -22 -18 -15 -2 -23 -10 -23 -23 0 -15 7 -19 32
-19 36 0 68 -24 68 -52 0 -11 -13 -33 -30 -49 -23 -23 -37 -30 -62 -27 -43 4
-47 25 -6 36 45 11 43 35 -6 43 -71 12 -78 80 -11 118 27 14 60 10 60 -9z
m2609 -68 c-22 -85 -11 -136 42 -190 19 -19 34 -41 34 -49 0 -24 -30 -13 -69
26 -66 66 -77 154 -32 255 15 36 25 46 32 39 8 -8 6 -31 -7 -81z m1530 21 c14
-82 18 -93 32 -93 8 0 14 -4 14 -10 0 -14 -36 -12 -48 3 -5 6 -13 32 -17 57
-3 25 -9 53 -11 63 -3 10 0 17 9 17 9 0 17 -14 21 -37z m-7304 -15 c0 -13 -4
-29 -9 -37 -5 -8 -5 -28 1 -48 10 -37 -2 -63 -30 -63 -8 0 -34 -10 -58 -22
-36 -17 -46 -19 -59 -8 -8 7 -15 22 -15 35 0 12 -3 25 -7 29 -13 13 -12 44 2
56 9 7 26 10 40 6 21 -5 35 1 73 34 54 46 62 48 62 18z m7218 -3 c-3 -3 -9 2
-12 12 -6 14 -5 15 5 6 7 -7 10 -15 7 -18z m-4216 -2 c18 -20 42 -127 34 -148
-7 -20 -97 -57 -123 -50 -50 12 -39 91 17 120 43 22 41 49 -4 41 -44 -8 -53 7
-20 33 33 26 76 27 96 4z m4170 -1 c-13 -10 -25 -33 -28 -54 -5 -30 -2 -41 19
-62 16 -16 33 -24 44 -20 10 3 7 -1 -7 -9 -41 -25 -80 10 -80 70 0 37 35 93
57 93 15 0 15 -3 -5 -18z m-5655 -43 c7 -24 22 -52 34 -62 17 -14 19 -20 9
-32 -28 -34 -64 -3 -85 73 -9 37 -10 53 -2 61 18 18 31 7 44 -40z m4634 20 c8
-31 -15 -85 -42 -99 -26 -14 -35 7 -13 31 15 17 16 24 6 39 -7 11 -12 29 -12
41 0 32 51 22 61 -12z m733 -16 c9 -30 36 -184 36 -204 0 -14 -7 -19 -25 -19
-14 0 -25 5 -25 10 0 6 5 10 11 10 8 0 9 15 4 46 -12 82 -20 89 -55 52 -30
-33 -14 -128 22 -128 10 0 16 -4 13 -10 -13 -20 -46 -9 -65 22 -30 50 -12 116
39 143 27 13 29 18 24 55 -6 40 10 58 21 23z m-5532 -21 c-7 -2 -12 -22 -12
-47 0 -35 5 -48 26 -64 14 -11 23 -25 19 -31 -11 -18 -48 -11 -76 16 l-26 25
-13 -33 c-28 -69 -55 -73 -55 -9 0 43 -28 83 -51 74 -28 -10 -13 15 15 27 31
12 56 5 80 -24 17 -20 31 -12 31 17 1 37 40 73 65 59 5 -3 4 -7 -3 -10z m1485
-55 c-13 -157 -47 -177 -123 -72 -48 67 -51 77 -28 96 14 12 21 7 54 -31 l38
-45 7 50 c9 70 12 75 36 75 21 0 22 -3 16 -73z m4231 56 c22 -20 37 -79 22
-88 -6 -4 -8 -10 -5 -15 3 -4 -1 -10 -8 -13 -8 -3 -12 9 -13 39 -1 52 -19 76
-53 72 -55 -7 -44 -131 13 -141 18 -3 17 -5 -8 -12 -24 -7 -33 -4 -48 15 -58
72 32 202 100 143z m-1399 -6 c6 -8 17 -43 25 -80 12 -58 12 -68 -1 -79 -22
-18 -39 10 -48 80 -7 49 -9 53 -15 30 -5 -15 -4 -44 1 -65 13 -58 11 -73 -10
-73 -14 0 -21 13 -31 60 -7 33 -17 60 -22 60 -5 0 -6 -16 -1 -37 13 -64 10
-108 -7 -108 -10 0 -20 23 -32 80 -9 44 -17 83 -17 87 -1 11 71 39 85 34 7 -3
15 2 18 10 7 18 40 18 55 1z m-4628 -59 c19 -72 40 -83 59 -32 16 41 36 29 36
-22 0 -35 5 -51 20 -63 11 -9 21 -24 21 -34 0 -24 -39 -22 -62 3 -25 27 -31
25 -39 -12 -7 -36 -23 -58 -42 -58 -10 0 -14 14 -14 49 0 33 -6 56 -20 74 -33
41 -22 137 15 137 8 0 19 -18 26 -42z m5648 -10 c19 -102 51 -275 51 -281 0
-4 -7 -7 -15 -7 -17 0 -18 3 -50 185 -29 165 -29 155 -11 155 10 0 18 -18 25
-52z m-4259 17 c10 -12 10 -18 0 -30 -25 -30 -61 -7 -46 30 3 8 12 15 19 15 8
0 20 -7 27 -15z m2879 -32 c20 -75 41 -205 35 -215 -3 -5 -13 -8 -22 -6 -9 2
-25 -5 -35 -15 -24 -24 -55 -18 -80 15 -39 53 -16 150 40 164 23 6 24 10 18
50 -6 40 -4 44 14 44 15 0 23 -10 30 -37z m-2660 9 c5 -9 16 -44 25 -77 18
-71 12 -82 -63 -109 -64 -23 -91 -11 -91 39 0 36 19 61 57 76 12 4 23 16 23
25 0 13 -7 15 -34 10 -44 -8 -53 7 -20 33 33 26 90 28 103 3z m2831 -2 c10 -5
23 -24 29 -42 23 -65 -11 -131 -76 -144 -84 -17 -113 138 -34 181 31 17 56 19
81 5z m-5909 -23 c9 -7 23 -32 30 -56 12 -40 11 -45 -6 -57 -10 -8 -28 -14
-40 -14 -12 0 -26 -5 -33 -12 -6 -6 -31 -14 -56 -18 -37 -5 -50 -3 -65 11 -14
13 -21 15 -24 6 -4 -8 -6 -7 -6 3 -1 8 -8 28 -16 43 -13 25 -13 29 6 48 10 10
32 19 47 19 15 0 34 1 42 1 8 1 25 -1 37 -5 16 -5 26 -1 40 18 21 29 22 30 44
13z m6943 -4 c8 -30 56 -289 56 -306 0 -16 -30 -25 -30 -9 0 13 -48 276 -55
305 -6 21 -4 27 8 27 9 0 18 -8 21 -17z m-6754 -17 c20 -25 8 -61 -21 -64 -36
-4 -55 21 -41 53 13 28 43 33 62 11z m2494 -46 c-1 -83 -37 -282 -51 -287 -33
-13 -36 14 -18 154 21 160 28 186 53 181 13 -3 17 -13 16 -48z m185 31 c27
-27 59 -201 43 -236 -13 -29 -72 -61 -96 -52 -21 8 -11 32 20 45 28 13 31 40
13 124 -14 65 -25 79 -54 72 -15 -4 -24 0 -28 10 -5 11 5 22 31 35 46 25 48
25 71 2z m-1489 -48 c0 -26 8 -45 26 -64 26 -27 26 -27 5 -38 -47 -26 -96 49
-71 110 18 42 40 38 40 -8z m-1762 -2 c16 -22 32 -31 58 -33 32 -3 38 -8 49
-41 14 -40 7 -52 -23 -43 -13 5 -30 -6 -56 -36 -43 -47 -56 -41 -56 24 0 27
-6 41 -20 50 -15 10 -20 24 -20 60 0 43 2 48 23 48 14 0 32 -12 45 -29z m7214
-116 c15 -77 27 -149 27 -161 1 -21 -33 -44 -64 -44 -22 0 -18 21 5 27 25 7
25 17 -2 165 -21 115 -23 119 -45 115 -34 -6 -38 10 -6 27 51 28 56 21 85
-129z m-1260 91 c8 -7 20 -44 27 -81 12 -57 11 -69 0 -76 -20 -12 -27 0 -39
60 -11 61 -16 71 -35 71 -20 0 -27 -34 -23 -110 2 -53 0 -65 -12 -65 -15 0
-30 44 -45 133 -6 40 -6 41 37 61 51 24 72 26 90 7z m-3122 -41 c7 -8 16 -12
22 -9 9 6 38 -13 38 -26 0 -4 -9 -10 -20 -13 -38 -10 -19 -100 24 -117 52 -19
40 -50 -20 -50 -37 0 -57 20 -74 75 -7 22 -20 45 -28 51 -11 8 -13 20 -8 50 5
21 10 42 12 46 8 13 41 9 54 -7z m4253 -93 c3 -15 1 -48 -5 -75 -8 -37 -16
-51 -38 -62 -62 -32 -90 -11 -110 83 -11 47 -10 55 10 87 13 22 33 38 53 44
28 8 35 6 59 -21 14 -16 28 -42 31 -56z m-1300 63 c15 -14 37 -96 37 -135 0
-13 -7 -20 -19 -20 -11 0 -23 -5 -26 -11 -25 -39 -105 -27 -105 17 0 38 11 54
52 75 22 11 38 25 35 32 -6 19 -40 21 -53 2 -8 -10 -20 -15 -29 -11 -13 4 -14
10 -5 26 20 37 87 52 113 25z m1077 -20 c0 -8 -6 -15 -14 -15 -26 0 -27 -18
-6 -132 28 -150 28 -149 52 -146 31 4 34 -20 3 -32 -59 -22 -59 -23 -91 151
l-31 160 26 14 c34 19 61 19 61 0z m-7005 -5 c3 -6 11 -7 17 -4 6 4 24 -8 40
-26 20 -24 25 -36 17 -41 -7 -4 -18 -5 -26 -2 -8 3 -24 -4 -37 -16 -19 -18
-28 -20 -49 -12 -15 6 -29 21 -33 35 -3 13 -12 27 -20 30 -8 3 -14 13 -14 23
0 14 10 19 49 21 27 2 52 -2 56 -8z m1625 0 c0 -6 -8 -13 -17 -16 -10 -3 -30
-12 -46 -20 -26 -15 -47 -12 -47 6 0 10 68 39 93 39 9 1 17 -4 17 -9z m-1765
-74 c1 -45 -2 -56 -14 -54 -8 2 -22 20 -30 41 -13 34 -12 39 4 57 28 31 40 19
40 -44z m3025 51 c0 -2 -7 -25 -16 -51 -16 -47 -16 -47 10 -75 14 -15 26 -34
26 -43 0 -20 -22 -29 -41 -17 -25 15 -45 10 -57 -16 -12 -26 -47 -34 -54 -13
-2 6 0 29 6 50 9 34 8 40 -17 66 -39 40 -28 66 23 58 33 -5 40 -2 54 19 10 16
26 25 41 25 14 0 25 -1 25 -3z m2871 -7 c24 -14 25 -50 1 -50 -10 0 -24 6 -31
13 -10 10 -15 8 -27 -8 -12 -16 -14 -36 -8 -92 6 -69 5 -73 -14 -73 -17 0 -23
10 -33 58 -17 83 -17 127 1 127 8 1 29 8 45 18 36 19 41 20 66 7z m-4506 -60
c0 -21 -7 -27 -38 -34 l-38 -10 3 -69 c2 -57 0 -71 -14 -81 -26 -16 -45 8 -61
81 -20 85 -10 104 68 131 51 17 80 11 80 -18z m5559 -10 c48 -43 70 -105 63
-178 -6 -67 -30 -122 -53 -122 -17 0 -17 4 6 87 19 67 6 125 -41 179 -21 25
-39 49 -39 55 0 18 30 8 64 -21z m-7116 -2 c7 -7 12 -20 12 -30 0 -10 8 -23
18 -29 36 -22 6 -78 -33 -63 -17 7 -20 49 -5 59 6 3 10 11 10 17 0 6 -3 9 -6
6 -7 -8 -44 28 -44 42 0 14 33 13 48 -2z m3005 -30 c17 -23 19 -31 9 -53 -7
-16 -23 -28 -42 -31 -35 -8 -60 -31 -39 -38 8 -3 28 -6 44 -8 44 -4 38 -30
-10 -44 -53 -15 -89 -2 -109 41 -20 41 -20 68 -1 105 32 62 112 77 148 28z
m2609 -16 c7 -28 11 -31 28 -22 27 15 66 12 80 -5 18 -21 43 -146 31 -158 -20
-20 -45 -2 -53 38 -15 76 -18 85 -33 85 -22 0 -29 -46 -16 -103 12 -54 6 -71
-25 -65 -15 3 -23 25 -42 121 -13 64 -21 124 -18 133 10 26 39 11 48 -24z
m1354 -6 c7 -40 0 -56 -25 -56 -24 0 -40 68 -19 81 25 16 37 9 44 -25z m-4232
-7 c40 -23 44 -36 20 -54 -26 -18 -11 -79 26 -105 38 -27 38 -47 1 -55 -39 -8
-66 7 -80 47 -7 18 -21 50 -32 71 -21 39 -20 77 3 104 14 17 21 16 62 -8z
m-1422 -7 c3 -12 -2 -24 -13 -31 -40 -24 -15 -93 36 -103 14 -2 19 -10 17 -23
-12 -66 -124 -32 -138 40 -8 43 0 74 27 108 24 32 64 36 71 9z m-1447 -15 c8
-13 17 -36 21 -53 5 -28 3 -30 -54 -52 -33 -13 -68 -22 -78 -20 -24 4 -48 82
-33 109 10 20 39 26 39 9 0 -18 39 -10 50 10 14 27 36 25 55 -3z m2690 -11
c26 -39 -5 -82 -41 -58 -18 12 -24 42 -14 63 14 26 36 24 55 -5z m4303 -96
c12 -63 20 -121 17 -127 -2 -7 -13 -13 -24 -13 -11 0 -25 -8 -30 -17 -6 -10
-11 -14 -11 -10 0 4 -8 3 -18 -2 -23 -12 -48 6 -66 51 -24 55 -2 119 46 139
27 11 29 15 23 46 -7 39 0 55 23 51 13 -2 22 -31 40 -118z m-1391 79 c5 -18
11 -19 46 -14 31 6 38 4 35 -6 -2 -8 -17 -20 -31 -27 -28 -14 -33 -39 -18 -92
6 -20 13 -25 41 -26 47 0 53 -28 9 -43 -66 -23 -83 -11 -103 66 -9 37 -17 49
-34 51 -25 4 -30 30 -7 38 8 4 15 18 15 33 0 15 3 31 7 34 13 14 35 6 40 -14z
m-4546 -1 c0 -7 2 -33 5 -58 2 -25 6 -68 8 -95 1 -28 6 -60 10 -71 7 -24 -18
-57 -38 -52 -6 2 -20 23 -31 46 -12 26 -26 42 -37 42 -16 0 -18 -9 -17 -64 1
-35 -2 -69 -5 -75 -4 -6 -22 -11 -40 -11 -18 0 -44 -9 -58 -19 -37 -30 -66
-10 -95 64 -13 32 -23 60 -23 61 0 1 11 9 25 18 19 12 30 14 52 5 26 -10 31
-7 70 35 23 25 51 46 62 46 16 0 21 9 27 47 4 28 16 56 30 70 25 25 54 31 55
11z m4961 -32 c7 -34 -5 -48 -33 -44 -42 6 -38 68 5 68 17 0 25 -7 28 -24z
m-4763 -9 c7 -13 28 -31 47 -42 53 -28 45 -90 -15 -115 -38 -15 -61 -8 -54 19
3 13 -2 23 -19 31 -26 14 -57 49 -58 66 0 22 42 64 64 64 13 0 28 -9 35 -23z
m4237 -55 c20 -13 32 -47 39 -107 l7 -60 -57 -22 c-41 -16 -63 -19 -75 -13
-14 7 -19 5 -23 -11 -9 -36 -40 -19 -54 30 -16 56 -20 60 -32 27 -11 -28 -30
-33 -49 -14 -18 18 -23 5 -12 -33 17 -58 13 -81 -12 -77 -20 3 -24 12 -36 83
-6 44 -11 93 -10 110 4 40 32 45 59 11 24 -31 39 -26 39 13 0 31 16 51 41 51
12 0 21 -17 33 -60 18 -65 31 -81 39 -50 3 11 21 27 41 35 37 16 47 39 21 49
-8 3 -24 -4 -35 -16 -14 -15 -23 -19 -30 -12 -32 32 66 93 106 66z m1340 -100
c20 -82 18 -92 -11 -92 -14 0 -25 -4 -25 -8 0 -12 -59 -32 -76 -25 -16 6 -35
66 -22 71 4 2 8 9 8 16 0 7 18 20 41 29 25 10 39 21 37 29 -7 19 -43 21 -58 3
-17 -21 -30 -19 -30 5 0 20 25 38 69 50 35 9 51 -10 67 -78z m-192 -4 c13 -13
27 -33 30 -44 6 -19 -1 -25 -49 -44 -59 -24 -66 -33 -35 -50 14 -8 26 -8 41 0
22 12 49 7 49 -9 0 -5 -21 -16 -47 -24 -40 -11 -53 -11 -74 -1 -32 16 -39 32
-39 87 0 47 22 81 60 96 35 14 36 14 64 -11z m-280 -10 c3 -7 7 -26 10 -41 6
-26 8 -27 29 -12 49 34 83 6 102 -84 13 -65 6 -87 -26 -71 -11 6 -19 27 -24
58 -7 56 -18 77 -34 67 -23 -13 -29 -50 -18 -104 8 -43 7 -55 -4 -62 -8 -4
-17 -5 -21 -1 -11 12 -51 229 -45 246 8 19 26 21 31 4z m-2611 -28 c3 -11 -1
-27 -8 -37 -11 -14 -18 -16 -32 -7 -25 15 -29 45 -8 60 21 16 41 9 48 -16z
m-1381 -15 c0 -6 -21 -18 -47 -28 -31 -11 -45 -13 -43 -5 2 6 11 15 19 18 8 4
23 12 34 18 23 12 36 11 37 -3z m3883 -40 c0 -33 -3 -40 -20 -40 -26 0 -46 62
-24 76 28 18 44 5 44 -36z m1298 29 c3 -4 -2 -17 -12 -30 -21 -27 -19 -95 5
-184 19 -68 28 -85 44 -85 25 0 21 -24 -4 -31 -36 -9 -52 8 -66 66 -9 38 -17
50 -30 50 -28 0 -33 17 -11 39 16 16 18 26 10 65 -9 52 0 89 28 105 21 12 28
13 36 5z m-3931 -44 c25 -35 15 -56 -35 -73 -30 -10 -42 -19 -42 -33 0 -15 8
-20 38 -22 20 -2 37 -7 37 -12 0 -13 -75 -34 -94 -27 -27 11 -50 58 -49 101 3
81 101 125 145 66z m-3108 4 c23 -9 3 -40 -30 -48 -26 -7 -27 -8 -21 -70 7
-73 -2 -90 -40 -73 -20 9 -27 8 -34 -4 -21 -38 -48 -63 -70 -64 -13 -1 -36 -7
-51 -15 -34 -16 -58 0 -58 39 0 37 14 55 39 48 16 -4 21 -1 21 14 0 11 -7 22
-15 25 -19 8 -4 38 30 60 21 14 26 14 54 -1 29 -15 32 -15 37 2 13 43 31 68
52 71 13 2 22 -2 22 -9 0 -7 9 -3 20 9 23 25 22 24 44 16z m4428 -37 c2 -16
12 -23 38 -28 l35 -5 -28 -14 c-25 -12 -28 -18 -25 -54 2 -31 -1 -41 -14 -44
-11 -2 -18 6 -23 28 -6 29 -10 32 -36 28 -41 -6 -45 7 -8 22 28 12 30 16 24
47 -3 18 -3 38 0 43 9 15 34 0 37 -23z m1155 6 c-3 -16 -10 -48 -17 -73 -16
-65 -5 -112 41 -164 60 -68 49 -102 -16 -52 -50 39 -78 108 -73 181 5 72 30
135 54 135 12 0 15 -6 11 -27z m-2313 -15 c24 -33 19 -64 -13 -100 -22 -25
-33 -30 -41 -22 -9 9 -9 17 0 34 9 17 9 29 0 51 -22 51 23 81 54 37z m-1780
-7 c20 -17 20 -35 1 -51 -13 -10 -19 -10 -35 5 -44 40 -12 84 34 46z m1436
-16 c5 -13 12 -47 16 -75 7 -54 -5 -80 -36 -80 -10 0 -23 -7 -30 -15 -17 -20
-43 -19 -63 3 -22 24 -49 109 -42 132 10 30 43 25 51 -7 15 -71 26 -93 45 -93
11 0 20 7 21 18 0 9 2 24 2 32 1 8 -2 32 -6 53 -5 21 -6 42 -3 48 11 17 35 9
45 -16z m1128 -7 c29 -29 3 -92 -30 -72 -14 9 -28 52 -22 69 7 18 35 20 52 3z
m-2648 -27 c0 -10 7 -37 15 -60 13 -38 13 -42 -2 -48 -8 -3 -24 -1 -35 6 -25
15 -54 6 -61 -19 -3 -11 -12 -20 -21 -20 -12 0 -16 10 -16 34 0 23 -8 44 -25
62 -13 14 -22 30 -19 35 7 12 38 11 69 -3 22 -10 28 -9 41 10 19 27 54 29 54
3z m1326 -15 c26 -19 6 -40 -38 -40 l-33 -1 3 -82 c2 -66 -1 -83 -12 -83 -22
0 -33 21 -47 88 -15 72 -7 95 34 100 14 2 31 10 37 18 16 18 31 18 56 0z
m3925 -18 c49 -36 73 -92 73 -168 -1 -67 -29 -147 -49 -139 -12 5 -10 26 6 94
15 66 -1 125 -47 173 -35 36 -39 44 -27 55 9 10 11 9 44 -15z m-5441 -33 c0
-25 8 -60 18 -78 23 -44 18 -127 -8 -127 -19 0 -34 30 -46 90 -3 19 -13 55
-21 78 -13 40 -13 46 3 63 9 10 25 19 36 19 15 0 18 -8 18 -45z m-1585 5 c12
-20 -8 -143 -27 -162 -26 -26 -36 -23 -79 25 -69 74 -64 123 9 94 44 -17 52
-15 52 18 0 12 3 25 7 28 9 10 31 8 38 -3z m2858 -22 c16 -12 17 -17 6 -41
-18 -39 2 -100 38 -117 l28 -12 -32 -16 c-30 -14 -34 -14 -52 2 -11 10 -25 35
-32 55 -6 20 -18 44 -27 53 -10 12 -13 29 -9 54 9 57 27 61 80 22z m2966 6
c33 -42 27 -57 -29 -79 -72 -28 -61 -71 12 -46 55 19 59 -5 5 -29 -57 -25 -81
-20 -109 23 l-20 32 7 -49 c5 -34 3 -51 -6 -56 -24 -15 -38 2 -45 56 -11 88
-28 79 -19 -11 6 -71 5 -77 -11 -73 -17 3 -20 11 -40 106 -2 13 -8 20 -13 18
-5 -3 -3 -35 4 -72 10 -55 10 -67 -2 -71 -21 -8 -26 1 -44 79 -18 75 -16 98 7
98 8 0 23 5 34 10 11 6 29 15 40 20 37 19 60 12 75 -22 l13 -33 7 30 c11 52
24 75 47 85 40 16 66 11 87 -16z m-4339 -14 c0 -5 -7 -28 -16 -50 -11 -27 -13
-45 -7 -51 15 -15 -2 -100 -23 -116 -17 -12 -19 -10 -29 24 -15 49 -40 96 -59
112 -19 16 -21 48 -3 54 6 2 24 -7 39 -21 23 -21 30 -23 43 -12 8 7 15 25 15
41 0 22 5 29 20 29 11 0 20 -4 20 -10z m-265 -32 c3 -7 6 -39 8 -70 2 -38 10
-65 22 -77 16 -19 15 -51 -2 -51 -20 1 -37 23 -78 106 -27 56 -25 81 9 94 30
12 36 12 41 -2z m3095 -18 c0 -12 -82 -50 -113 -53 -42 -4 -26 22 25 42 59 22
88 26 88 11z m2575 -40 c6 -29 9 -30 41 -24 42 8 44 -5 4 -28 -25 -15 -29 -22
-27 -55 3 -48 -23 -53 -35 -6 -8 29 -11 31 -33 23 -16 -6 -27 -6 -31 2 -7 11
13 28 35 28 10 0 12 10 7 45 -7 40 -5 45 13 45 14 0 21 -9 26 -30z m-2761 4
c33 -32 11 -60 -32 -41 -35 16 -44 -6 -37 -90 6 -69 5 -73 -13 -73 -16 0 -24
12 -36 54 -9 30 -16 69 -16 88 0 31 4 36 48 56 57 26 66 26 86 6z m-213 -15
c7 -14 9 -41 5 -70 -7 -49 0 -59 23 -36 10 10 15 8 26 -6 7 -11 11 -25 8 -33
-3 -8 2 -23 11 -33 16 -17 16 -20 1 -35 -9 -9 -21 -16 -28 -16 -6 0 -30 -9
-54 -21 -40 -19 -45 -20 -67 -5 -32 20 -40 49 -26 91 9 28 9 39 -4 57 -23 33
-20 75 9 103 31 32 80 34 96 4z m409 -10 c0 -10 -100 -59 -120 -59 -26 0 -5
31 33 49 47 22 87 26 87 10z m1143 -4 c14 -14 37 -96 37 -133 0 -17 -42 -37
-102 -49 -63 -12 -56 86 8 107 28 9 34 17 32 33 -4 29 -29 32 -58 7 -27 -23
-31 -22 -24 7 10 36 81 55 107 28z m1075 -22 c3 -21 -22 -38 -39 -27 -13 8
-11 42 4 47 20 9 32 2 35 -20z m-1245 0 c19 -66 38 -177 33 -189 -11 -29 -44
-14 -82 38 -41 58 -52 52 -35 -17 6 -24 11 -51 11 -59 0 -22 -37 -20 -44 2
-15 54 -36 183 -31 192 15 25 46 7 87 -51 45 -65 57 -64 39 6 -15 61 -14 95 3
95 8 0 17 -8 19 -17z m1429 -21 c8 -28 11 -31 38 -25 37 7 39 -10 4 -26 -24
-10 -26 -16 -20 -50 4 -28 2 -40 -8 -44 -18 -7 -36 12 -36 39 0 20 -4 22 -35
17 -44 -7 -47 11 -4 26 29 10 31 13 25 46 -12 61 21 77 36 17z m-3026 -17 c19
-29 10 -65 -16 -65 -19 0 -30 19 -30 54 0 42 22 48 46 11z m2864 -72 c16 -82
17 -83 46 -83 14 0 24 -5 22 -11 -5 -14 -109 -57 -126 -51 -19 6 -14 18 11 29
23 11 24 14 14 67 -9 49 -13 56 -33 56 -37 0 -38 19 -2 35 51 22 56 19 68 -42z
m-5695 27 c3 -5 1 -10 -4 -10 -6 0 -11 5 -11 10 0 6 2 10 4 10 3 0 8 -4 11
-10z m-51 -12 c3 -7 7 -43 10 -80 6 -62 5 -68 -12 -68 -11 0 -25 7 -32 15 -7
8 -10 15 -7 15 2 0 -1 17 -8 37 -11 32 -11 42 1 65 15 29 42 37 48 16z m4310
-47 c-1 -55 -12 -75 -57 -98 -22 -11 -26 -18 -18 -26 8 -8 20 -8 46 2 48 17
75 7 75 -27 -1 -36 -19 -59 -63 -77 -71 -29 -89 -17 -93 64 -2 34 -8 70 -14
81 -24 45 2 95 61 116 60 22 64 19 63 -35z m-4050 20 c32 -36 -3 -83 -45 -61
-23 13 -24 37 -2 62 20 23 26 23 47 -1z m1461 10 c-6 -4 -23 -11 -38 -15 -25
-6 -27 -5 -15 8 7 8 24 15 38 16 14 0 20 -4 15 -9z m2391 -69 c20 -13 33 -49
40 -106 6 -50 5 -56 -12 -56 -11 0 -28 -7 -38 -15 -11 -8 -32 -15 -48 -15 -22
0 -29 6 -34 27 -9 33 4 53 49 78 39 21 45 36 24 53 -14 12 -57 5 -57 -9 0 -5
-4 -9 -10 -9 -23 0 -7 32 23 45 37 16 48 18 63 7z m-2840 -37 c-7 -36 2 -61
31 -90 14 -14 14 -18 2 -26 -23 -14 -36 -10 -58 17 -29 37 -28 98 1 118 30 22
31 21 24 -19z m2684 15 c0 -5 -6 -10 -13 -10 -7 0 -20 -6 -29 -12 -15 -12 -15
-20 3 -102 13 -57 16 -93 10 -99 -15 -15 -28 0 -36 40 -24 135 -24 135 -57
128 -50 -11 -29 14 32 40 60 26 90 30 90 15z m1440 -11 c16 -29 5 -51 -22 -47
-38 5 -34 67 4 68 4 0 12 -9 18 -21z m-5580 -46 c24 -55 24 -53 1 -53 -29 0
-59 43 -53 79 6 41 27 30 52 -26z m5350 7 c0 -26 9 -29 42 -12 22 10 36 12 47
5 19 -12 41 -74 44 -123 2 -29 -2 -35 -18 -35 -14 0 -21 10 -27 40 -15 76 -18
85 -32 85 -33 0 -43 -71 -20 -152 4 -13 0 -18 -15 -18 -16 0 -22 11 -31 58 -7
31 -18 86 -25 122 -10 49 -11 66 -2 72 14 9 37 -18 37 -42z m-3995 -4 c9 -13
18 -47 22 -76 5 -47 4 -52 -13 -48 -12 2 -24 19 -34 48 -9 25 -21 55 -28 67
-17 30 -15 33 13 33 15 0 31 -9 40 -24z m-1734 -13 c17 -43 19 -163 2 -163 -7
0 -13 7 -13 15 0 9 -7 18 -15 21 -8 3 -20 23 -26 44 -10 32 -9 45 5 74 20 43
33 45 47 9z m1642 -51 c3 -31 7 -64 8 -72 3 -9 -3 -15 -15 -15 -34 0 -63 118
-36 150 20 25 37 1 43 -63z m1462 48 c9 -18 23 -30 35 -30 25 0 25 -8 3 -32
-11 -12 -16 -32 -14 -54 3 -44 -22 -46 -44 -3 -9 17 -23 29 -33 28 -33 -3 -35
1 -9 25 18 16 24 30 20 45 -6 24 2 51 16 51 6 0 17 -13 26 -30z m-2900 10 c12
-20 -6 -50 -30 -50 -16 0 -24 7 -27 25 -3 13 -3 27 0 30 9 9 51 5 57 -5z
m5375 -46 c6 -14 16 -24 23 -21 46 17 57 18 57 4 0 -8 -14 -20 -31 -26 -30
-10 -31 -13 -25 -52 11 -66 22 -81 57 -74 36 8 38 -8 4 -23 -58 -27 -79 -12
-96 66 -10 49 -12 52 -37 46 -41 -10 -43 -13 -36 -49 7 -42 -16 -79 -59 -94
-23 -9 -28 -14 -19 -23 8 -8 21 -9 47 -1 50 16 75 7 75 -26 -1 -33 -16 -53
-57 -74 -38 -20 -67 -22 -80 -4 -14 16 -36 191 -28 216 3 12 27 27 63 41 93
35 107 45 107 77 0 23 10 42 23 43 1 0 7 -12 12 -26z m-5312 -3 c10 -6 11 -13
1 -34 -10 -21 -15 -24 -30 -16 -25 13 -26 59 -1 59 9 0 23 -4 30 -9z m1274 -6
c2 -45 -15 -183 -27 -211 -18 -44 -43 -46 -37 -3 4 24 -4 43 -37 89 -22 33
-41 66 -41 74 0 27 21 28 49 2 37 -35 49 -33 57 12 4 20 9 41 11 45 6 10 24 4
25 -8z m1165 4 c7 -7 22 -55 35 -107 16 -68 27 -96 40 -100 35 -9 29 -33 -15
-52 -68 -32 -92 -24 -65 19 16 27 -15 170 -42 193 -34 28 -24 51 26 57 5 0 15
-4 21 -10z m1633 -36 c0 -66 -27 -202 -46 -231 -16 -24 -41 -39 -50 -29 -3 3
4 15 15 26 34 34 27 74 -25 147 -33 46 -44 68 -36 76 14 14 28 3 58 -43 13
-21 28 -39 33 -39 5 0 12 28 15 62 8 67 12 78 27 78 5 0 9 -21 9 -47z m1650
32 c23 -28 16 -82 -14 -110 -15 -14 -31 -25 -35 -25 -18 0 -19 14 -1 37 18 23
18 25 2 54 -16 29 -16 31 2 44 25 19 31 19 46 0z m-1842 -47 c7 -7 12 -27 12
-46 0 -18 7 -40 15 -48 38 -39 7 -97 -67 -128 -46 -18 -49 -15 -72 96 -21 102
-21 102 17 121 39 19 79 21 95 5z m-4248 -34 c0 -8 -4 -12 -10 -9 -5 3 -10 10
-10 16 0 5 5 9 10 9 6 0 10 -7 10 -16z m6465 -199 c23 -116 44 -224 48 -241 5
-28 3 -32 -19 -37 -19 -3 -25 1 -29 17 -2 11 -23 111 -45 221 -23 110 -44 211
-47 224 -4 17 -2 22 6 17 6 -4 11 -2 11 4 0 6 8 10 17 8 14 -3 25 -42 58 -213z
m-6479 170 c20 -49 18 -85 -4 -85 -10 0 -35 -9 -57 -20 -49 -25 -62 -25 -74
-1 -16 29 -24 98 -13 105 5 3 24 1 41 -5 28 -10 33 -9 52 15 27 34 37 33 55
-9z m1392 -1 c5 -9 24 -19 42 -23 41 -8 60 -33 44 -58 -15 -24 -44 -29 -44 -8
0 18 -23 29 -72 34 -4 1 -12 10 -18 22 -20 36 28 69 48 33z m1336 -33 c4 -5 3
-16 0 -25 -5 -13 -14 -15 -39 -10 -47 9 -60 -18 -45 -91 12 -60 8 -75 -20 -75
-13 0 -22 9 -26 28 -3 15 -12 50 -19 78 -13 52 -6 84 18 84 7 0 30 9 51 20 38
19 65 16 80 -9z m-1451 -9 c9 -9 21 -38 28 -64 10 -38 10 -49 0 -62 -16 -18
-37 -21 -46 -5 -12 19 -33 122 -28 136 7 18 27 16 46 -5z m2802 -7 c0 -5 -11
-12 -25 -13 -14 -2 -29 -8 -34 -12 -16 -15 15 -40 49 -40 87 0 59 -106 -30
-113 -15 -1 -30 4 -32 11 -3 7 4 12 19 12 13 0 33 6 43 14 17 12 17 16 5 31
-8 10 -22 14 -35 11 -26 -7 -65 19 -65 42 1 34 49 74 85 69 11 -1 20 -6 20
-12z m1353 -17 c19 -38 34 -120 23 -131 -16 -16 -30 2 -37 49 -3 24 -14 54
-23 66 -17 20 -18 20 -35 2 -18 -18 -19 -27 -4 -139 2 -12 -3 -20 -12 -20 -11
0 -20 23 -31 77 -17 79 -16 88 8 88 8 0 21 7 29 15 24 23 69 19 82 -7z m-1546
-33 l33 6 -34 -29 -33 -28 14 -50 c12 -44 17 -49 46 -52 41 -4 41 -17 1 -31
-45 -15 -65 0 -83 63 -12 40 -22 55 -38 59 -21 6 -21 7 -5 25 9 10 17 28 17
39 0 31 13 36 32 13 14 -17 24 -20 50 -15z m-1356 4 c14 -23 41 -147 34 -159
-4 -6 -29 -22 -56 -35 -55 -27 -78 -21 -102 28 -19 39 -27 123 -13 132 18 11
40 -13 47 -54 9 -48 21 -71 39 -71 22 0 30 48 16 98 -9 33 -9 48 0 58 14 17
25 18 35 3z m2500 -74 c6 -28 17 -76 24 -108 11 -56 13 -58 37 -52 45 11 20
-16 -32 -36 -57 -22 -65 -23 -65 -9 0 6 6 10 14 10 27 0 28 21 5 121 -17 77
-26 99 -37 94 -26 -10 -35 8 -11 21 39 22 53 13 65 -41z m226 38 c33 -30 23
-57 -32 -81 -52 -23 -63 -44 -32 -61 12 -6 28 -5 51 5 19 8 37 12 40 9 7 -8
-13 -20 -61 -36 -39 -13 -41 -12 -64 15 -17 19 -24 39 -24 71 0 36 5 47 31 69
35 30 65 33 91 9z m-4043 -21 c12 -22 3 -62 -13 -62 -31 0 -51 62 -23 73 21 9
26 8 36 -11z m2529 -35 c6 -7 18 -41 26 -75 12 -52 12 -63 0 -73 -15 -12 -19
-5 -45 81 -27 88 -79 34 -57 -59 9 -39 9 -54 0 -63 -6 -6 -14 -9 -18 -6 -11
12 -46 162 -37 165 4 2 24 11 43 22 43 23 74 25 88 8z m-2925 -86 c4 -41 5
-76 2 -79 -12 -12 -40 16 -48 49 -4 19 -11 43 -13 55 -6 23 21 57 40 51 6 -2
15 -36 19 -76z m5355 25 c37 -42 56 -106 48 -158 -9 -57 -36 -118 -52 -118
-18 0 -18 8 1 60 29 82 13 156 -46 209 -21 19 -30 35 -26 46 9 21 34 8 75 -39z
m178 28 c6 -24 -6 -43 -28 -44 -15 0 -26 37 -19 65 0 3 10 5 21 5 13 0 22 -9
26 -26z m-5276 -14 c8 -14 8 -26 0 -40 -11 -21 -19 -24 -44 -14 -16 6 -22 54
-9 67 13 14 43 6 53 -13z m2497 -46 c22 -34 10 -53 -45 -73 -28 -10 -42 -21
-42 -33 0 -25 27 -34 61 -21 39 15 47 -2 10 -22 -45 -23 -78 -19 -108 13 l-26
27 7 -42 c4 -27 2 -44 -5 -49 -17 -10 -37 22 -45 72 -11 73 -26 51 -18 -26 6
-66 5 -70 -14 -70 -17 0 -23 10 -32 55 -6 30 -16 55 -21 55 -11 0 -11 -33 0
-81 10 -46 -1 -71 -22 -49 -12 13 -37 110 -37 145 0 6 19 19 43 29 23 9 50 21
59 27 29 15 57 10 69 -13 11 -21 12 -20 30 16 23 48 46 65 86 66 24 0 37 -7
50 -26z m2813 -53 c10 -24 9 -35 -5 -65 -15 -32 -49 -55 -62 -43 -2 3 3 16 12
30 13 20 14 29 4 50 -14 32 -6 57 19 57 12 0 24 -11 32 -29z m-5770 2 c0 -10
6 -30 14 -44 15 -30 6 -55 -17 -46 -18 7 -41 72 -33 92 8 21 36 19 36 -2z
m5428 -1 c16 -11 44 -144 32 -156 -16 -16 -29 4 -41 64 -13 66 -30 80 -53 45
-13 -20 -14 -33 -5 -81 7 -40 7 -60 0 -67 -18 -18 -28 3 -44 86 -13 71 -13 79
2 84 9 2 27 11 41 18 28 16 49 18 68 7z m-1318 -12 c0 -5 -12 -8 -26 -7 -36 3
-56 -29 -31 -47 9 -7 27 -11 40 -9 28 6 50 -18 45 -49 -5 -38 -100 -89 -99
-53 1 6 4 10 9 10 4 1 20 4 35 8 22 6 28 13 25 30 -2 17 -10 22 -34 23 -49 2
-64 11 -64 40 0 38 27 64 67 64 18 0 33 -4 33 -10z m-4472 -39 c15 -47 16
-161 2 -161 -5 0 -10 5 -10 10 0 6 -9 20 -20 32 -28 30 -34 76 -15 121 8 20
19 37 24 37 4 0 13 -17 19 -39z m196 -19 c-18 -27 -48 -22 -52 10 -4 31 24 43
48 21 11 -10 12 -18 4 -31z m4031 17 c6 -16 12 -19 36 -14 36 8 38 -2 3 -16
-25 -9 -26 -13 -20 -55 9 -69 22 -87 57 -80 37 7 30 -7 -11 -24 -40 -17 -56
-2 -74 66 -9 37 -17 50 -35 54 -21 5 -22 7 -7 19 9 7 16 26 16 42 0 34 25 40
35 8z m420 -9 c7 -23 -10 -50 -31 -50 -18 0 -28 38 -14 55 18 21 38 18 45 -5z
m-1947 -17 c5 -10 17 -54 27 -98 10 -48 25 -87 36 -97 28 -24 24 -35 -26 -54
-53 -20 -63 -15 -41 18 14 21 13 30 -5 103 -10 43 -28 89 -39 100 l-20 22 22
11 c32 15 36 14 46 -5z m246 -4 c39 -31 31 -58 -24 -79 -73 -28 -64 -81 10
-60 48 14 32 -12 -18 -30 -41 -14 -43 -14 -70 13 -21 22 -27 37 -27 73 0 39 5
50 33 75 38 35 60 36 96 8z m2680 6 c17 -17 40 -119 32 -141 -3 -8 -13 -14
-23 -14 -10 0 -27 -7 -37 -15 -38 -28 -85 -11 -81 30 2 24 27 53 55 65 32 13
38 31 16 49 -10 8 -20 6 -40 -10 -15 -12 -29 -19 -32 -17 -10 10 9 39 35 53
34 19 56 19 75 0z m-5360 -20 c8 -22 -4 -46 -22 -43 -9 2 -19 15 -23 31 -6 24
-4 27 16 27 12 0 25 -7 29 -15z m1176 -44 c0 -28 8 -49 26 -70 l25 -30 -27 -7
c-21 -5 -31 -2 -45 17 -21 28 -25 80 -7 109 19 30 28 24 28 -19z m2691 -42
c-6 -98 -15 -134 -35 -137 -10 -2 -25 6 -34 19 -48 65 -72 103 -72 116 0 28
26 11 58 -38 18 -27 37 -47 42 -44 6 3 10 27 10 53 0 60 9 94 24 89 7 -2 10
-24 7 -58z m1338 44 c16 -31 34 -131 27 -149 -11 -29 -31 2 -46 70 -16 77 -35
54 -20 -24 14 -73 13 -80 -10 -80 -11 0 -20 7 -20 15 0 37 -23 115 -32 109
-10 -6 -6 -63 8 -119 5 -20 2 -25 -13 -25 -17 0 -22 12 -33 73 -7 39 -15 78
-17 85 -3 7 3 12 15 12 12 0 24 5 27 10 3 6 15 10 26 10 11 0 27 7 35 15 20
20 41 19 53 -2z m-4132 -17 c-4 -13 -47 -21 -47 -9 0 5 5 14 11 20 14 14 41 5
36 -11z m-1437 -3 c0 -5 -4 -14 -9 -21 -5 -8 -4 -31 2 -53 12 -48 -4 -73 -40
-64 -15 3 -29 -1 -43 -15 -13 -13 -28 -19 -40 -15 -20 6 -25 17 -36 78 l-6 38
38 -6 c40 -6 63 4 102 48 17 18 32 22 32 10z m1362 -83 c5 -46 4 -78 -2 -84
-15 -15 -26 1 -44 62 -18 61 -8 106 22 100 13 -3 19 -18 24 -78z m1278 60 c0
-5 -9 -11 -19 -15 -34 -10 -45 -32 -32 -61 10 -24 15 -25 49 -19 39 7 38 0 0
-19 -16 -8 -24 -22 -26 -45 l-3 -34 40 6 c54 7 52 -8 -4 -35 -58 -29 -67 -20
-93 92 -21 91 -16 120 18 120 10 0 21 4 24 8 6 11 46 13 46 2z m2765 -91 c9
-44 13 -84 9 -88 -5 -4 -29 -16 -52 -26 -55 -24 -72 -14 -89 51 -17 66 -17
104 1 104 10 0 18 -20 26 -57 15 -79 17 -83 35 -83 29 0 40 45 27 107 -12 58
-10 73 12 73 8 0 20 -30 31 -81z m-1357 45 c36 -25 26 -65 -18 -77 -19 -5 -41
-13 -47 -19 -33 -27 9 -68 48 -48 11 6 25 9 32 7 17 -6 -47 -37 -77 -37 -73 0
-75 151 -2 180 31 13 39 12 64 -6z m1167 -16 c41 -181 43 -198 20 -198 -16 0
-19 5 -29 53 -7 31 -30 35 -63 12 -19 -13 -20 -19 -12 -56 10 -45 -1 -73 -21
-53 -13 13 -52 193 -44 205 13 22 33 6 39 -31 7 -42 16 -47 60 -30 24 9 26 13
20 54 -7 45 -2 66 15 66 5 0 12 -10 15 -22z m-3980 -60 c24 -2 31 -8 33 -30 3
-23 -1 -28 -18 -28 -11 0 -23 7 -26 15 -4 8 -18 15 -32 15 -30 0 -62 26 -62
51 0 27 22 29 50 4 14 -13 39 -25 55 -27z m1185 27 c14 -15 21 -31 17 -44 -3
-11 0 -39 5 -62 9 -32 18 -44 41 -54 29 -12 30 -13 9 -24 -45 -24 -73 -4 -91
65 -6 23 -18 45 -27 48 -12 4 -14 13 -10 29 4 12 9 31 10 42 6 34 14 34 46 0z
m50 -15 c0 -5 -2 -10 -4 -10 -3 0 -8 5 -11 10 -3 6 -1 10 4 10 6 0 11 -4 11
-10z m1186 -100 c-34 -51 -31 -70 14 -85 19 -6 36 -19 38 -28 4 -21 -3 -21
-61 -1 -69 23 -73 33 -36 95 43 74 50 82 62 70 7 -7 1 -24 -17 -51z m1391 18
c3 -59 -12 -92 -47 -105 -17 -6 -30 -18 -30 -27 0 -20 2 -20 47 -1 43 18 69
12 77 -18 8 -31 -19 -66 -70 -88 -64 -29 -79 -17 -88 67 -4 37 -11 75 -17 86
-7 13 -7 29 1 52 8 27 21 38 58 54 65 28 67 27 69 -20z m-2735 0 c21 -17 27
-39 16 -60 -14 -29 -46 -22 -50 9 -2 18 -10 29 -22 31 -22 5 -38 -17 -30 -38
4 -8 10 -31 13 -50 5 -29 11 -36 34 -38 23 -3 26 -6 16 -18 -6 -8 -24 -14 -39
-14 -71 0 -95 118 -33 167 31 25 71 30 95 11z m-1522 -77 c0 -14 3 -43 6 -63
6 -34 4 -38 -14 -38 -16 0 -22 10 -31 50 -14 65 -14 83 1 98 16 16 38 -11 38
-47z m260 18 c16 -29 -13 -63 -41 -48 -22 11 -25 39 -7 57 18 18 36 15 48 -9z
m1080 -4 c14 -17 8 -79 -11 -101 -6 -8 -19 -14 -29 -14 -20 0 -32 -31 -19 -51
4 -8 6 -24 2 -37 -4 -16 1 -30 16 -46 13 -14 17 -23 9 -23 -7 0 -21 -4 -30 -8
-26 -11 -44 30 -58 132 -14 104 -12 111 49 143 44 23 55 24 71 5z m2505 -7 c3
-13 13 -61 23 -108 18 -83 19 -85 46 -82 46 5 26 -20 -37 -47 -60 -26 -87 -21
-49 8 l23 17 -21 92 c-11 50 -20 94 -20 98 0 3 -9 3 -19 -1 -31 -10 -34 13 -4
29 39 21 52 20 58 -6z m242 -5 c10 -16 18 -46 18 -71 0 -35 -5 -48 -28 -68
-44 -38 -74 -41 -104 -11 -46 46 -31 145 26 166 46 17 70 12 88 -16z m-1597
-3 c0 -24 -26 -38 -42 -22 -16 16 -2 42 22 42 13 0 20 -7 20 -20z m-2690 -86
c0 -8 7 -26 16 -39 9 -13 13 -29 9 -35 -22 -36 -75 42 -55 80 12 22 30 18 30
-6z m2720 -44 c13 -58 18 -65 38 -63 41 5 23 -24 -29 -46 -29 -11 -56 -21 -60
-21 -16 0 -10 28 7 34 30 11 1 126 -31 126 -18 0 -20 26 -2 34 6 2 23 4 37 3
21 -2 26 -10 40 -67z m-3094 21 c-4 -5 -1 -11 4 -13 17 -5 28 -72 20 -117 -4
-23 -3 -41 1 -41 5 0 9 -5 9 -11 0 -15 -20 0 -31 24 -6 12 -19 37 -29 56 -19
33 -15 60 13 99 11 14 21 17 13 3z m204 -31 c0 -33 -19 -40 -40 -15 -16 20 -5
45 20 45 16 0 20 -7 20 -30z m1260 11 c5 -11 10 -39 10 -63 0 -26 8 -57 21
-77 14 -23 17 -37 10 -44 -16 -16 -47 18 -61 69 -7 24 -16 44 -20 44 -16 0
-19 45 -4 67 18 28 30 29 44 4z m502 -65 c-6 -14 -20 -30 -31 -36 -19 -10 -20
-8 -14 21 4 24 2 34 -10 41 -10 5 -17 13 -17 18 0 17 45 16 64 -1 16 -15 18
-22 8 -43z m-1685 23 c15 -15 5 -39 -17 -39 -19 0 -34 25 -24 41 7 12 28 11
41 -2z m1431 -40 c4 -35 -18 -53 -43 -35 -26 19 -13 69 18 64 15 -2 23 -11 25
-29z m2192 9 c8 -18 70 -290 70 -305 0 -6 -67 -33 -80 -33 -17 0 -11 20 8 27
9 4 20 11 23 15 3 5 -7 64 -22 131 -16 67 -29 125 -29 130 0 4 -13 7 -30 7
-39 0 -38 16 3 34 44 19 46 19 57 -6z m-1186 -30 c8 -32 -17 -56 -38 -38 -16
13 -21 42 -9 53 14 15 41 6 47 -15z m-1358 -18 c7 -14 15 -45 19 -68 6 -39 5
-43 -11 -40 -12 2 -23 19 -31 47 -7 25 -17 49 -23 55 -5 5 -10 16 -10 24 0 23
44 9 56 -18z m-1446 6 c0 -3 -4 -8 -10 -11 -5 -3 -10 -1 -10 4 0 6 5 11 10 11
6 0 10 -2 10 -4z m2674 -29 c28 -38 29 -126 2 -156 -10 -11 -23 -18 -27 -15
-5 3 -9 1 -9 -5 0 -19 -49 -24 -74 -7 -31 20 -51 104 -36 150 21 66 105 85
144 33z m-1324 -6 c0 -15 3 -49 6 -75 5 -37 4 -46 -8 -46 -10 0 -21 21 -32 61
-20 68 -16 89 14 89 15 0 20 -7 20 -29z m2453 7 c7 -21 -4 -38 -23 -38 -25 0
-35 18 -20 35 15 18 37 19 43 3z m-3825 -16 c7 -5 15 -25 19 -45 6 -39 3 -41
-46 -37 -16 1 -31 -7 -42 -22 -30 -39 -60 -6 -72 82 -2 15 11 16 49 5 14 -4
27 -1 35 9 16 17 37 20 57 8z m1278 -29 c9 -13 9 -22 2 -30 -15 -19 -28 -16
-37 10 -15 38 11 52 35 20z m2942 -5 c27 -27 6 -112 -30 -124 -28 -9 -32 1
-13 30 16 23 16 28 2 49 -25 38 10 76 41 45z m-1364 -14 c9 -8 16 -28 16 -43
0 -32 -34 -81 -56 -81 -17 0 -18 22 -3 37 9 9 9 20 -1 42 -10 25 -10 34 0 46
16 19 25 19 44 -1z m798 -15 c-28 -22 -28 -20 5 -166 l27 -122 30 -3 31 -3
-32 -18 c-57 -30 -59 -28 -92 116 -44 183 -44 188 -2 209 41 21 63 12 33 -13z
m198 -59 c14 -56 19 -65 39 -64 40 1 18 -27 -41 -51 -31 -13 -59 -20 -62 -17
-11 11 -6 21 14 27 23 7 26 38 10 97 -8 29 -14 35 -30 31 -28 -7 -26 21 3 35
39 19 50 10 67 -58z m-2671 46 c13 -15 27 -106 16 -106 -4 0 -18 9 -32 20 -35
27 -41 25 -39 -12 2 -50 -28 -49 -43 2 -18 61 -41 53 -28 -10 5 -28 7 -53 4
-57 -13 -12 -38 8 -43 37 -10 45 -24 36 -24 -15 0 -33 -4 -45 -15 -45 -15 0
-38 33 -29 42 2 3 0 18 -6 33 -15 40 -5 59 40 79 68 30 105 32 123 6 17 -24
37 -19 37 9 0 31 20 40 39 17z m-261 -135 c16 -55 5 -107 -21 -98 -13 4 -31
122 -22 145 10 26 29 5 43 -47z m1392 34 c0 -6 -48 -30 -77 -39 -13 -4 -23 -3
-23 2 0 9 31 23 57 26 6 1 15 5 19 9 8 8 24 10 24 2z m1198 -32 c2 -7 -4 -13
-13 -13 -27 0 -55 -19 -49 -35 3 -8 23 -15 46 -17 47 -3 64 -23 54 -62 -11
-46 -116 -82 -116 -40 0 9 11 14 29 14 31 0 57 22 46 40 -3 5 -24 10 -46 10
-32 0 -41 4 -51 25 -9 19 -8 31 2 49 21 40 87 60 98 29z m-2718 -21 c0 -9 9
-35 21 -56 22 -42 13 -69 -13 -39 -18 21 -37 82 -31 101 7 18 23 15 23 -6z
m1098 -5 c4 -20 -25 -34 -40 -19 -15 15 -1 44 19 40 10 -2 19 -11 21 -21z
m5152 17 c0 -3 -6 -12 -14 -19 -15 -16 -14 -149 3 -168 5 -7 12 -29 16 -50 5
-26 15 -42 33 -51 l26 -13 -24 -8 c-18 -6 -28 -2 -42 15 -10 12 -18 31 -18 42
0 28 -18 58 -35 58 -19 0 -19 16 0 23 11 5 13 19 8 72 -5 54 -3 68 12 85 17
19 35 26 35 14z m-4715 -23 c-13 -13 -95 -40 -95 -32 0 7 69 39 90 40 9 1 10
-2 5 -8z m945 -11 c9 -16 15 -18 37 -9 41 15 52 -6 13 -26 -31 -16 -32 -19
-26 -62 8 -59 20 -74 57 -66 19 3 29 1 29 -6 0 -16 -58 -40 -81 -34 -15 4 -37
47 -55 111 -2 6 -13 12 -24 12 -23 0 -27 25 -5 34 9 3 15 18 15 36 0 35 23 41
40 10z m-2649 -101 c17 -47 17 -50 1 -47 -23 4 -45 54 -37 85 8 32 14 26 36
-38z m1299 -2 c10 -38 24 -65 39 -77 l24 -17 -24 -17 c-14 -8 -39 -19 -57 -22
-25 -5 -32 -3 -32 10 0 9 5 16 10 16 13 0 13 35 -1 83 -5 21 -16 37 -24 37
-18 0 -19 22 -3 38 28 28 52 9 68 -51z m-1610 14 c0 -10 9 -51 19 -91 14 -54
17 -78 9 -87 -18 -22 -25 -15 -31 32 -2 25 -12 54 -21 64 -15 17 -23 91 -10
104 11 10 34 -5 34 -22z m229 -25 c5 -19 4 -36 -2 -43 -14 -19 -27 -16 -27 8
0 11 -5 29 -10 40 -6 11 -8 24 -5 29 10 17 35 -2 44 -34z m2632 -42 c-6 -145
-32 -160 -105 -62 -49 66 -55 83 -31 92 11 4 27 -11 53 -46 l37 -52 11 74 c14
90 11 83 27 77 8 -3 11 -26 8 -83z m3520 -21 c39 -42 53 -86 46 -147 -5 -54
-37 -131 -44 -109 -2 6 0 29 6 50 24 86 10 153 -43 202 -30 29 -36 57 -8 42 9
-5 29 -22 43 -38z m-6606 -1 c-28 -73 -12 -153 42 -213 30 -33 33 -40 21 -53
-23 -23 -72 15 -104 80 -23 46 -26 64 -21 112 2 31 10 69 17 84 11 23 16 26
32 17 13 -7 17 -16 13 -27z m340 -50 c-10 -10 -35 29 -35 53 0 39 13 36 28 -6
7 -22 10 -44 7 -47z m2341 34 c-34 -119 -26 -177 35 -235 43 -43 49 -61 20
-61 -53 0 -120 99 -121 177 0 46 26 134 43 145 18 11 29 -2 23 -26z m209 28
c20 -8 48 -61 39 -75 -3 -6 -26 -19 -51 -30 -32 -14 -43 -24 -41 -36 4 -19 11
-20 66 -8 44 10 43 -12 -3 -31 -51 -21 -81 -18 -104 12 -58 74 12 199 94 168z
m-1385 -29 c19 -22 3 -34 -39 -28 -36 5 -39 3 -44 -23 -3 -16 -1 -53 5 -82 11
-56 8 -68 -16 -59 -16 6 -33 55 -42 124 l-7 42 41 11 c23 6 44 15 47 20 9 15
41 12 55 -5z m-1365 -62 c17 -40 13 -53 -13 -37 -19 12 -29 74 -13 74 6 0 18
-16 26 -37z m1175 -18 c16 -19 40 -122 33 -141 -3 -8 -10 -14 -16 -14 -6 0
-30 -10 -54 -21 -42 -20 -45 -21 -63 -4 -25 23 -25 46 0 73 27 28 44 28 37 0
-3 -13 0 -31 7 -41 12 -16 15 -16 26 -1 11 12 11 22 2 48 -7 18 -12 41 -12 51
0 10 -8 24 -17 31 -16 12 -16 15 -3 24 22 14 46 12 60 -5z m8605 6 c3 -6 -3
-15 -14 -21 -21 -11 -37 2 -26 20 8 13 32 13 40 1z m-3471 -32 c5 -28 9 -31
33 -25 26 5 27 5 6 -6 -19 -9 -23 -19 -23 -55 0 -27 -4 -42 -10 -38 -5 3 -10
18 -10 32 0 24 -2 25 -37 20 l-37 -6 30 18 c27 16 30 23 26 55 -5 44 13 48 22
5z m-3983 0 c12 -17 18 -19 42 -10 21 8 27 8 27 -4 0 -7 -10 -17 -22 -21 -33
-10 -37 -21 -25 -67 14 -58 25 -70 59 -63 35 7 37 -7 3 -22 -54 -25 -83 -7
-100 63 -8 35 -24 57 -35 50 -5 -3 -11 -1 -15 5 -3 6 1 13 9 16 10 4 16 19 16
40 0 39 20 46 41 13z m-1331 -62 c0 -45 -20 -150 -30 -160 -16 -17 -48 4 -88
59 -23 31 -42 61 -42 66 0 19 33 21 47 2 32 -44 54 -64 63 -59 6 3 10 30 10
59 0 55 4 66 27 66 8 0 13 -12 13 -33z m4970 7 c0 -8 -9 -14 -20 -14 -22 0
-28 26 -7 33 16 6 27 -1 27 -19z m178 -10 c6 -29 18 -37 41 -25 12 7 21 8 21
2 0 -5 -9 -13 -20 -16 -16 -5 -20 -15 -20 -51 0 -51 -15 -59 -24 -13 -5 29 -9
31 -36 26 -37 -8 -39 0 -4 13 24 10 26 14 20 51 -5 31 -3 40 6 37 7 -3 15 -13
16 -24z m-5395 -10 c-1 -10 -5 -38 -9 -61 -10 -64 2 -106 46 -156 22 -25 40
-50 40 -56 0 -24 -42 -9 -78 27 -61 61 -75 172 -31 254 13 24 35 18 32 -8z
m1470 -28 c16 -16 41 -131 32 -146 -13 -22 -25 -7 -43 53 -14 48 -23 63 -39
65 -29 4 -35 -21 -22 -90 8 -41 9 -62 1 -70 -18 -18 -30 0 -47 77 -17 78 -15
95 13 95 9 0 26 7 36 15 25 19 51 19 69 1z m3766 -56 c6 -28 11 -57 11 -65 0
-7 12 -15 28 -17 25 -4 24 -5 -21 -26 -58 -26 -80 -28 -50 -4 20 16 20 21 10
74 -9 50 -13 57 -36 61 l-26 3 25 11 c42 19 48 15 59 -37z m-3927 -45 c13 -28
5 -55 -17 -55 -26 0 -75 -29 -75 -45 0 -19 34 -28 73 -20 44 10 23 -12 -29
-30 -49 -17 -74 -4 -92 50 -19 58 -1 102 51 125 47 21 71 14 89 -25z m-196
-38 c3 -8 1 -49 -5 -92 -10 -82 -27 -114 -54 -98 -25 13 -99 124 -93 139 8 22
22 17 50 -18 53 -66 50 -64 57 -37 4 13 7 42 8 65 1 22 4 44 8 47 10 11 23 8
29 -6z m3782 -40 c2 -19 -1 -27 -13 -27 -19 0 -30 24 -21 46 9 23 31 11 34
-19z m-5212 2 c12 -19 -12 -32 -36 -19 -18 10 -20 14 -9 21 19 12 36 11 45 -2z
m1209 -9 c-3 -5 -14 -10 -24 -10 -38 0 -52 -41 -29 -83 7 -12 13 -39 13 -60 2
-49 14 -61 50 -47 15 6 30 8 32 6 6 -6 -76 -46 -94 -46 -19 0 -72 195 -57 210
11 11 83 38 102 39 7 1 10 -3 7 -9z m3783 -47 c7 -32 14 -76 15 -98 1 -22 6
-43 12 -47 6 -5 5 -12 -2 -19 -15 -15 -15 -16 -42 114 -25 115 -24 107 -8 107
8 0 18 -24 25 -57z m-5075 -25 c4 -35 8 -72 9 -83 2 -14 -3 -20 -17 -20 -16 0
-23 13 -38 68 -19 73 -14 97 23 97 14 0 18 -12 23 -62z m5165 30 c12 -16 36
-127 29 -135 -10 -10 -28 9 -23 24 3 8 -1 37 -10 65 -14 40 -20 49 -35 45 -11
-3 -17 -1 -13 4 8 13 40 11 52 -3z m-5278 -38 c25 -25 35 -66 24 -99 -13 -35
-28 -29 -32 13 -2 21 -13 44 -27 58 -17 17 -21 26 -13 35 14 18 25 16 48 -7z
m8760 -14 c0 -5 -7 -3 -15 4 -8 7 -12 17 -9 22 7 10 24 -9 24 -26z m-3720 9
c0 -9 7 -18 15 -21 11 -4 12 -10 6 -18 -6 -8 -6 -31 2 -66 12 -53 14 -55 44
-55 36 0 31 -10 -9 -20 -31 -8 -52 17 -62 78 -4 20 -10 37 -14 37 -4 0 -7 18
-7 40 0 26 4 40 12 40 7 0 13 -7 13 -15z m398 3 c32 -32 -2 -117 -47 -118 -12
0 -12 2 1 13 20 15 24 33 14 69 -12 41 7 61 32 36z m3246 -4 c9 -22 8 -24 -9
-24 -8 0 -15 9 -15 20 0 24 15 27 24 4z m-8953 -7 c-1 -4 6 -23 14 -43 8 -20
15 -51 15 -68 0 -17 4 -45 9 -62 5 -17 5 -37 1 -44 -9 -15 -30 -5 -30 14 0 7
-11 34 -25 60 -24 45 -27 88 -9 144 4 14 26 13 25 -1z m1689 -6 c0 -5 -9 -11
-20 -14 -22 -6 -28 8 -7 16 19 8 27 8 27 -2z m-1520 -52 c0 -26 7 -50 20 -66
20 -26 19 -43 -4 -43 -38 0 -73 103 -46 135 21 25 30 17 30 -26z m1355 16 c39
-38 31 -52 -37 -74 -30 -10 -38 -18 -38 -36 0 -24 30 -42 50 -30 5 3 10 2 10
-3 0 -16 -53 -30 -77 -21 -27 10 -47 69 -39 115 5 26 16 39 44 54 48 25 58 25
87 -5z m3745 -15 c0 -5 -2 -10 -4 -10 -3 0 -8 5 -11 10 -3 6 -1 10 4 10 6 0
11 -4 11 -10z m3525 -50 c20 -22 13 -42 -7 -22 -7 7 -21 12 -33 12 -18 0 -55
43 -55 64 0 10 77 -34 95 -54z m-3579 -10 c0 -31 -5 -50 -12 -50 -7 0 -10 8
-8 18 7 29 -11 45 -41 38 -20 -5 -26 -12 -22 -26 3 -10 1 -20 -3 -22 -5 -2 -2
-12 6 -22 12 -16 18 -18 39 -8 34 16 32 6 -4 -12 -16 -9 -32 -12 -36 -8 -5 4
-5 -1 -2 -11 4 -10 7 -23 7 -28 0 -6 4 -8 8 -5 5 3 8 -17 8 -43 -1 -33 -5 -47
-13 -44 -17 7 -25 35 -14 46 7 7 7 15 0 23 -12 15 -21 99 -14 134 4 18 19 32
48 46 23 12 45 22 48 22 3 1 5 -20 5 -48z m-3874 -62 c-18 -126 -40 -135 -107
-43 -48 67 -54 85 -26 85 13 0 30 -14 46 -40 38 -60 55 -49 55 34 0 45 17 73
34 56 6 -6 5 -39 -2 -92z m7237 26 c13 -30 7 -60 -14 -68 -12 -4 -15 5 -15 44
0 55 10 64 29 24z m-3539 -19 c7 -8 16 -34 21 -58 4 -23 11 -50 14 -59 4 -10
3 -18 -3 -18 -5 0 -15 22 -22 49 -6 27 -18 58 -25 68 -25 32 -11 49 15 18z
m-3869 -43 c19 -37 12 -94 -15 -120 -19 -19 -31 -10 -21 15 28 64 -3 122 -60
114 -5 -1 -1 6 10 14 31 25 68 15 86 -23z m3794 0 c-3 -9 -1 -40 6 -70 10 -49
7 -74 -7 -60 -14 14 -40 148 -30 151 19 7 37 -5 31 -21z m3519 12 c9 -22 -3
-32 -14 -14 -12 19 -12 30 -1 30 5 0 12 -7 15 -16z m-7430 -44 c-6 -45 -4 -51
24 -79 16 -17 27 -33 24 -36 -10 -9 -48 -5 -60 7 -9 9 -13 7 -17 -5 -3 -9 -7
-24 -10 -33 -9 -28 -30 -9 -46 41 -8 27 -21 51 -27 53 -14 4 -15 -9 -2 -63 10
-41 5 -75 -10 -75 -5 0 -16 24 -25 53 -27 83 -38 82 -30 -2 5 -58 4 -72 -7
-69 -14 5 -35 59 -44 118 -6 37 -5 39 32 55 111 48 103 46 129 29 23 -15 25
-15 31 2 7 19 34 54 41 54 2 0 1 -22 -3 -50z m4208 -23 c-5 -21 -5 -21 -15 1
-6 12 -14 22 -19 22 -4 0 -8 4 -8 10 0 6 9 5 24 -1 17 -8 22 -17 18 -32z
m-607 -19 c4 -24 10 -50 12 -58 2 -8 6 -32 8 -53 2 -22 11 -44 21 -51 15 -11
12 -15 -26 -30 -23 -9 -45 -15 -47 -12 -3 3 6 8 21 12 14 3 26 8 26 10 0 2
-10 47 -21 101 -22 100 -33 120 -56 101 -9 -7 -13 -7 -13 0 0 11 50 32 61 26
4 -2 10 -23 14 -46z m210 42 c4 -6 10 -8 15 -5 12 7 21 -37 9 -51 -5 -6 -22
-14 -37 -17 -61 -13 -77 -53 -30 -74 28 -12 10 -23 -20 -12 -40 15 -51 91 -21
138 8 12 9 10 5 -11 -11 -49 0 -58 45 -39 21 9 39 21 39 28 0 21 -29 41 -52
36 -19 -4 -20 -3 -8 6 19 14 47 14 55 1z m3385 -5 c0 -8 -4 -15 -9 -15 -13 0
-22 16 -14 24 11 11 23 6 23 -9z m98 -87 c14 -16 13 -18 -1 -18 -21 0 -37 31
-36 67 l1 28 10 -30 c6 -16 17 -38 26 -47z m-3123 22 c-3 -5 -12 -10 -18 -10
-7 0 -6 4 3 10 19 12 23 12 15 0z m-4425 -65 c0 -14 -3 -25 -7 -26 -5 0 -16
-2 -25 -4 -13 -2 -18 3 -18 17 0 12 -8 27 -17 34 -15 12 -16 15 -4 23 24 15
71 -14 71 -44z m7221 -28 c-7 -7 -14 -1 -21 17 -14 38 -1 54 16 20 10 -18 11
-31 5 -37z m-7335 38 c-3 -8 1 -29 8 -47 7 -18 12 -38 9 -45 -2 -6 6 -18 19
-27 19 -14 21 -18 8 -26 -21 -14 -26 -13 -55 13 -36 31 -43 84 -15 120 24 30
35 35 26 12z m4199 -15 c-3 -5 -14 -10 -23 -10 -15 0 -15 2 -2 10 20 13 33 13
25 0z m3060 -31 c18 -34 17 -80 -2 -87 -9 -2 -13 9 -13 36 0 23 -7 47 -15 56
-19 18 -19 26 0 26 8 0 22 -14 30 -31z m149 25 c9 -4 16 -18 16 -33 l0 -26
-20 25 c-28 36 -27 46 4 34z m-7496 -32 c4 -25 -1 -27 -28 -12 -12 6 -17 16
-13 26 8 22 37 13 41 -14z m-84 -37 c-3 -13 -1 -48 6 -76 9 -36 9 -54 2 -61
-19 -19 -37 6 -51 71 -16 71 -11 91 24 91 22 0 25 -3 19 -25z m3811 -4 c-6 -5
-21 -12 -35 -15 l-25 -7 25 15 c28 17 50 21 35 7z m3533 -16 c9 -20 9 -25 -2
-25 -13 0 -26 20 -26 41 0 18 17 8 28 -16z m-112 7 c13 -9 74 -109 74 -122 0
-13 -7 -13 -31 0 -10 6 -19 21 -19 33 0 33 -24 62 -44 54 -11 -4 -16 -1 -16
12 0 28 15 38 36 23z m-3636 -49 c0 -12 7 -14 33 -10 l32 6 -27 -15 c-16 -8
-28 -22 -28 -32 0 -36 22 -92 41 -105 17 -12 17 -15 5 -20 -9 -4 -22 1 -30 9
-15 14 -36 75 -36 102 0 6 -7 12 -16 12 -13 0 -14 3 -5 14 7 8 11 20 10 28 -3
26 1 39 11 33 6 -3 10 -13 10 -22z m214 -12 c31 3 66 -13 66 -31 0 -4 -8 -18
-18 -30 l-18 -22 1 28 c0 27 -3 29 -43 32 -45 3 -60 19 -47 50 6 15 8 14 16
-6 7 -19 15 -23 43 -21z m201 19 c8 -26 -1 -40 -26 -40 -13 0 -19 7 -19 23 0
40 34 53 45 17z m920 -10 c0 -13 -6 -25 -12 -27 -16 -6 -27 21 -19 43 9 23 31
11 31 -16z m-199 -9 c42 -26 69 -84 69 -151 0 -61 -32 -150 -46 -128 -4 7 -3
18 3 25 6 7 13 41 15 76 6 72 -7 106 -57 153 -47 45 -39 58 16 25z m2228 -132
c19 -104 19 -99 1 -99 -11 0 -15 11 -15 43 0 23 -6 51 -13 62 -9 12 -12 37 -9
64 6 58 16 39 36 -70z m248 79 c5 -14 -14 -58 -24 -58 -9 0 -10 17 -2 48 7 24
20 29 26 10z m-3705 -98 c-15 -100 -29 -111 -74 -53 -52 68 -65 93 -49 93 7 0
31 -25 51 -55 21 -30 40 -53 43 -50 3 2 6 26 8 52 6 77 15 116 24 107 5 -5 4
-45 -3 -94z m1461 68 c20 -20 14 -63 -14 -93 -14 -15 -28 -24 -32 -20 -4 4 0
12 9 18 13 8 15 17 7 45 -14 51 2 78 30 50z m-1153 -8 c-3 -5 -16 -10 -28 -9
-20 1 -20 2 3 9 14 4 26 8 28 9 2 1 0 -3 -3 -9z m832 -41 c18 -37 28 -119 16
-119 -6 0 -16 21 -22 48 -17 65 -25 77 -50 75 -23 -3 -29 12 -8 21 25 10 52 0
64 -25z m2093 11 c0 -5 -4 -10 -10 -10 -5 0 -10 5 -10 10 0 6 5 10 10 10 6 0
10 -4 10 -10z m-3035 -20 c-3 -5 -11 -10 -16 -10 -6 0 -7 5 -4 10 3 6 11 10
16 10 6 0 7 -4 4 -10z m859 -24 c-3 -12 0 -44 6 -70 7 -30 7 -53 2 -58 -6 -6
-12 -6 -16 0 -9 15 -35 145 -30 153 2 4 13 5 24 2 15 -4 18 -11 14 -27z
m-1230 -8 c23 -32 21 -36 -31 -61 -58 -27 -65 -35 -51 -60 8 -15 17 -18 46
-14 l37 5 -34 -14 c-29 -13 -36 -13 -56 0 -12 8 -25 27 -28 42 -5 30 10 84 24
84 6 0 5 -9 -1 -20 -17 -32 -3 -40 38 -23 52 21 55 27 34 54 -18 21 -22 22
-48 11 -27 -11 -27 -11 -10 3 28 22 62 19 80 -7z m3555 -65 c9 -19 9 -23 -2
-23 -15 0 -37 41 -37 69 0 31 15 34 21 4 3 -15 11 -38 18 -50z m-2403 19 c3
-15 10 -43 15 -62 10 -38 0 -56 -26 -47 -11 5 -14 14 -9 32 5 21 3 25 -14 25
-26 0 -54 -28 -50 -49 3 -11 13 -15 31 -14 34 2 34 -3 -1 -21 -48 -25 -79 13
-52 64 5 10 26 24 45 30 19 6 35 17 35 25 0 22 -27 36 -54 29 -37 -9 -32 4 6
21 40 16 65 5 74 -33z m2287 -28 c9 -36 14 -70 11 -75 -12 -20 -22 -7 -29 39
-3 26 -13 57 -20 68 -8 12 -11 24 -8 28 17 17 30 0 46 -60z m-222 9 c7 -16 14
-46 14 -68 1 -22 5 -55 9 -74 6 -25 5 -32 -5 -29 -19 6 -59 198 -41 198 5 0
15 -12 23 -27z m-2171 7 c0 -5 -2 -10 -4 -10 -3 0 -8 5 -11 10 -3 6 -1 10 4
10 6 0 11 -4 11 -10z m-63 -22 c15 -19 36 -116 29 -134 -10 -27 -25 -5 -37 57
-7 34 -18 63 -25 66 -16 6 -8 23 10 23 8 0 18 -6 23 -12z m2331 -21 c7 -15 12
-44 10 -65 l-3 -37 -18 58 c-10 31 -22 57 -27 57 -6 0 -10 5 -10 11 0 21 35 3
48 -24z m-192 -2 c3 -14 1 -39 -6 -55 -6 -16 -9 -34 -5 -39 8 -14 35 -14 35
-1 0 22 18 8 22 -17 3 -16 7 -34 9 -42 7 -26 -31 -24 -52 3 -23 29 -54 34 -63
10 -7 -19 10 -54 26 -54 8 0 9 -3 2 -10 -14 -14 -42 -3 -49 20 -3 10 0 29 6
44 9 20 9 32 1 51 -14 31 -16 85 -3 85 5 0 11 -12 13 -27 3 -31 32 -43 42 -18
3 9 -1 29 -9 46 -15 27 -14 29 5 29 13 0 22 -9 26 -25z m-2188 5 c4 0 7 -15 8
-32 0 -18 4 -52 9 -75 6 -36 5 -43 -8 -43 -11 0 -19 19 -29 63 -9 37 -19 61
-26 60 -16 -4 -15 24 1 30 6 3 18 4 25 1 8 -2 17 -4 20 -4z m-1308 -19 c0 -11
-7 -27 -16 -36 -9 -8 -17 -29 -18 -46 -1 -27 4 -32 33 -42 44 -15 56 -41 14
-31 -47 12 -93 34 -93 44 0 9 72 130 77 130 2 0 3 -9 3 -19z m1256 -76 c7 -39
13 -73 13 -77 1 -5 -5 -8 -13 -8 -8 0 -18 21 -25 58 -6 31 -14 68 -18 81 -5
19 -2 22 13 19 14 -2 21 -19 30 -73z m-67 -19 c16 -83 15 -100 -5 -92 -11 4
-22 -1 -31 -14 -16 -22 -55 -27 -71 -7 -9 11 -32 103 -32 127 0 6 6 10 14 10
8 0 18 -22 26 -61 8 -35 19 -63 28 -66 15 -6 51 33 47 51 -11 58 -16 107 -10
116 11 19 21 0 34 -64z m-167 -47 c21 -91 22 -119 4 -119 -8 0 -16 16 -20 40
-7 44 -13 47 -58 24 -29 -15 -30 -17 -24 -65 5 -38 4 -49 -7 -49 -9 0 -20 26
-31 78 -9 43 -19 88 -23 100 -4 16 -1 22 10 22 10 0 18 -13 23 -35 8 -45 14
-48 58 -30 l37 16 -7 51 c-11 80 17 57 38 -33z m2308 -5 c9 -38 19 -75 23 -81
6 -10 -19 -41 -27 -32 -2 2 -9 33 -15 69 -7 36 -17 71 -23 77 -6 7 -7 20 -4
29 12 31 29 7 46 -62z m-3720 41 c0 -16 -27 -32 -37 -22 -3 4 -3 13 0 22 8 20
37 20 37 0z m29 -135 c16 -63 17 -65 46 -62 39 5 24 -10 -35 -33 -25 -9 -51
-19 -57 -22 -7 -3 -13 0 -13 5 0 6 9 14 20 17 23 7 25 27 9 91 -8 31 -16 44
-28 43 -32 -3 -36 2 -11 16 41 24 52 15 69 -55z m1198 28 c3 -50 -17 -86 -58
-100 -16 -5 -29 -14 -29 -19 0 -19 31 -21 69 -6 36 15 40 15 56 -3 16 -18 16
-20 -1 -49 -19 -32 -80 -65 -110 -59 -15 3 -21 18 -30 78 -6 41 -13 76 -14 78
-6 6 -5 29 2 53 8 23 74 67 103 68 6 1 11 -18 12 -41z m-4019 -20 c3 -12 14
-39 26 -62 16 -31 21 -60 21 -120 0 -109 -21 -115 -30 -9 -5 44 -16 93 -26
113 -11 19 -19 40 -19 47 0 7 -10 22 -22 33 -19 17 -20 22 -8 30 19 12 51 -6
58 -32z m6118 5 c4 -16 10 -32 14 -38 12 -16 20 -155 9 -155 -5 0 -9 1 -9 3 0
2 -9 46 -20 97 -11 51 -20 100 -20 107 0 24 20 13 26 -14z m96 -25 c19 -15 40
-115 27 -124 -10 -5 -29 37 -29 62 0 26 -20 54 -38 54 -15 0 -15 2 -2 10 20
13 23 12 42 -2z m-197 -93 c9 -44 20 -88 26 -98 11 -21 4 -37 -17 -37 -8 0
-14 10 -14 24 0 44 -30 170 -43 178 -9 6 -8 10 3 18 22 14 28 3 45 -85z
m-2170 60 c48 -47 26 -133 -39 -155 -41 -13 -60 -6 -75 26 -29 65 13 150 77
153 7 1 24 -10 37 -24z m-230 -57 c31 -141 33 -147 55 -141 38 10 20 -8 -32
-32 -57 -26 -73 -25 -39 2 l22 18 -23 95 c-21 88 -25 95 -46 93 -14 -2 -21 1
-17 8 6 9 41 27 57 28 3 1 14 -32 23 -71z m-1164 1 c11 -21 0 -38 -24 -39 -11
0 -20 28 -13 45 8 21 23 19 37 -6z m-132 -41 c28 -29 34 -74 18 -128 l-13 -45
-1 54 c0 39 -6 58 -18 67 -9 7 -15 17 -12 21 7 12 -3 27 -28 41 -19 11 -18 11
7 12 15 0 36 -9 47 -22z m-91 -116 c7 -2 12 -12 12 -22 0 -10 10 -26 22 -34
l22 -16 -26 0 c-14 0 -30 6 -36 13 -19 24 -35 95 -27 124 8 27 9 26 15 -16 4
-25 12 -47 18 -49z m269 11 c-7 -40 -32 -73 -56 -73 -14 1 -14 2 2 14 19 14
23 51 7 61 -14 9 -12 42 3 48 6 2 20 0 31 -5 14 -8 17 -17 13 -45z m3244 -10
c7 -20 7 -28 -3 -34 -9 -6 -14 -2 -16 11 -2 11 -13 27 -25 35 -21 15 -21 15 6
15 21 0 30 -7 38 -27z m-94 -30 c-2 -23 2 -27 18 -25 19 2 19 2 1 -12 -22 -18
-15 -46 15 -53 16 -4 17 -8 7 -14 -19 -13 -26 -11 -48 11 -22 22 -26 70 -10
101 15 26 19 24 17 -8z m-117 -26 c-28 -10 -37 -19 -44 -49 -11 -44 12 -88 47
-89 l22 0 -22 -11 c-17 -8 -28 -7 -48 6 -56 37 -15 157 53 155 25 0 25 -1 -8
-12z m-3590 -37 c-8 -5 -19 -10 -25 -10 -5 0 -3 5 5 10 8 5 20 10 25 10 6 0 3
-5 -5 -10z m970 -4 c0 -17 -27 -29 -35 -16 -4 6 -3 15 0 20 9 15 35 12 35 -4z
m401 -40 c15 -31 -16 -100 -46 -104 -19 -3 -19 -2 -2 11 20 17 22 36 5 72 -10
22 -9 28 3 36 22 14 28 11 40 -15z m2095 -6 c19 -39 28 -110 15 -110 -7 0 -13
6 -15 13 -2 6 -9 32 -16 56 -8 29 -18 45 -32 49 -15 4 -17 7 -6 13 21 14 42 6
54 -21z m-3870 -19 c-10 -16 -36 -13 -36 3 0 17 21 27 34 16 4 -5 5 -13 2 -19z"/>
<path d="M6203 7283 c-15 -5 -17 -39 -4 -47 13 -8 38 3 45 20 6 15 -22 34 -41
27z"/>
<path d="M2614 7136 c-11 -30 0 -61 24 -64 21 -3 23 0 20 35 -3 40 -32 59 -44
29z"/>
<path d="M4250 7135 c-11 -29 4 -81 26 -89 28 -11 44 5 44 44 0 60 -51 94 -70
45z"/>
<path d="M8312 6925 c-23 -50 -7 -130 23 -119 51 20 45 143 -6 144 -3 0 -11
-11 -17 -25z"/>
<path d="M870 6475 c0 -16 16 -20 24 -6 3 5 -1 11 -9 15 -9 3 -15 0 -15 -9z"/>
<path d="M5767 6549 c-19 -11 -21 -18 -8 -38 10 -16 51 -6 51 13 0 22 -23 36
-43 25z"/>
<path d="M6757 6354 c-10 -11 -9 -54 3 -54 24 0 61 25 58 39 -3 17 -48 27 -61
15z"/>
<path d="M6407 6224 c-9 -10 -9 -54 1 -54 32 1 53 15 50 34 -3 21 -37 34 -51
20z"/>
<path d="M1433 6063 c-18 -7 -16 -23 1 -23 29 0 29 -23 0 -46 -20 -16 -25 -27
-18 -34 7 -7 18 -1 37 20 15 16 27 34 27 40 0 5 5 10 10 10 6 0 10 9 10 20 0
15 -6 20 -27 19 -16 0 -34 -3 -40 -6z"/>
<path d="M5870 6015 c-14 -17 -7 -45 13 -45 7 0 22 6 32 14 16 12 17 16 6 30
-17 20 -35 20 -51 1z"/>
<path d="M5527 5797 c-3 -8 -1 -20 4 -28 10 -17 44 0 44 22 0 19 -41 24 -48 6z"/>
<path d="M5334 5805 c-10 -25 10 -39 36 -25 26 14 22 34 -8 38 -13 2 -25 -3
-28 -13z"/>
<path d="M6168 5545 c-13 -29 -1 -96 19 -102 6 -2 19 7 28 21 13 20 14 31 5
65 -12 47 -35 54 -52 16z"/>
<path d="M5291 5141 c-8 -6 -11 -16 -7 -27 6 -16 8 -16 23 -1 20 19 6 41 -16
28z"/>
<path d="M7574 4985 c-8 -43 2 -84 22 -92 20 -7 24 -2 31 40 8 51 -3 87 -27
87 -14 0 -21 -9 -26 -35z"/>
<path d="M4925 4989 c-4 -6 -4 -13 -1 -16 8 -8 36 5 36 17 0 13 -27 13 -35 -1z"/>
<path d="M7751 5077 c-28 -34 -18 -113 15 -124 38 -12 61 89 28 121 -19 20
-28 20 -43 3z"/>
<path d="M8499 4863 c-13 -34 -8 -65 11 -71 8 -3 12 -1 8 3 -4 4 2 21 13 37
12 16 18 35 15 43 -9 24 -36 17 -47 -12z"/>
<path d="M8541 4794 c-24 -40 -26 -60 -9 -70 18 -11 48 34 48 72 0 44 -13 43
-39 -2z"/>
<path d="M7262 4798 c-14 -14 -16 -48 -4 -48 12 0 42 34 42 48 0 16 -23 15
-38 0z"/>
<path d="M3997 4716 c-6 -15 1 -26 15 -26 11 0 10 27 -1 34 -5 3 -11 0 -14 -8z"/>
<path d="M7856 4574 c-27 -27 -16 -114 15 -114 23 0 34 37 25 85 -8 42 -19 50
-40 29z"/>
<path d="M6393 4453 c-14 -5 -18 -43 -5 -43 12 0 32 23 32 37 0 13 -6 15 -27
6z"/>
<path d="M7715 4438 c-24 -14 -35 -29 -29 -40 10 -16 31 -8 44 17 16 30 12 37
-15 23z"/>
<path d="M7512 4429 c-17 -26 -4 -40 26 -28 26 10 29 34 6 43 -9 3 -16 6 -17
6 -1 0 -8 -10 -15 -21z"/>
<path d="M4471 4336 c-9 -10 -8 -16 4 -26 13 -11 19 -11 32 2 16 17 10 38 -11
38 -8 0 -19 -6 -25 -14z"/>
<path d="M6822 4150 c-10 -17 -10 -21 2 -26 19 -7 58 14 53 29 -6 21 -41 19
-55 -3z"/>
<path d="M4930 4020 c0 -11 7 -20 15 -20 8 0 15 9 15 20 0 11 -7 20 -15 20 -8
0 -15 -9 -15 -20z"/>
<path d="M4942 3878 c2 -15 11 -24 26 -26 20 -3 23 0 20 20 -2 15 -11 24 -26
26 -20 3 -23 0 -20 -20z"/>
<path d="M6513 3959 c-16 -6 -23 -17 -23 -34 0 -32 23 -33 43 -2 19 30 9 47
-20 36z"/>
<path d="M6135 3886 c-13 -9 -16 -20 -11 -39 7 -29 24 -35 44 -15 30 30 0 78
-33 54z"/>
<path d="M6170 3737 c-52 -26 -27 -72 26 -48 18 8 24 18 22 33 -4 27 -16 31
-48 15z"/>
<path d="M5973 3743 c-7 -2 -13 -16 -13 -29 0 -30 34 -33 50 -5 19 37 4 51
-37 34z"/>
<path d="M6751 3581 c-15 -27 -3 -53 23 -49 16 2 21 10 21 33 0 36 -28 46 -44
16z"/>
<path d="M6793 3450 c-34 -14 -32 -60 1 -60 28 0 57 35 49 56 -6 16 -18 17
-50 4z"/>
<path d="M5404 3635 c-9 -23 5 -65 21 -65 8 0 22 11 31 25 13 20 14 28 4 40
-16 19 -49 19 -56 0z"/>
<path d="M5427 3543 c-12 -11 -8 -50 7 -62 27 -22 72 21 59 57 -5 13 -55 17
-66 5z"/>
<path d="M6402 3448 c-13 -13 -16 -41 -6 -51 6 -6 51 10 68 24 12 11 -12 39
-33 39 -9 0 -22 -5 -29 -12z"/>
<path d="M4701 3298 c-12 -32 2 -44 34 -30 32 15 30 46 -3 50 -16 2 -25 -3
-31 -20z"/>
<path d="M4346 3164 c-19 -18 -20 -26 -5 -41 8 -8 18 -8 35 -1 27 13 32 43 8
52 -21 8 -20 8 -38 -10z"/>
<path d="M7063 3097 c-26 -11 -32 -57 -8 -57 16 0 38 35 33 54 -2 10 -9 11
-25 3z"/>
<path d="M5358 3029 c-18 -10 -25 -54 -10 -63 13 -8 74 23 70 36 -8 22 -42 37
-60 27z"/>
<path d="M6341 2868 c-5 -13 -5 -30 1 -41 14 -27 50 -4 46 31 -4 35 -35 42
-47 10z"/>
<path d="M6378 2729 c-22 -13 -24 -49 -2 -49 27 0 54 20 54 40 0 22 -24 26
-52 9z"/>
<path d="M3423 2784 c-7 -18 6 -45 25 -52 18 -6 36 37 21 54 -15 19 -38 18
-46 -2z"/>
<path d="M6164 2795 c-17 -27 -14 -76 7 -102 15 -18 26 -16 49 7 24 24 26 67
4 98 -20 29 -40 28 -60 -3z"/>
<path d="M4080 2531 c-5 -11 -10 -31 -10 -45 0 -20 5 -26 21 -26 18 0 20 -5
16 -27 -7 -36 1 -53 24 -53 42 0 54 92 12 98 -19 3 -21 7 -13 26 15 41 -29 64
-50 27z"/>
<path d="M4400 2065 c-17 -20 -5 -46 17 -38 34 12 44 24 32 39 -15 18 -33 18
-49 -1z"/>
<path d="M3672 1759 c-18 -28 -2 -44 33 -35 20 5 26 12 23 29 -4 30 -39 34
-56 6z"/>
<path d="M3122 1538 c-14 -14 -16 -44 -3 -52 15 -10 61 12 61 28 0 9 -9 20
-19 26 -24 13 -24 13 -39 -2z"/>
<path d="M5914 552 c-17 -11 -23 -50 -10 -66 17 -21 56 -3 56 27 0 21 -16 47
-29 47 -4 0 -11 -4 -17 -8z"/>
<path d="M5947 408 c-23 -8 -28 -15 -25 -37 2 -21 8 -26 28 -23 34 3 64 40 49
58 -13 16 -14 16 -52 2z"/>
<path d="M5732 468 c-17 -17 -15 -88 4 -109 12 -14 21 -15 43 -8 24 8 28 16
30 55 1 25 -3 52 -10 60 -14 17 -51 18 -67 2z"/>
</g>
</svg>
